<?xml version="1.0" encoding="UTF-8" standalone="no"?>
<!DOCTYPE svg PUBLIC "-//W3C//DTD SVG 1.1//EN"
 "http://www.w3.org/Graphics/SVG/1.1/DTD/svg11.dtd">
<!-- Generated by graphviz version 2.38.0 (20140413.2041)
 -->
<!-- Title: gerichtet Pages: 1 -->
<svg width="807pt" height="1262pt"
 viewBox="0.00 0.00 807.00 1262.00" xmlns="http://www.w3.org/2000/svg" xmlns:xlink="http://www.w3.org/1999/xlink">
<g id="graph0" class="graph" transform="scale(1 1) rotate(0) translate(4 1258)">
<title>gerichtet</title>
<polygon fill="white" stroke="none" points="-4,4 -4,-1258 803,-1258 803,4 -4,4"/>
<!-- 1 -->
<g id="node1" class="node"><title>1</title>
<ellipse fill="none" stroke="black" cx="201" cy="-1149" rx="27" ry="18"/>
<text text-anchor="middle" x="201" y="-1145.3" font-family="Times New Roman,serif" font-size="14.00">1</text>
</g>
<!-- 19 -->
<g id="node2" class="node"><title>19</title>
<ellipse fill="none" stroke="black" cx="224" cy="-1062" rx="27" ry="18"/>
<text text-anchor="middle" x="224" y="-1058.3" font-family="Times New Roman,serif" font-size="14.00">19</text>
</g>
<!-- 1&#45;&gt;19 -->
<g id="edge1" class="edge"><title>1&#45;&gt;19</title>
<path fill="none" stroke="black" d="M205.544,-1131.21C208.757,-1119.33 213.131,-1103.17 216.814,-1089.56"/>
<polygon fill="black" stroke="black" points="220.232,-1090.33 219.465,-1079.76 213.475,-1088.5 220.232,-1090.33"/>
<text text-anchor="middle" x="239.5" y="-1101.8" font-family="Times New Roman,serif" font-size="14.00">(c:95,f:0)</text>
</g>
<!-- 20 -->
<g id="node3" class="node"><title>20</title>
<ellipse fill="none" stroke="black" cx="352" cy="-627" rx="27" ry="18"/>
<text text-anchor="middle" x="352" y="-623.3" font-family="Times New Roman,serif" font-size="14.00">20</text>
</g>
<!-- 1&#45;&gt;20 -->
<g id="edge2" class="edge"><title>1&#45;&gt;20</title>
<path fill="none" stroke="black" d="M226.764,-1143.44C265.179,-1135 333,-1113.02 333,-1063 333,-1063 333,-1063 333,-843.5 333,-775.407 342.529,-695.678 348.091,-654.946"/>
<polygon fill="black" stroke="black" points="351.563,-655.384 349.477,-644.996 344.63,-654.418 351.563,-655.384"/>
<text text-anchor="middle" x="358.5" y="-884.3" font-family="Times New Roman,serif" font-size="14.00">(c:73,f:0)</text>
</g>
<!-- 13 -->
<g id="node17" class="node"><title>13</title>
<ellipse fill="none" stroke="black" cx="494" cy="-975" rx="27" ry="18"/>
<text text-anchor="middle" x="494" y="-971.3" font-family="Times New Roman,serif" font-size="14.00">13</text>
</g>
<!-- 19&#45;&gt;13 -->
<g id="edge38" class="edge"><title>19&#45;&gt;13</title>
<path fill="none" stroke="black" d="M245.779,-1051.18C270.45,-1040.31 312.034,-1022.79 349,-1011 385.747,-999.282 428.816,-989.352 458.412,-983.096"/>
<polygon fill="black" stroke="black" points="459.211,-986.505 468.287,-981.039 457.783,-979.652 459.211,-986.505"/>
<text text-anchor="middle" x="378" y="-1014.8" font-family="Times New Roman,serif" font-size="14.00">(c:26,f:24)</text>
</g>
<!-- 3 -->
<g id="node5" class="node"><title>3</title>
<ellipse fill="none" stroke="black" cx="417" cy="-453" rx="27" ry="18"/>
<text text-anchor="middle" x="417" y="-449.3" font-family="Times New Roman,serif" font-size="14.00">3</text>
</g>
<!-- 20&#45;&gt;3 -->
<g id="edge39" class="edge"><title>20&#45;&gt;3</title>
<path fill="none" stroke="black" d="M358.608,-609.466C370.252,-580.353 393.274,-522.908 394,-522 402.778,-511.023 413.477,-516.449 420,-504 423.704,-496.93 424.367,-488.503 423.693,-480.6"/>
<polygon fill="black" stroke="black" points="427.146,-480.03 422.179,-470.672 420.226,-481.085 427.146,-480.03"/>
<text text-anchor="middle" x="419.5" y="-536.3" font-family="Times New Roman,serif" font-size="14.00">(c:16,f:0)</text>
</g>
<!-- 8 -->
<g id="node14" class="node"><title>8</title>
<ellipse fill="none" stroke="black" cx="317" cy="-540" rx="27" ry="18"/>
<text text-anchor="middle" x="317" y="-536.3" font-family="Times New Roman,serif" font-size="14.00">8</text>
</g>
<!-- 20&#45;&gt;8 -->
<g id="edge40" class="edge"><title>20&#45;&gt;8</title>
<path fill="none" stroke="black" d="M333.377,-613.55C326.219,-607.652 318.847,-599.934 315,-591 311.929,-583.869 311.247,-575.622 311.659,-567.909"/>
<polygon fill="black" stroke="black" points="315.147,-568.202 312.778,-557.876 308.191,-567.426 315.147,-568.202"/>
<text text-anchor="middle" x="340.5" y="-579.8" font-family="Times New Roman,serif" font-size="14.00">(c:43,f:0)</text>
</g>
<!-- 2 -->
<g id="node4" class="node"><title>2</title>
<ellipse fill="none" stroke="black" cx="253" cy="-366" rx="27" ry="18"/>
<text text-anchor="middle" x="253" y="-362.3" font-family="Times New Roman,serif" font-size="14.00">2</text>
</g>
<!-- 2&#45;&gt;19 -->
<g id="edge3" class="edge"><title>2&#45;&gt;19</title>
<path fill="none" stroke="black" d="M249.149,-383.937C241.26,-420.162 224,-507.943 224,-582.5 224,-976 224,-976 224,-976 224,-995.247 224,-1016.95 224,-1033.6"/>
<polygon fill="black" stroke="black" points="220.5,-1033.74 224,-1043.74 227.5,-1033.74 220.5,-1033.74"/>
<text text-anchor="middle" x="253" y="-710.3" font-family="Times New Roman,serif" font-size="14.00">(c:36,f:24)</text>
</g>
<!-- 3&#45;&gt;2 -->
<g id="edge4" class="edge"><title>3&#45;&gt;2</title>
<path fill="none" stroke="black" d="M413.538,-434.811C410.465,-423.892 404.873,-410.299 395,-402 386.815,-395.12 327.921,-382.141 288.595,-374.067"/>
<polygon fill="black" stroke="black" points="289.068,-370.592 278.571,-372.028 287.672,-377.451 289.068,-370.592"/>
<text text-anchor="middle" x="431.5" y="-405.8" font-family="Times New Roman,serif" font-size="14.00">(c:72,f:0)</text>
</g>
<!-- 4 -->
<g id="node6" class="node"><title>4</title>
<ellipse fill="none" stroke="black" cx="593" cy="-18" rx="27" ry="18"/>
<text text-anchor="middle" x="593" y="-14.3" font-family="Times New Roman,serif" font-size="14.00">4</text>
</g>
<!-- 4&#45;&gt;1 -->
<g id="edge5" class="edge"><title>4&#45;&gt;1</title>
<path fill="none" stroke="black" d="M565.979,-19.9827C449.971,-24.5531 0,-46.018 0,-104 0,-541 0,-541 0,-541 0,-663.158 92,-677.842 92,-800 92,-1063 92,-1063 92,-1063 92,-1101.6 135.037,-1125.25 167.025,-1137.5"/>
<polygon fill="black" stroke="black" points="165.944,-1140.83 176.538,-1140.94 168.324,-1134.25 165.944,-1140.83"/>
<text text-anchor="middle" x="31.5" y="-579.8" font-family="Times New Roman,serif" font-size="14.00">(c:45,f:0)</text>
</g>
<!-- 5 -->
<g id="node7" class="node"><title>5</title>
<ellipse fill="none" stroke="black" cx="383" cy="-279" rx="27" ry="18"/>
<text text-anchor="middle" x="383" y="-275.3" font-family="Times New Roman,serif" font-size="14.00">5</text>
</g>
<!-- 6 -->
<g id="node8" class="node"><title>6</title>
<ellipse fill="none" stroke="black" cx="528" cy="-192" rx="27" ry="18"/>
<text text-anchor="middle" x="528" y="-188.3" font-family="Times New Roman,serif" font-size="14.00">6</text>
</g>
<!-- 5&#45;&gt;6 -->
<g id="edge6" class="edge"><title>5&#45;&gt;6</title>
<path fill="none" stroke="black" d="M378.504,-260.939C376.786,-250.348 376.719,-237.074 384,-228 397.246,-211.492 452.946,-201.746 491.059,-196.889"/>
<polygon fill="black" stroke="black" points="491.787,-200.327 501.293,-195.647 490.944,-193.378 491.787,-200.327"/>
<text text-anchor="middle" x="413" y="-231.8" font-family="Times New Roman,serif" font-size="14.00">(c:86,f:45)</text>
</g>
<!-- 15 -->
<g id="node9" class="node"><title>15</title>
<ellipse fill="none" stroke="black" cx="494" cy="-888" rx="27" ry="18"/>
<text text-anchor="middle" x="494" y="-884.3" font-family="Times New Roman,serif" font-size="14.00">15</text>
</g>
<!-- 5&#45;&gt;15 -->
<g id="edge7" class="edge"><title>5&#45;&gt;15</title>
<path fill="none" stroke="black" d="M407.736,-286.45C441.265,-296.859 497,-320.809 497,-365 494,-584.5 494,-584.5 494,-584.5 494,-619.617 487.003,-627.94 485,-663 480.946,-733.954 487.254,-817.656 491.205,-859.818"/>
<polygon fill="black" stroke="black" points="487.729,-860.231 492.175,-869.848 494.696,-859.558 487.729,-860.231"/>
<text text-anchor="middle" x="523" y="-579.8" font-family="Times New Roman,serif" font-size="14.00">(c:23,f:23)</text>
</g>
<!-- 11 -->
<g id="node10" class="node"><title>11</title>
<ellipse fill="none" stroke="black" cx="383" cy="-366" rx="27" ry="18"/>
<text text-anchor="middle" x="383" y="-362.3" font-family="Times New Roman,serif" font-size="14.00">11</text>
</g>
<!-- 6&#45;&gt;11 -->
<g id="edge8" class="edge"><title>6&#45;&gt;11</title>
<path fill="none" stroke="black" d="M513.612,-207.461C501.03,-220.63 482.816,-241.016 470,-261 451.752,-289.456 460.268,-304.567 438,-330 431.194,-337.774 422.248,-344.454 413.554,-349.832"/>
<polygon fill="black" stroke="black" points="411.592,-346.923 404.685,-354.956 415.094,-352.984 411.592,-346.923"/>
<text text-anchor="middle" x="495.5" y="-275.3" font-family="Times New Roman,serif" font-size="14.00">(c:96,f:0)</text>
</g>
<!-- 17 -->
<g id="node11" class="node"><title>17</title>
<ellipse fill="none" stroke="black" cx="531" cy="-801" rx="27" ry="18"/>
<text text-anchor="middle" x="531" y="-797.3" font-family="Times New Roman,serif" font-size="14.00">17</text>
</g>
<!-- 6&#45;&gt;17 -->
<g id="edge9" class="edge"><title>6&#45;&gt;17</title>
<path fill="none" stroke="black" d="M530.253,-210.222C532.3,-227.369 535,-254.457 535,-278 535,-454 535,-454 535,-454 535,-476.227 532.778,-482.008 536,-504 540.814,-536.861 551.514,-543.093 556,-576 565.695,-647.128 548.657,-731.345 538.221,-773.365"/>
<polygon fill="black" stroke="black" points="534.817,-772.55 535.73,-783.105 541.599,-774.284 534.817,-772.55"/>
<text text-anchor="middle" x="565" y="-492.8" font-family="Times New Roman,serif" font-size="14.00">(c:91,f:33)</text>
</g>
<!-- 18 -->
<g id="node12" class="node"><title>18</title>
<ellipse fill="none" stroke="black" cx="544" cy="-105" rx="27" ry="18"/>
<text text-anchor="middle" x="544" y="-101.3" font-family="Times New Roman,serif" font-size="14.00">18</text>
</g>
<!-- 6&#45;&gt;18 -->
<g id="edge10" class="edge"><title>6&#45;&gt;18</title>
<path fill="none" stroke="black" d="M526.727,-173.687C526.415,-163.973 526.693,-151.694 529,-141 529.662,-137.932 530.594,-134.799 531.673,-131.73"/>
<polygon fill="black" stroke="black" points="534.981,-132.886 535.473,-122.303 528.488,-130.269 534.981,-132.886"/>
<text text-anchor="middle" x="558" y="-144.8" font-family="Times New Roman,serif" font-size="14.00">(c:19,f:12)</text>
</g>
<!-- 15&#45;&gt;17 -->
<g id="edge31" class="edge"><title>15&#45;&gt;17</title>
<path fill="none" stroke="black" d="M501.134,-870.611C506.372,-858.577 513.596,-841.983 519.627,-828.128"/>
<polygon fill="black" stroke="black" points="522.98,-829.195 523.762,-818.629 516.561,-826.401 522.98,-829.195"/>
<text text-anchor="middle" x="539.5" y="-840.8" font-family="Times New Roman,serif" font-size="14.00">(c:33,f:0)</text>
</g>
<!-- 7 -->
<g id="node13" class="node"><title>7</title>
<ellipse fill="none" stroke="black" cx="621" cy="-279" rx="27" ry="18"/>
<text text-anchor="middle" x="621" y="-275.3" font-family="Times New Roman,serif" font-size="14.00">7</text>
</g>
<!-- 15&#45;&gt;7 -->
<g id="edge30" class="edge"><title>15&#45;&gt;7</title>
<path fill="none" stroke="black" d="M518.251,-879.571C533.984,-873.871 554.228,-864.793 569,-852 634.93,-794.904 646,-758.717 646,-671.5 646,-671.5 646,-671.5 646,-495.5 646,-459.358 631.95,-356.291 624.915,-306.956"/>
<polygon fill="black" stroke="black" points="628.373,-306.413 623.488,-297.011 621.444,-307.407 628.373,-306.413"/>
<text text-anchor="middle" x="675" y="-579.8" font-family="Times New Roman,serif" font-size="14.00">(c:96,f:47)</text>
</g>
<!-- 11&#45;&gt;5 -->
<g id="edge21" class="edge"><title>11&#45;&gt;5</title>
<path fill="none" stroke="black" d="M383,-347.799C383,-336.163 383,-320.548 383,-307.237"/>
<polygon fill="black" stroke="black" points="386.5,-307.175 383,-297.175 379.5,-307.175 386.5,-307.175"/>
<text text-anchor="middle" x="408.5" y="-318.8" font-family="Times New Roman,serif" font-size="14.00">(c:80,f:0)</text>
</g>
<!-- 17&#45;&gt;3 -->
<g id="edge35" class="edge"><title>17&#45;&gt;3</title>
<path fill="none" stroke="black" d="M517.318,-785.198C494.333,-759.204 448.831,-702.621 432,-645 421.038,-607.472 440.134,-596.792 445,-558 446.992,-542.124 447.124,-537.858 445,-522 442.982,-506.932 441.664,-503.108 436,-489 434.672,-485.692 433.108,-482.296 431.457,-478.983"/>
<polygon fill="black" stroke="black" points="434.473,-477.2 426.698,-470.003 428.288,-480.478 434.473,-477.2"/>
<text text-anchor="middle" x="457.5" y="-623.3" font-family="Times New Roman,serif" font-size="14.00">(c:78,f:0)</text>
</g>
<!-- 10 -->
<g id="node19" class="node"><title>10</title>
<ellipse fill="none" stroke="black" cx="591" cy="-714" rx="27" ry="18"/>
<text text-anchor="middle" x="591" y="-710.3" font-family="Times New Roman,serif" font-size="14.00">10</text>
</g>
<!-- 17&#45;&gt;10 -->
<g id="edge36" class="edge"><title>17&#45;&gt;10</title>
<path fill="none" stroke="black" d="M542.005,-784.41C550.97,-771.709 563.78,-753.562 574.053,-739.008"/>
<polygon fill="black" stroke="black" points="577.157,-740.68 580.065,-730.491 571.439,-736.643 577.157,-740.68"/>
<text text-anchor="middle" x="593" y="-753.8" font-family="Times New Roman,serif" font-size="14.00">(c:47,f:33)</text>
</g>
<!-- 18&#45;&gt;4 -->
<g id="edge37" class="edge"><title>18&#45;&gt;4</title>
<path fill="none" stroke="black" d="M548.344,-87.0834C551.337,-77.049 555.883,-64.3165 562,-54 564.674,-49.49 567.972,-45.0277 571.41,-40.8761"/>
<polygon fill="black" stroke="black" points="574.065,-43.1562 578.063,-33.3445 568.819,-38.5217 574.065,-43.1562"/>
<text text-anchor="middle" x="591" y="-57.8" font-family="Times New Roman,serif" font-size="14.00">(c:75,f:24)</text>
</g>
<!-- 7&#45;&gt;4 -->
<g id="edge11" class="edge"><title>7&#45;&gt;4</title>
<path fill="none" stroke="black" d="M624.504,-261.093C631.662,-222.902 645.26,-127.562 620,-54 618.501,-49.6359 616.217,-45.3912 613.6,-41.4504"/>
<polygon fill="black" stroke="black" points="616.328,-39.2553 607.511,-33.3806 610.74,-43.4714 616.328,-39.2553"/>
<text text-anchor="middle" x="663" y="-144.8" font-family="Times New Roman,serif" font-size="14.00">(c:59,f:59)</text>
</g>
<!-- 7&#45;&gt;6 -->
<g id="edge12" class="edge"><title>7&#45;&gt;6</title>
<path fill="none" stroke="black" d="M601.245,-266.614C591.09,-260.302 578.82,-251.934 569,-243 560.442,-235.214 552.13,-225.593 545.252,-216.877"/>
<polygon fill="black" stroke="black" points="547.994,-214.701 539.137,-208.887 542.435,-218.955 547.994,-214.701"/>
<text text-anchor="middle" x="594.5" y="-231.8" font-family="Times New Roman,serif" font-size="14.00">(c:37,f:0)</text>
</g>
<!-- 8&#45;&gt;3 -->
<g id="edge13" class="edge"><title>8&#45;&gt;3</title>
<path fill="none" stroke="black" d="M331.08,-524.446C341.274,-514.165 355.566,-500.268 369,-489 375.667,-483.408 383.154,-477.7 390.195,-472.56"/>
<polygon fill="black" stroke="black" points="392.693,-475.076 398.781,-466.405 388.615,-469.387 392.693,-475.076"/>
<text text-anchor="middle" x="394.5" y="-492.8" font-family="Times New Roman,serif" font-size="14.00">(c:64,f:0)</text>
</g>
<!-- 12 -->
<g id="node15" class="node"><title>12</title>
<ellipse fill="none" stroke="black" cx="293" cy="-453" rx="27" ry="18"/>
<text text-anchor="middle" x="293" y="-449.3" font-family="Times New Roman,serif" font-size="14.00">12</text>
</g>
<!-- 8&#45;&gt;12 -->
<g id="edge14" class="edge"><title>8&#45;&gt;12</title>
<path fill="none" stroke="black" d="M305.048,-523.833C301.1,-517.969 297.167,-510.992 295,-504 292.762,-496.781 291.815,-488.694 291.538,-481.162"/>
<polygon fill="black" stroke="black" points="295.038,-481.031 291.531,-471.034 288.038,-481.037 295.038,-481.031"/>
<text text-anchor="middle" x="320.5" y="-492.8" font-family="Times New Roman,serif" font-size="14.00">(c:83,f:0)</text>
</g>
<!-- 12&#45;&gt;2 -->
<g id="edge22" class="edge"><title>12&#45;&gt;2</title>
<path fill="none" stroke="black" d="M281.579,-436.475C277.569,-430.573 273.256,-423.663 270,-417 266.417,-409.669 263.271,-401.392 260.691,-393.713"/>
<polygon fill="black" stroke="black" points="263.998,-392.564 257.635,-384.092 257.326,-394.682 263.998,-392.564"/>
<text text-anchor="middle" x="295.5" y="-405.8" font-family="Times New Roman,serif" font-size="14.00">(c:26,f:0)</text>
</g>
<!-- 12&#45;&gt;15 -->
<g id="edge24" class="edge"><title>12&#45;&gt;15</title>
<path fill="none" stroke="black" d="M287.956,-470.691C282.431,-491.334 275.092,-527.487 281,-558 309.947,-707.514 358.244,-736.07 457,-852 461.214,-856.947 466.059,-861.939 470.824,-866.542"/>
<polygon fill="black" stroke="black" points="468.452,-869.115 478.145,-873.392 473.234,-864.004 468.452,-869.115"/>
<text text-anchor="middle" x="341" y="-666.8" font-family="Times New Roman,serif" font-size="14.00">(c:4,f:0)</text>
</g>
<!-- 12&#45;&gt;11 -->
<g id="edge23" class="edge"><title>12&#45;&gt;11</title>
<path fill="none" stroke="black" d="M307.563,-437.386C317.675,-427.322 331.52,-413.707 344,-402 348.964,-397.344 354.357,-392.42 359.505,-387.782"/>
<polygon fill="black" stroke="black" points="362.178,-390.087 367.296,-380.81 357.51,-384.871 362.178,-390.087"/>
<text text-anchor="middle" x="369.5" y="-405.8" font-family="Times New Roman,serif" font-size="14.00">(c:12,f:0)</text>
</g>
<!-- 9 -->
<g id="node16" class="node"><title>9</title>
<ellipse fill="none" stroke="black" cx="162" cy="-1236" rx="27" ry="18"/>
<text text-anchor="middle" x="162" y="-1232.3" font-family="Times New Roman,serif" font-size="14.00">9</text>
</g>
<!-- 9&#45;&gt;1 -->
<g id="edge15" class="edge"><title>9&#45;&gt;1</title>
<path fill="none" stroke="black" d="M169.52,-1218.61C175.131,-1206.38 182.903,-1189.44 189.32,-1175.46"/>
<polygon fill="black" stroke="black" points="192.514,-1176.89 193.503,-1166.34 186.152,-1173.97 192.514,-1176.89"/>
<text text-anchor="middle" x="209.5" y="-1188.8" font-family="Times New Roman,serif" font-size="14.00">(c:89,f:0)</text>
</g>
<!-- 9&#45;&gt;5 -->
<g id="edge16" class="edge"><title>9&#45;&gt;5</title>
<path fill="none" stroke="black" d="M135.772,-1231.46C94.4887,-1224.25 19,-1203.72 19,-1150 19,-1150 19,-1150 19,-800 19,-777.773 16.1828,-771.896 20,-750 41.0238,-629.403 53.3298,-598.53 108,-489 120.993,-462.969 127.485,-458.23 145,-435 175.216,-394.924 176.567,-377.737 217,-348 257.418,-318.275 312.703,-299.033 348.139,-288.851"/>
<polygon fill="black" stroke="black" points="349.325,-292.154 358.019,-286.1 347.446,-285.411 349.325,-292.154"/>
<text text-anchor="middle" x="49" y="-753.8" font-family="Times New Roman,serif" font-size="14.00">(c:73,f:68)</text>
</g>
<!-- 9&#45;&gt;13 -->
<g id="edge17" class="edge"><title>9&#45;&gt;13</title>
<path fill="none" stroke="black" d="M185.002,-1226.32C200.722,-1219.97 221.749,-1210.63 239,-1200 336.516,-1139.89 432.976,-1041.9 473.751,-998.227"/>
<polygon fill="black" stroke="black" points="476.473,-1000.44 480.704,-990.725 471.339,-995.68 476.473,-1000.44"/>
<text text-anchor="middle" x="401" y="-1101.8" font-family="Times New Roman,serif" font-size="14.00">(c:24,f:24)</text>
</g>
<!-- 16 -->
<g id="node18" class="node"><title>16</title>
<ellipse fill="none" stroke="black" cx="138" cy="-540" rx="27" ry="18"/>
<text text-anchor="middle" x="138" y="-536.3" font-family="Times New Roman,serif" font-size="14.00">16</text>
</g>
<!-- 9&#45;&gt;16 -->
<g id="edge18" class="edge"><title>9&#45;&gt;16</title>
<path fill="none" stroke="black" d="M154.406,-1218.46C147.375,-1201.6 138,-1174.53 138,-1150 138,-1150 138,-1150 138,-626 138,-606.753 138,-585.054 138,-568.397"/>
<polygon fill="black" stroke="black" points="141.5,-568.256 138,-558.256 134.5,-568.256 141.5,-568.256"/>
<text text-anchor="middle" x="167" y="-884.3" font-family="Times New Roman,serif" font-size="14.00">(c:27,f:24)</text>
</g>
<!-- 13&#45;&gt;15 -->
<g id="edge27" class="edge"><title>13&#45;&gt;15</title>
<path fill="none" stroke="black" d="M494,-956.799C494,-945.163 494,-929.548 494,-916.237"/>
<polygon fill="black" stroke="black" points="497.5,-916.175 494,-906.175 490.5,-916.175 497.5,-916.175"/>
<text text-anchor="middle" x="523" y="-927.8" font-family="Times New Roman,serif" font-size="14.00">(c:82,f:24)</text>
</g>
<!-- 13&#45;&gt;10 -->
<g id="edge25" class="edge"><title>13&#45;&gt;10</title>
<path fill="none" stroke="black" d="M515.991,-964.51C551.33,-947.822 619.203,-909.452 643,-852 653.78,-825.976 665.759,-824.686 626,-750 623.274,-744.88 619.553,-740.026 615.55,-735.655"/>
<polygon fill="black" stroke="black" points="617.758,-732.915 608.195,-728.354 612.826,-737.883 617.758,-732.915"/>
<text text-anchor="middle" x="674.5" y="-840.8" font-family="Times New Roman,serif" font-size="14.00">(c:85,f:0)</text>
</g>
<!-- 14 -->
<g id="node20" class="node"><title>14</title>
<ellipse fill="none" stroke="black" cx="682" cy="-366" rx="27" ry="18"/>
<text text-anchor="middle" x="682" y="-362.3" font-family="Times New Roman,serif" font-size="14.00">14</text>
</g>
<!-- 13&#45;&gt;14 -->
<g id="edge26" class="edge"><title>13&#45;&gt;14</title>
<path fill="none" stroke="black" d="M520.49,-970.326C582.717,-960.956 733,-933.7 733,-889 733,-889 733,-889 733,-452 733,-427.966 717.822,-404.858 704.026,-388.819"/>
<polygon fill="black" stroke="black" points="706.339,-386.159 697.026,-381.108 701.156,-390.864 706.339,-386.159"/>
<text text-anchor="middle" x="762" y="-666.8" font-family="Times New Roman,serif" font-size="14.00">(c:81,f:24)</text>
</g>
<!-- 16&#45;&gt;2 -->
<g id="edge32" class="edge"><title>16&#45;&gt;2</title>
<path fill="none" stroke="black" d="M138.848,-521.776C140.655,-499.939 146.31,-461.902 164,-435 178.757,-412.558 203.499,-394.538 223.155,-382.7"/>
<polygon fill="black" stroke="black" points="225.152,-385.589 232.051,-377.549 221.644,-379.531 225.152,-385.589"/>
<text text-anchor="middle" x="193" y="-449.3" font-family="Times New Roman,serif" font-size="14.00">(c:51,f:24)</text>
</g>
<!-- 16&#45;&gt;3 -->
<g id="edge33" class="edge"><title>16&#45;&gt;3</title>
<path fill="none" stroke="black" d="M157.609,-527.191C177.286,-515.831 208.787,-498.953 238,-489 239.704,-488.419 329.422,-470.981 381.173,-460.943"/>
<polygon fill="black" stroke="black" points="382.136,-464.322 391.287,-458.982 380.804,-457.45 382.136,-464.322"/>
<text text-anchor="middle" x="263.5" y="-492.8" font-family="Times New Roman,serif" font-size="14.00">(c:42,f:0)</text>
</g>
<!-- 16&#45;&gt;18 -->
<g id="edge34" class="edge"><title>16&#45;&gt;18</title>
<path fill="none" stroke="black" d="M127.429,-523.143C117.448,-506.611 104,-479.589 104,-454 104,-454 104,-454 104,-191 104,-109.294 400.185,-104.443 506.541,-105.335"/>
<polygon fill="black" stroke="black" points="506.771,-108.837 516.808,-105.444 506.846,-101.838 506.771,-108.837"/>
<text text-anchor="middle" x="129.5" y="-318.8" font-family="Times New Roman,serif" font-size="14.00">(c:67,f:0)</text>
</g>
<!-- 10&#45;&gt;20 -->
<g id="edge20" class="edge"><title>10&#45;&gt;20</title>
<path fill="none" stroke="black" d="M567.498,-705.085C530.769,-692.653 457.586,-667.628 396,-645 392.217,-643.61 388.262,-642.126 384.341,-640.636"/>
<polygon fill="black" stroke="black" points="385.373,-637.283 374.782,-636.968 382.865,-643.818 385.373,-637.283"/>
<text text-anchor="middle" x="511.5" y="-666.8" font-family="Times New Roman,serif" font-size="14.00">(c:51,f:0)</text>
</g>
<!-- 10&#45;&gt;4 -->
<g id="edge19" class="edge"><title>10&#45;&gt;4</title>
<path fill="none" stroke="black" d="M596.379,-696.264C601.359,-679.262 608,-652.079 608,-628 608,-628 608,-628 608,-495.5 608,-425.888 678.74,-441.485 718,-384 734.606,-359.684 745,-352.945 745,-323.5 745,-323.5 745,-323.5 745,-104 745,-51.2663 674.445,-30.9331 629.474,-23.3288"/>
<polygon fill="black" stroke="black" points="629.895,-19.8524 619.476,-21.7743 628.82,-26.7692 629.895,-19.8524"/>
<text text-anchor="middle" x="770" y="-362.3" font-family="Times New Roman,serif" font-size="14.00">(c:33,f:33)</text>
</g>
<!-- 14&#45;&gt;18 -->
<g id="edge29" class="edge"><title>14&#45;&gt;18</title>
<path fill="none" stroke="black" d="M693.013,-349.39C698.565,-339.605 703.459,-326.677 700,-315 673.81,-226.587 648.615,-209.603 587,-141 581.959,-135.387 575.974,-129.931 570.096,-125.061"/>
<polygon fill="black" stroke="black" points="572.252,-122.304 562.245,-118.824 567.898,-127.785 572.252,-122.304"/>
<text text-anchor="middle" x="699" y="-231.8" font-family="Times New Roman,serif" font-size="14.00">(c:27,f:12)</text>
</g>
<!-- 14&#45;&gt;7 -->
<g id="edge28" class="edge"><title>14&#45;&gt;7</title>
<path fill="none" stroke="black" d="M664.008,-352.193C656.457,-346.129 648.045,-338.382 642,-330 636.832,-322.834 632.631,-314.202 629.382,-306.143"/>
<polygon fill="black" stroke="black" points="632.651,-304.892 625.891,-296.734 626.088,-307.327 632.651,-304.892"/>
<text text-anchor="middle" x="671" y="-318.8" font-family="Times New Roman,serif" font-size="14.00">(c:12,f:12)</text>
</g>
</g>
</svg>
