<?xml version="1.0" encoding="UTF-8" standalone="no"?>
<!DOCTYPE svg PUBLIC "-//W3C//DTD SVG 1.1//EN"
 "http://www.w3.org/Graphics/SVG/1.1/DTD/svg11.dtd">
<!-- Generated by graphviz version 2.38.0 (20140413.2041)
 -->
<!-- Title: gerichtet Pages: 1 -->
<svg width="987pt" height="1871pt"
 viewBox="0.00 0.00 987.02 1871.00" xmlns="http://www.w3.org/2000/svg" xmlns:xlink="http://www.w3.org/1999/xlink">
<g id="graph0" class="graph" transform="scale(1 1) rotate(0) translate(4 1867)">
<title>gerichtet</title>
<polygon fill="white" stroke="none" points="-4,4 -4,-1867 983.021,-1867 983.021,4 -4,4"/>
<!-- 1 -->
<g id="node1" class="node"><title>1</title>
<ellipse fill="none" stroke="black" cx="290.021" cy="-1845" rx="27" ry="18"/>
<text text-anchor="middle" x="290.021" y="-1841.3" font-family="Times New Roman,serif" font-size="14.00">1</text>
</g>
<!-- 2 -->
<g id="node2" class="node"><title>2</title>
<ellipse fill="none" stroke="black" cx="485.021" cy="-1758" rx="27" ry="18"/>
<text text-anchor="middle" x="485.021" y="-1754.3" font-family="Times New Roman,serif" font-size="14.00">2</text>
</g>
<!-- 1&#45;&gt;2 -->
<g id="edge1" class="edge"><title>1&#45;&gt;2</title>
<path fill="none" stroke="black" d="M312.011,-1834.41C346.628,-1819.33 413.967,-1789.97 453.654,-1772.67"/>
<polygon fill="black" stroke="black" points="455.343,-1775.75 463.112,-1768.55 452.546,-1769.34 455.343,-1775.75"/>
<text text-anchor="middle" x="429.021" y="-1797.8" font-family="Times New Roman,serif" font-size="14.00">(c:70,f:70)</text>
</g>
<!-- 9 -->
<g id="node3" class="node"><title>9</title>
<ellipse fill="none" stroke="black" cx="188.021" cy="-1149" rx="27" ry="18"/>
<text text-anchor="middle" x="188.021" y="-1145.3" font-family="Times New Roman,serif" font-size="14.00">9</text>
</g>
<!-- 1&#45;&gt;9 -->
<g id="edge2" class="edge"><title>1&#45;&gt;9</title>
<path fill="none" stroke="black" d="M266.364,-1836.17C236.232,-1824.53 188.021,-1799.57 188.021,-1759 188.021,-1759 188.021,-1759 188.021,-1235 188.021,-1215.75 188.021,-1194.05 188.021,-1177.4"/>
<polygon fill="black" stroke="black" points="191.521,-1177.26 188.021,-1167.26 184.521,-1177.26 191.521,-1177.26"/>
<text text-anchor="middle" x="223.521" y="-1493.3" font-family="Times New Roman,serif" font-size="14.00">(c:143,f:143)</text>
</g>
<!-- 14 -->
<g id="node4" class="node"><title>14</title>
<ellipse fill="none" stroke="black" cx="360.021" cy="-714" rx="27" ry="18"/>
<text text-anchor="middle" x="360.021" y="-710.3" font-family="Times New Roman,serif" font-size="14.00">14</text>
</g>
<!-- 1&#45;&gt;14 -->
<g id="edge3" class="edge"><title>1&#45;&gt;14</title>
<path fill="none" stroke="black" d="M290.021,-1826.74C290.021,-1809.57 290.021,-1782.46 290.021,-1759 290.021,-1759 290.021,-1759 290.021,-1322 290.021,-1245.53 294.021,-1226.47 294.021,-1150 294.021,-1150 294.021,-1150 294.021,-1017.5 294.021,-912.312 296.838,-884.059 326.021,-783 330.369,-767.943 337.998,-752.226 344.929,-739.699"/>
<polygon fill="black" stroke="black" points="348.09,-741.222 350.027,-730.805 342.017,-737.74 348.09,-741.222"/>
<text text-anchor="middle" x="323.021" y="-1275.8" font-family="Times New Roman,serif" font-size="14.00">(c:142,f:39)</text>
</g>
<!-- 15 -->
<g id="node5" class="node"><title>15</title>
<ellipse fill="none" stroke="black" cx="596.021" cy="-627" rx="27" ry="18"/>
<text text-anchor="middle" x="596.021" y="-623.3" font-family="Times New Roman,serif" font-size="14.00">15</text>
</g>
<!-- 1&#45;&gt;15 -->
<g id="edge4" class="edge"><title>1&#45;&gt;15</title>
<path fill="none" stroke="black" d="M317.279,-1843.21C437.573,-1839.37 915.021,-1820.25 915.021,-1759 915.021,-1759 915.021,-1759 915.021,-930.5 915.021,-777.691 837.13,-728.396 699.021,-663 676.972,-652.559 650.949,-643.744 630.577,-637.572"/>
<polygon fill="black" stroke="black" points="631.364,-634.154 620.782,-634.675 629.378,-640.867 631.364,-634.154"/>
<text text-anchor="middle" x="947.021" y="-1232.3" font-family="Times New Roman,serif" font-size="14.00">(c:258,f:91)</text>
</g>
<!-- 17 -->
<g id="node6" class="node"><title>17</title>
<ellipse fill="none" stroke="black" cx="298.021" cy="-453" rx="27" ry="18"/>
<text text-anchor="middle" x="298.021" y="-449.3" font-family="Times New Roman,serif" font-size="14.00">17</text>
</g>
<!-- 1&#45;&gt;17 -->
<g id="edge5" class="edge"><title>1&#45;&gt;17</title>
<path fill="none" stroke="black" d="M263.319,-1840.84C198.105,-1832.37 36.0213,-1806.55 36.0213,-1759 36.0213,-1759 36.0213,-1759 36.0213,-1017.5 36.0213,-1005.99 100.195,-618.929 106.021,-609 145.107,-542.393 224.355,-492.732 267.819,-469.18"/>
<polygon fill="black" stroke="black" points="269.589,-472.203 276.779,-464.421 266.306,-466.021 269.589,-472.203"/>
<text text-anchor="middle" x="71.5213" y="-1145.3" font-family="Times New Roman,serif" font-size="14.00">(c:129,f:129)</text>
</g>
<!-- 2&#45;&gt;15 -->
<g id="edge8" class="edge"><title>2&#45;&gt;15</title>
<path fill="none" stroke="black" d="M511.708,-1754.97C583.792,-1748.76 777.021,-1726.98 777.021,-1672 777.021,-1672 777.021,-1672 777.021,-930.5 777.021,-850.129 804.877,-820.354 766.021,-750 735.6,-694.917 668.515,-658.52 628.31,-640.741"/>
<polygon fill="black" stroke="black" points="629.519,-637.451 618.949,-636.723 626.758,-643.884 629.519,-637.451"/>
<text text-anchor="middle" x="806.021" y="-1188.8" font-family="Times New Roman,serif" font-size="14.00">(c:268,f:0)</text>
</g>
<!-- 3 -->
<g id="node7" class="node"><title>3</title>
<ellipse fill="none" stroke="black" cx="485.021" cy="-1671" rx="27" ry="18"/>
<text text-anchor="middle" x="485.021" y="-1667.3" font-family="Times New Roman,serif" font-size="14.00">3</text>
</g>
<!-- 2&#45;&gt;3 -->
<g id="edge6" class="edge"><title>2&#45;&gt;3</title>
<path fill="none" stroke="black" d="M485.021,-1739.8C485.021,-1728.16 485.021,-1712.55 485.021,-1699.24"/>
<polygon fill="black" stroke="black" points="488.521,-1699.18 485.021,-1689.18 481.521,-1699.18 488.521,-1699.18"/>
<text text-anchor="middle" x="514.021" y="-1710.8" font-family="Times New Roman,serif" font-size="14.00">(c:201,f:0)</text>
</g>
<!-- 8 -->
<g id="node8" class="node"><title>8</title>
<ellipse fill="none" stroke="black" cx="381.021" cy="-1236" rx="27" ry="18"/>
<text text-anchor="middle" x="381.021" y="-1232.3" font-family="Times New Roman,serif" font-size="14.00">8</text>
</g>
<!-- 2&#45;&gt;8 -->
<g id="edge7" class="edge"><title>2&#45;&gt;8</title>
<path fill="none" stroke="black" d="M460.136,-1750.77C426.052,-1740.57 369.021,-1716.82 369.021,-1672 369.021,-1672 369.021,-1672 369.021,-1322 369.021,-1302.44 372.176,-1280.59 375.25,-1263.95"/>
<polygon fill="black" stroke="black" points="378.743,-1264.32 377.224,-1253.83 371.873,-1262.98 378.743,-1264.32"/>
<text text-anchor="middle" x="398.021" y="-1493.3" font-family="Times New Roman,serif" font-size="14.00">(c:195,f:0)</text>
</g>
<!-- 22 -->
<g id="node9" class="node"><title>22</title>
<ellipse fill="none" stroke="black" cx="374.021" cy="-18" rx="27" ry="18"/>
<text text-anchor="middle" x="374.021" y="-14.3" font-family="Times New Roman,serif" font-size="14.00">22</text>
</g>
<!-- 2&#45;&gt;22 -->
<g id="edge9" class="edge"><title>2&#45;&gt;22</title>
<path fill="none" stroke="black" d="M512.157,-1756.48C596.747,-1754.15 850.021,-1741.37 850.021,-1672 850.021,-1672 850.021,-1672 850.021,-1235 850.021,-1061.47 823.021,-1019.03 823.021,-845.5 823.021,-845.5 823.021,-845.5 823.021,-104 823.021,-62.1553 518.073,-31.551 410.804,-22.08"/>
<polygon fill="black" stroke="black" points="411.03,-18.5865 400.764,-21.2045 410.422,-25.5601 411.03,-18.5865"/>
<text text-anchor="middle" x="856.021" y="-884.3" font-family="Times New Roman,serif" font-size="14.00">(c:277,f:70)</text>
</g>
<!-- 10 -->
<g id="node16" class="node"><title>10</title>
<ellipse fill="none" stroke="black" cx="221.021" cy="-1062" rx="27" ry="18"/>
<text text-anchor="middle" x="221.021" y="-1058.3" font-family="Times New Roman,serif" font-size="14.00">10</text>
</g>
<!-- 9&#45;&gt;10 -->
<g id="edge25" class="edge"><title>9&#45;&gt;10</title>
<path fill="none" stroke="black" d="M189.305,-1130.83C190.483,-1120.94 192.733,-1108.44 197.021,-1098 198.582,-1094.2 200.602,-1090.39 202.808,-1086.76"/>
<polygon fill="black" stroke="black" points="205.874,-1088.47 208.514,-1078.21 200.052,-1084.59 205.874,-1088.47"/>
<text text-anchor="middle" x="226.021" y="-1101.8" font-family="Times New Roman,serif" font-size="14.00">(c:304,f:0)</text>
</g>
<!-- 23 -->
<g id="node17" class="node"><title>23</title>
<ellipse fill="none" stroke="black" cx="269.021" cy="-366" rx="27" ry="18"/>
<text text-anchor="middle" x="269.021" y="-362.3" font-family="Times New Roman,serif" font-size="14.00">23</text>
</g>
<!-- 9&#45;&gt;23 -->
<g id="edge27" class="edge"><title>9&#45;&gt;23</title>
<path fill="none" stroke="black" d="M165.569,-1138.61C153.708,-1132.71 139.654,-1124.11 130.021,-1113 119.582,-1100.97 121.804,-1094.85 116.021,-1080 59.8077,-935.678 -18.3465,-903.26 4.02128,-750 19.2925,-645.364 16.0656,-611.726 72.0213,-522 113.629,-455.281 137.726,-447.264 202.021,-402 213.088,-394.209 226.11,-387.016 237.718,-381.202"/>
<polygon fill="black" stroke="black" points="239.597,-384.18 247.061,-376.661 236.537,-377.885 239.597,-384.18"/>
<text text-anchor="middle" x="39.5213" y="-753.8" font-family="Times New Roman,serif" font-size="14.00">(c:294,f:143)</text>
</g>
<!-- 13 -->
<g id="node18" class="node"><title>13</title>
<ellipse fill="none" stroke="black" cx="134.021" cy="-801" rx="27" ry="18"/>
<text text-anchor="middle" x="134.021" y="-797.3" font-family="Times New Roman,serif" font-size="14.00">13</text>
</g>
<!-- 9&#45;&gt;13 -->
<g id="edge26" class="edge"><title>9&#45;&gt;13</title>
<path fill="none" stroke="black" d="M169.079,-1135.77C148.959,-1121.12 120.021,-1094.56 120.021,-1063 120.021,-1063 120.021,-1063 120.021,-887 120.021,-867.371 123.701,-845.526 127.288,-828.898"/>
<polygon fill="black" stroke="black" points="130.78,-829.327 129.592,-818.799 123.955,-827.77 130.78,-829.327"/>
<text text-anchor="middle" x="149.021" y="-971.3" font-family="Times New Roman,serif" font-size="14.00">(c:120,f:0)</text>
</g>
<!-- 14&#45;&gt;15 -->
<g id="edge35" class="edge"><title>14&#45;&gt;15</title>
<path fill="none" stroke="black" d="M384.922,-706.385C408.781,-699.852 445.687,-689.233 477.021,-678 507.427,-667.1 541.319,-652.623 565.132,-642.053"/>
<polygon fill="black" stroke="black" points="566.664,-645.202 574.365,-637.926 563.807,-638.811 566.664,-645.202"/>
<text text-anchor="middle" x="543.021" y="-666.8" font-family="Times New Roman,serif" font-size="14.00">(c:267,f:0)</text>
</g>
<!-- 14&#45;&gt;17 -->
<g id="edge36" class="edge"><title>14&#45;&gt;17</title>
<path fill="none" stroke="black" d="M355.953,-696.006C345.421,-652.01 317.198,-534.109 304.44,-480.813"/>
<polygon fill="black" stroke="black" points="307.836,-479.967 302.104,-471.056 301.029,-481.596 307.836,-479.967"/>
<text text-anchor="middle" x="363.021" y="-579.8" font-family="Times New Roman,serif" font-size="14.00">(c:171,f:39)</text>
</g>
<!-- 16 -->
<g id="node14" class="node"><title>16</title>
<ellipse fill="none" stroke="black" cx="580.021" cy="-540" rx="27" ry="18"/>
<text text-anchor="middle" x="580.021" y="-536.3" font-family="Times New Roman,serif" font-size="14.00">16</text>
</g>
<!-- 15&#45;&gt;16 -->
<g id="edge37" class="edge"><title>15&#45;&gt;16</title>
<path fill="none" stroke="black" d="M587.494,-609.697C584.906,-603.946 582.387,-597.333 581.021,-591 579.472,-583.815 578.837,-575.914 578.683,-568.557"/>
<polygon fill="black" stroke="black" points="582.184,-568.335 578.749,-558.313 575.184,-568.29 582.184,-568.335"/>
<text text-anchor="middle" x="610.021" y="-579.8" font-family="Times New Roman,serif" font-size="14.00">(c:91,f:91)</text>
</g>
<!-- 17&#45;&gt;23 -->
<g id="edge42" class="edge"><title>17&#45;&gt;23</title>
<path fill="none" stroke="black" d="M283.044,-437.684C277.914,-431.813 272.776,-424.609 270.021,-417 267.45,-409.898 266.511,-401.848 266.391,-394.315"/>
<polygon fill="black" stroke="black" points="269.894,-394.26 266.684,-384.163 262.897,-394.058 269.894,-394.26"/>
<text text-anchor="middle" x="305.521" y="-405.8" font-family="Times New Roman,serif" font-size="14.00">(c:168,f:168)</text>
</g>
<!-- 18 -->
<g id="node23" class="node"><title>18</title>
<ellipse fill="none" stroke="black" cx="516.021" cy="-366" rx="27" ry="18"/>
<text text-anchor="middle" x="516.021" y="-362.3" font-family="Times New Roman,serif" font-size="14.00">18</text>
</g>
<!-- 17&#45;&gt;18 -->
<g id="edge41" class="edge"><title>17&#45;&gt;18</title>
<path fill="none" stroke="black" d="M320.939,-443.064C359.864,-427.887 439,-397.031 483.591,-379.645"/>
<polygon fill="black" stroke="black" points="485.038,-382.837 493.083,-375.944 482.495,-376.316 485.038,-382.837"/>
<text text-anchor="middle" x="450.021" y="-405.8" font-family="Times New Roman,serif" font-size="14.00">(c:310,f:0)</text>
</g>
<!-- 4 -->
<g id="node10" class="node"><title>4</title>
<ellipse fill="none" stroke="black" cx="485.021" cy="-1584" rx="27" ry="18"/>
<text text-anchor="middle" x="485.021" y="-1580.3" font-family="Times New Roman,serif" font-size="14.00">4</text>
</g>
<!-- 3&#45;&gt;4 -->
<g id="edge10" class="edge"><title>3&#45;&gt;4</title>
<path fill="none" stroke="black" d="M485.021,-1652.8C485.021,-1641.16 485.021,-1625.55 485.021,-1612.24"/>
<polygon fill="black" stroke="black" points="488.521,-1612.18 485.021,-1602.18 481.521,-1612.18 488.521,-1612.18"/>
<text text-anchor="middle" x="514.021" y="-1623.8" font-family="Times New Roman,serif" font-size="14.00">(c:142,f:0)</text>
</g>
<!-- 8&#45;&gt;9 -->
<g id="edge22" class="edge"><title>8&#45;&gt;9</title>
<path fill="none" stroke="black" d="M355.648,-1229.14C332.283,-1223.29 296.963,-1213.26 268.021,-1200 249.1,-1191.33 229.254,-1178.95 214.061,-1168.68"/>
<polygon fill="black" stroke="black" points="215.917,-1165.71 205.696,-1162.92 211.947,-1171.47 215.917,-1165.71"/>
<text text-anchor="middle" x="297.021" y="-1188.8" font-family="Times New Roman,serif" font-size="14.00">(c:124,f:0)</text>
</g>
<!-- 8&#45;&gt;14 -->
<g id="edge23" class="edge"><title>8&#45;&gt;14</title>
<path fill="none" stroke="black" d="M368.497,-1219.77C356.44,-1203.53 340.021,-1176.54 340.021,-1150 340.021,-1150 340.021,-1150 340.021,-800 340.021,-779.913 345.379,-757.849 350.548,-741.235"/>
<polygon fill="black" stroke="black" points="353.898,-742.254 353.693,-731.662 347.247,-740.07 353.898,-742.254"/>
<text text-anchor="middle" x="369.021" y="-971.3" font-family="Times New Roman,serif" font-size="14.00">(c:106,f:0)</text>
</g>
<!-- 21 -->
<g id="node15" class="node"><title>21</title>
<ellipse fill="none" stroke="black" cx="519.021" cy="-105" rx="27" ry="18"/>
<text text-anchor="middle" x="519.021" y="-101.3" font-family="Times New Roman,serif" font-size="14.00">21</text>
</g>
<!-- 8&#45;&gt;21 -->
<g id="edge24" class="edge"><title>8&#45;&gt;21</title>
<path fill="none" stroke="black" d="M382.774,-1218C386.784,-1178.54 396.687,-1077.6 402.021,-993 411.257,-846.51 392.327,-808.015 415.021,-663 426.825,-587.574 461.021,-573.844 461.021,-497.5 461.021,-497.5 461.021,-497.5 461.021,-191 461.021,-165.668 478.816,-142.32 494.692,-126.531"/>
<polygon fill="black" stroke="black" points="497.369,-128.817 502.245,-119.411 492.568,-123.724 497.369,-128.817"/>
<text text-anchor="middle" x="444.021" y="-666.8" font-family="Times New Roman,serif" font-size="14.00">(c:135,f:0)</text>
</g>
<!-- 4&#45;&gt;8 -->
<g id="edge12" class="edge"><title>4&#45;&gt;8</title>
<path fill="none" stroke="black" d="M480.005,-1566.31C463.328,-1510.83 409.639,-1332.21 389.109,-1263.91"/>
<polygon fill="black" stroke="black" points="392.339,-1262.5 386.109,-1253.93 385.636,-1264.51 392.339,-1262.5"/>
<text text-anchor="middle" x="467.021" y="-1406.3" font-family="Times New Roman,serif" font-size="14.00">(c:154,f:0)</text>
</g>
<!-- 5 -->
<g id="node11" class="node"><title>5</title>
<ellipse fill="none" stroke="black" cx="545.021" cy="-1497" rx="27" ry="18"/>
<text text-anchor="middle" x="545.021" y="-1493.3" font-family="Times New Roman,serif" font-size="14.00">5</text>
</g>
<!-- 4&#45;&gt;5 -->
<g id="edge11" class="edge"><title>4&#45;&gt;5</title>
<path fill="none" stroke="black" d="M496.026,-1567.41C504.991,-1554.71 517.801,-1536.56 528.075,-1522.01"/>
<polygon fill="black" stroke="black" points="531.179,-1523.68 534.086,-1513.49 525.46,-1519.64 531.179,-1523.68"/>
<text text-anchor="middle" x="548.021" y="-1536.8" font-family="Times New Roman,serif" font-size="14.00">(c:120,f:0)</text>
</g>
<!-- 5&#45;&gt;15 -->
<g id="edge14" class="edge"><title>5&#45;&gt;15</title>
<path fill="none" stroke="black" d="M544.997,-1478.74C545.008,-1418.67 545.838,-1213.24 556.021,-1044 564.875,-896.842 584.873,-721.218 592.747,-655.019"/>
<polygon fill="black" stroke="black" points="596.233,-655.35 593.945,-645.005 589.282,-654.518 596.233,-655.35"/>
<text text-anchor="middle" x="585.021" y="-1058.3" font-family="Times New Roman,serif" font-size="14.00">(c:316,f:0)</text>
</g>
<!-- 6 -->
<g id="node12" class="node"><title>6</title>
<ellipse fill="none" stroke="black" cx="644.021" cy="-1410" rx="27" ry="18"/>
<text text-anchor="middle" x="644.021" y="-1406.3" font-family="Times New Roman,serif" font-size="14.00">6</text>
</g>
<!-- 5&#45;&gt;6 -->
<g id="edge13" class="edge"><title>5&#45;&gt;6</title>
<path fill="none" stroke="black" d="M560.927,-1482.34C576.948,-1468.59 601.858,-1447.2 620.229,-1431.43"/>
<polygon fill="black" stroke="black" points="622.848,-1433.79 628.155,-1424.62 618.288,-1428.48 622.848,-1433.79"/>
<text text-anchor="middle" x="630.021" y="-1449.8" font-family="Times New Roman,serif" font-size="14.00">(c:193,f:0)</text>
</g>
<!-- 6&#45;&gt;15 -->
<g id="edge16" class="edge"><title>6&#45;&gt;15</title>
<path fill="none" stroke="black" d="M643.587,-1391.96C642.999,-1367.35 642.021,-1320.44 642.021,-1280.5 642.021,-1280.5 642.021,-1280.5 642.021,-1104.5 642.021,-1075.57 630.405,-1070.14 618.021,-1044 614.104,-1035.73 610.353,-1034.85 608.021,-1026 566.906,-869.988 625.933,-822.978 605.021,-663 604.668,-660.294 604.174,-657.497 603.599,-654.718"/>
<polygon fill="black" stroke="black" points="606.988,-653.839 601.259,-644.927 600.179,-655.467 606.988,-653.839"/>
<text text-anchor="middle" x="637.021" y="-1014.8" font-family="Times New Roman,serif" font-size="14.00">(c:323,f:0)</text>
</g>
<!-- 7 -->
<g id="node13" class="node"><title>7</title>
<ellipse fill="none" stroke="black" cx="497.021" cy="-1323" rx="27" ry="18"/>
<text text-anchor="middle" x="497.021" y="-1319.3" font-family="Times New Roman,serif" font-size="14.00">7</text>
</g>
<!-- 6&#45;&gt;7 -->
<g id="edge15" class="edge"><title>6&#45;&gt;7</title>
<path fill="none" stroke="black" d="M623.374,-1398.24C610.52,-1391.46 593.697,-1382.42 579.021,-1374 560.764,-1363.53 540.575,-1351.23 524.798,-1341.45"/>
<polygon fill="black" stroke="black" points="526.406,-1338.32 516.067,-1336.01 522.707,-1344.27 526.406,-1338.32"/>
<text text-anchor="middle" x="604.521" y="-1362.8" font-family="Times New Roman,serif" font-size="14.00">(c:93,f:0)</text>
</g>
<!-- 6&#45;&gt;16 -->
<g id="edge17" class="edge"><title>6&#45;&gt;16</title>
<path fill="none" stroke="black" d="M655.018,-1393.54C665.605,-1377.1 680.021,-1349.96 680.021,-1324 680.021,-1324 680.021,-1324 680.021,-1061 680.021,-1002.64 653.021,-990.858 653.021,-932.5 653.021,-932.5 653.021,-932.5 653.021,-626 653.021,-602.923 653.064,-594.312 639.021,-576 632.101,-566.976 622.135,-559.814 612.358,-554.381"/>
<polygon fill="black" stroke="black" points="613.648,-551.111 603.148,-549.698 610.475,-557.35 613.648,-551.111"/>
<text text-anchor="middle" x="694.021" y="-971.3" font-family="Times New Roman,serif" font-size="14.00">(c:195,f:0)</text>
</g>
<!-- 6&#45;&gt;21 -->
<g id="edge18" class="edge"><title>6&#45;&gt;21</title>
<path fill="none" stroke="black" d="M667.018,-1400.28C695.134,-1387.94 739.021,-1362.51 739.021,-1324 739.021,-1324 739.021,-1324 739.021,-1017.5 739.021,-898.492 732.26,-867.52 751.021,-750 759.895,-694.415 785.021,-684.288 785.021,-628 785.021,-628 785.021,-628 785.021,-191 785.021,-143.405 628.55,-118.817 555.624,-109.942"/>
<polygon fill="black" stroke="black" points="555.84,-106.444 545.499,-108.746 555.019,-113.395 555.84,-106.444"/>
<text text-anchor="middle" x="780.021" y="-753.8" font-family="Times New Roman,serif" font-size="14.00">(c:138,f:0)</text>
</g>
<!-- 7&#45;&gt;8 -->
<g id="edge19" class="edge"><title>7&#45;&gt;8</title>
<path fill="none" stroke="black" d="M474.444,-1312.94C460.385,-1306.74 442.32,-1297.71 428.021,-1287 417.696,-1279.27 407.697,-1269.13 399.595,-1260.01"/>
<polygon fill="black" stroke="black" points="402.176,-1257.64 393.003,-1252.34 396.867,-1262.2 402.176,-1257.64"/>
<text text-anchor="middle" x="453.521" y="-1275.8" font-family="Times New Roman,serif" font-size="14.00">(c:95,f:0)</text>
</g>
<!-- 7&#45;&gt;10 -->
<g id="edge20" class="edge"><title>7&#45;&gt;10</title>
<path fill="none" stroke="black" d="M493.153,-1304.78C490.328,-1294.64 485.792,-1281.9 479.021,-1272 416.852,-1181.11 303.803,-1109.49 250.426,-1078.99"/>
<polygon fill="black" stroke="black" points="251.911,-1075.81 241.481,-1073.94 248.472,-1081.91 251.911,-1075.81"/>
<text text-anchor="middle" x="445.021" y="-1188.8" font-family="Times New Roman,serif" font-size="14.00">(c:178,f:0)</text>
</g>
<!-- 7&#45;&gt;23 -->
<g id="edge21" class="edge"><title>7&#45;&gt;23</title>
<path fill="none" stroke="black" d="M497.121,-1304.88C497.152,-1295.22 497.15,-1282.94 497.021,-1272 495.021,-1101.74 488.021,-1059.27 488.021,-889 488.021,-889 488.021,-889 488.021,-713 488.021,-560.115 459.908,-498.124 341.021,-402 329.394,-392.599 314.825,-384.919 301.839,-379.173"/>
<polygon fill="black" stroke="black" points="302.867,-375.808 292.292,-375.159 300.154,-382.261 302.867,-375.808"/>
<text text-anchor="middle" x="517.021" y="-840.8" font-family="Times New Roman,serif" font-size="14.00">(c:142,f:0)</text>
</g>
<!-- 16&#45;&gt;17 -->
<g id="edge38" class="edge"><title>16&#45;&gt;17</title>
<path fill="none" stroke="black" d="M555.978,-531.753C505.844,-516.642 390.008,-481.727 332.169,-464.293"/>
<polygon fill="black" stroke="black" points="332.989,-460.884 322.404,-461.349 330.969,-467.587 332.989,-460.884"/>
<text text-anchor="middle" x="485.021" y="-492.8" font-family="Times New Roman,serif" font-size="14.00">(c:225,f:0)</text>
</g>
<!-- 19 -->
<g id="node21" class="node"><title>19</title>
<ellipse fill="none" stroke="black" cx="563.021" cy="-279" rx="27" ry="18"/>
<text text-anchor="middle" x="563.021" y="-275.3" font-family="Times New Roman,serif" font-size="14.00">19</text>
</g>
<!-- 16&#45;&gt;19 -->
<g id="edge39" class="edge"><title>16&#45;&gt;19</title>
<path fill="none" stroke="black" d="M578.906,-522.006C576.024,-478.102 568.312,-360.6 564.803,-307.147"/>
<polygon fill="black" stroke="black" points="568.288,-306.806 564.141,-297.056 561.303,-307.264 568.288,-306.806"/>
<text text-anchor="middle" x="601.021" y="-405.8" font-family="Times New Roman,serif" font-size="14.00">(c:322,f:0)</text>
</g>
<!-- 20 -->
<g id="node22" class="node"><title>20</title>
<ellipse fill="none" stroke="black" cx="563.021" cy="-192" rx="27" ry="18"/>
<text text-anchor="middle" x="563.021" y="-188.3" font-family="Times New Roman,serif" font-size="14.00">20</text>
</g>
<!-- 16&#45;&gt;20 -->
<g id="edge40" class="edge"><title>16&#45;&gt;20</title>
<path fill="none" stroke="black" d="M599.149,-527.158C619.875,-512.687 650.021,-486.116 650.021,-454 650.021,-454 650.021,-454 650.021,-278 650.021,-253.155 642.142,-246.004 625.021,-228 616.589,-219.132 605.406,-211.889 594.861,-206.34"/>
<polygon fill="black" stroke="black" points="596.362,-203.177 585.844,-201.901 593.27,-209.458 596.362,-203.177"/>
<text text-anchor="middle" x="682.021" y="-362.3" font-family="Times New Roman,serif" font-size="14.00">(c:324,f:91)</text>
</g>
<!-- 21&#45;&gt;22 -->
<g id="edge46" class="edge"><title>21&#45;&gt;22</title>
<path fill="none" stroke="black" d="M499.466,-92.5365C474.494,-77.898 431.097,-52.458 402.465,-35.6739"/>
<polygon fill="black" stroke="black" points="404.127,-32.5911 393.73,-30.5533 400.587,-38.63 404.127,-32.5911"/>
<text text-anchor="middle" x="488.021" y="-57.8" font-family="Times New Roman,serif" font-size="14.00">(c:316,f:91)</text>
</g>
<!-- 11 -->
<g id="node19" class="node"><title>11</title>
<ellipse fill="none" stroke="black" cx="223.021" cy="-975" rx="27" ry="18"/>
<text text-anchor="middle" x="223.021" y="-971.3" font-family="Times New Roman,serif" font-size="14.00">11</text>
</g>
<!-- 10&#45;&gt;11 -->
<g id="edge28" class="edge"><title>10&#45;&gt;11</title>
<path fill="none" stroke="black" d="M221.328,-1043.87C221.509,-1034.22 221.756,-1021.94 222.021,-1011 222.083,-1008.45 222.152,-1005.79 222.223,-1003.13"/>
<polygon fill="black" stroke="black" points="225.723,-1003.18 222.504,-993.089 218.726,-1002.99 225.723,-1003.18"/>
<text text-anchor="middle" x="251.021" y="-1014.8" font-family="Times New Roman,serif" font-size="14.00">(c:199,f:0)</text>
</g>
<!-- 23&#45;&gt;22 -->
<g id="edge47" class="edge"><title>23&#45;&gt;22</title>
<path fill="none" stroke="black" d="M282.823,-350.326C296.372,-334.332 315.021,-307.35 315.021,-280 315.021,-280 315.021,-280 315.021,-104 315.021,-78.5283 333.122,-55.196 349.272,-39.4477"/>
<polygon fill="black" stroke="black" points="351.985,-41.7064 356.956,-32.3498 347.236,-36.5645 351.985,-41.7064"/>
<text text-anchor="middle" x="350.521" y="-188.3" font-family="Times New Roman,serif" font-size="14.00">(c:333,f:311)</text>
</g>
<!-- 13&#45;&gt;14 -->
<g id="edge33" class="edge"><title>13&#45;&gt;14</title>
<path fill="none" stroke="black" d="M153.149,-787.98C172.021,-776.624 202.029,-759.898 230.021,-750 268.069,-736.547 280.424,-743.784 319.021,-732 322.19,-731.033 325.452,-729.91 328.685,-728.713"/>
<polygon fill="black" stroke="black" points="330.157,-731.895 338.178,-724.974 327.591,-725.382 330.157,-731.895"/>
<text text-anchor="middle" x="259.021" y="-753.8" font-family="Times New Roman,serif" font-size="14.00">(c:192,f:0)</text>
</g>
<!-- 13&#45;&gt;22 -->
<g id="edge34" class="edge"><title>13&#45;&gt;22</title>
<path fill="none" stroke="black" d="M131.341,-782.725C122.529,-724.391 95.0213,-529.278 95.0213,-367 95.0213,-367 95.0213,-367 95.0213,-104 95.0213,-53.9465 261.417,-30.5085 337.204,-22.4293"/>
<polygon fill="black" stroke="black" points="337.682,-25.8987 347.27,-21.3901 336.963,-18.9357 337.682,-25.8987"/>
<text text-anchor="middle" x="125.021" y="-405.8" font-family="Times New Roman,serif" font-size="14.00">(c:300,f:0)</text>
</g>
<!-- 11&#45;&gt;17 -->
<g id="edge30" class="edge"><title>11&#45;&gt;17</title>
<path fill="none" stroke="black" d="M236.488,-959.181C241.315,-953.248 246.442,-946.134 250.021,-939 260.37,-918.374 264.021,-912.077 264.021,-889 264.021,-889 264.021,-889 264.021,-756.5 264.021,-654.155 283.478,-533.546 292.954,-480.872"/>
<polygon fill="black" stroke="black" points="296.407,-481.448 294.761,-470.981 289.521,-480.19 296.407,-481.448"/>
<text text-anchor="middle" x="291.521" y="-710.3" font-family="Times New Roman,serif" font-size="14.00">(c:80,f:0)</text>
</g>
<!-- 12 -->
<g id="node20" class="node"><title>12</title>
<ellipse fill="none" stroke="black" cx="198.021" cy="-888" rx="27" ry="18"/>
<text text-anchor="middle" x="198.021" y="-884.3" font-family="Times New Roman,serif" font-size="14.00">12</text>
</g>
<!-- 11&#45;&gt;12 -->
<g id="edge29" class="edge"><title>11&#45;&gt;12</title>
<path fill="none" stroke="black" d="M209.908,-959.01C205.594,-953.165 201.318,-946.156 199.021,-939 196.713,-931.808 195.858,-923.729 195.736,-916.198"/>
<polygon fill="black" stroke="black" points="199.238,-916.143 195.974,-906.064 192.24,-915.978 199.238,-916.143"/>
<text text-anchor="middle" x="224.521" y="-927.8" font-family="Times New Roman,serif" font-size="14.00">(c:86,f:0)</text>
</g>
<!-- 12&#45;&gt;23 -->
<g id="edge32" class="edge"><title>12&#45;&gt;23</title>
<path fill="none" stroke="black" d="M206.051,-870.657C208.473,-864.903 210.808,-858.298 212.021,-852 234.561,-734.962 193.021,-703.688 193.021,-584.5 193.021,-584.5 193.021,-584.5 193.021,-452 193.021,-422.597 218.607,-398.699 240.087,-383.816"/>
<polygon fill="black" stroke="black" points="242.219,-386.603 248.655,-378.187 238.375,-380.753 242.219,-386.603"/>
<text text-anchor="middle" x="226.021" y="-623.3" font-family="Times New Roman,serif" font-size="14.00">(c:307,f:0)</text>
</g>
<!-- 12&#45;&gt;13 -->
<g id="edge31" class="edge"><title>12&#45;&gt;13</title>
<path fill="none" stroke="black" d="M179.001,-875.197C170.448,-869.122 160.78,-861.084 154.021,-852 148.842,-845.038 144.789,-836.552 141.727,-828.563"/>
<polygon fill="black" stroke="black" points="144.946,-827.164 138.368,-818.86 138.332,-829.454 144.946,-827.164"/>
<text text-anchor="middle" x="183.021" y="-840.8" font-family="Times New Roman,serif" font-size="14.00">(c:196,f:0)</text>
</g>
<!-- 19&#45;&gt;20 -->
<g id="edge44" class="edge"><title>19&#45;&gt;20</title>
<path fill="none" stroke="black" d="M563.021,-260.799C563.021,-249.163 563.021,-233.548 563.021,-220.237"/>
<polygon fill="black" stroke="black" points="566.521,-220.175 563.021,-210.175 559.521,-220.175 566.521,-220.175"/>
<text text-anchor="middle" x="592.021" y="-231.8" font-family="Times New Roman,serif" font-size="14.00">(c:234,f:0)</text>
</g>
<!-- 20&#45;&gt;21 -->
<g id="edge45" class="edge"><title>20&#45;&gt;21</title>
<path fill="none" stroke="black" d="M554.538,-174.611C548.207,-162.382 539.439,-145.443 532.199,-131.456"/>
<polygon fill="black" stroke="black" points="535.184,-129.61 527.479,-122.339 528.968,-132.828 535.184,-129.61"/>
<text text-anchor="middle" x="576.021" y="-144.8" font-family="Times New Roman,serif" font-size="14.00">(c:214,f:91)</text>
</g>
<!-- 18&#45;&gt;19 -->
<g id="edge43" class="edge"><title>18&#45;&gt;19</title>
<path fill="none" stroke="black" d="M506.919,-348.823C502.455,-338.585 499.166,-325.372 505.021,-315 510.643,-305.042 520.362,-297.599 530.254,-292.197"/>
<polygon fill="black" stroke="black" points="531.821,-295.327 539.275,-287.797 528.753,-289.035 531.821,-295.327"/>
<text text-anchor="middle" x="534.021" y="-318.8" font-family="Times New Roman,serif" font-size="14.00">(c:157,f:0)</text>
</g>
</g>
</svg>
