<?xml version="1.0" encoding="UTF-8" standalone="no"?>
<!DOCTYPE svg PUBLIC "-//W3C//DTD SVG 1.1//EN"
 "http://www.w3.org/Graphics/SVG/1.1/DTD/svg11.dtd">
<!-- Generated by graphviz version 2.38.0 (20140413.2041)
 -->
<!-- Title: gerichtet Pages: 1 -->
<svg width="243pt" height="392pt"
 viewBox="0.00 0.00 243.00 392.00" xmlns="http://www.w3.org/2000/svg" xmlns:xlink="http://www.w3.org/1999/xlink">
<g id="graph0" class="graph" transform="scale(1 1) rotate(0) translate(4 388)">
<title>gerichtet</title>
<polygon fill="white" stroke="none" points="-4,4 -4,-388 239,-388 239,4 -4,4"/>
<!-- 11 -->
<g id="node1" class="node"><title>11</title>
<ellipse fill="none" stroke="black" cx="153" cy="-366" rx="27" ry="18"/>
<text text-anchor="middle" x="153" y="-362.3" font-family="Times New Roman,serif" font-size="14.00">11</text>
</g>
<!-- 22 -->
<g id="node2" class="node"><title>22</title>
<ellipse fill="none" stroke="black" cx="42" cy="-279" rx="27" ry="18"/>
<text text-anchor="middle" x="42" y="-275.3" font-family="Times New Roman,serif" font-size="14.00">22</text>
</g>
<!-- 11&#45;&gt;22 -->
<g id="edge1" class="edge"><title>11&#45;&gt;22</title>
<path fill="none" stroke="black" d="M130.824,-355.339C117.714,-349.088 101.158,-340.222 88,-330 77.914,-322.164 68.1305,-312.012 60.198,-302.904"/>
<polygon fill="black" stroke="black" points="62.8666,-300.64 53.7426,-295.254 57.5169,-305.154 62.8666,-300.64"/>
<text text-anchor="middle" x="113.5" y="-318.8" font-family="Times New Roman,serif" font-size="14.00">(c:10,f:1)</text>
</g>
<!-- 33 -->
<g id="node3" class="node"><title>33</title>
<ellipse fill="none" stroke="black" cx="94" cy="-192" rx="27" ry="18"/>
<text text-anchor="middle" x="94" y="-188.3" font-family="Times New Roman,serif" font-size="14.00">33</text>
</g>
<!-- 11&#45;&gt;33 -->
<g id="edge2" class="edge"><title>11&#45;&gt;33</title>
<path fill="none" stroke="black" d="M152.775,-347.56C151.769,-320.514 147.134,-267.463 127,-228 124.438,-222.979 120.933,-218.172 117.16,-213.816"/>
<polygon fill="black" stroke="black" points="119.649,-211.354 110.226,-206.512 114.573,-216.174 119.649,-211.354"/>
<text text-anchor="middle" x="169" y="-275.3" font-family="Times New Roman,serif" font-size="14.00">(c:5,f:2)</text>
</g>
<!-- 22&#45;&gt;33 -->
<g id="edge3" class="edge"><title>22&#45;&gt;33</title>
<path fill="none" stroke="black" d="M31.4894,-262.265C26.0262,-251.96 21.6801,-238.505 28,-228 35.0167,-216.337 47.372,-208.354 59.5097,-202.995"/>
<polygon fill="black" stroke="black" points="61.0584,-206.147 69.0911,-199.238 58.5035,-199.63 61.0584,-206.147"/>
<text text-anchor="middle" x="50" y="-231.8" font-family="Times New Roman,serif" font-size="14.00">(c:2,f:0)</text>
</g>
<!-- 44 -->
<g id="node4" class="node"><title>44</title>
<ellipse fill="none" stroke="black" cx="27" cy="-18" rx="27" ry="18"/>
<text text-anchor="middle" x="27" y="-14.3" font-family="Times New Roman,serif" font-size="14.00">44</text>
</g>
<!-- 22&#45;&gt;44 -->
<g id="edge4" class="edge"><title>22&#45;&gt;44</title>
<path fill="none" stroke="black" d="M30.2387,-262.451C26.5336,-256.657 22.9112,-249.824 21,-243 1.70344,-174.103 13.2294,-88.5888 21.2506,-45.8922"/>
<polygon fill="black" stroke="black" points="24.7014,-46.4828 23.1935,-35.9958 17.8325,-45.1342 24.7014,-46.4828"/>
<text text-anchor="middle" x="33" y="-144.8" font-family="Times New Roman,serif" font-size="14.00">(c:1,f:1)</text>
</g>
<!-- 33&#45;&gt;22 -->
<g id="edge5" class="edge"><title>33&#45;&gt;22</title>
<path fill="none" stroke="black" d="M88.029,-209.83C84.1359,-219.834 78.5652,-232.565 72,-243 69.3178,-247.263 66.1411,-251.546 62.8753,-255.581"/>
<polygon fill="black" stroke="black" points="60.0067,-253.55 56.1763,-263.428 65.3308,-258.095 60.0067,-253.55"/>
<text text-anchor="middle" x="101" y="-231.8" font-family="Times New Roman,serif" font-size="14.00">(c:3,f:0)</text>
</g>
<!-- 55 -->
<g id="node5" class="node"><title>55</title>
<ellipse fill="none" stroke="black" cx="94" cy="-105" rx="27" ry="18"/>
<text text-anchor="middle" x="94" y="-101.3" font-family="Times New Roman,serif" font-size="14.00">55</text>
</g>
<!-- 33&#45;&gt;55 -->
<g id="edge6" class="edge"><title>33&#45;&gt;55</title>
<path fill="none" stroke="black" d="M94,-173.799C94,-162.163 94,-146.548 94,-133.237"/>
<polygon fill="black" stroke="black" points="97.5001,-133.175 94,-123.175 90.5001,-133.175 97.5001,-133.175"/>
<text text-anchor="middle" x="116" y="-144.8" font-family="Times New Roman,serif" font-size="14.00">(c:2,f:2)</text>
</g>
<!-- 44&#45;&gt;55 -->
<g id="edge7" class="edge"><title>44&#45;&gt;55</title>
<path fill="none" stroke="black" d="M23.2492,-35.9582C21.9159,-46.2507 21.9941,-59.2391 28,-69 35.133,-80.5925 47.5092,-88.5623 59.6311,-93.9315"/>
<polygon fill="black" stroke="black" points="58.6062,-97.2895 69.1931,-97.6995 61.1726,-90.7769 58.6062,-97.2895"/>
<text text-anchor="middle" x="50" y="-57.8" font-family="Times New Roman,serif" font-size="14.00">(c:4,f:0)</text>
</g>
<!-- 55&#45;&gt;11 -->
<g id="edge8" class="edge"><title>55&#45;&gt;11</title>
<path fill="none" stroke="black" d="M114.15,-117.286C123.569,-123.348 134.363,-131.524 142,-141 178.585,-186.396 182.963,-203.953 195,-261 198.303,-276.655 199.37,-281.608 195,-297 190.381,-313.268 180.641,-329.459 171.702,-341.958"/>
<polygon fill="black" stroke="black" points="168.893,-339.871 165.715,-349.978 174.502,-344.058 168.893,-339.871"/>
<text text-anchor="middle" x="213" y="-231.8" font-family="Times New Roman,serif" font-size="14.00">(c:7,f:0)</text>
</g>
<!-- 55&#45;&gt;44 -->
<g id="edge9" class="edge"><title>55&#45;&gt;44</title>
<path fill="none" stroke="black" d="M88.9326,-87.1208C85.3049,-76.858 79.6963,-63.8731 72,-54 67.1473,-47.7748 60.951,-42.0316 54.7191,-37.0741"/>
<polygon fill="black" stroke="black" points="56.4348,-33.9884 46.3218,-30.8296 52.2577,-39.6055 56.4348,-33.9884"/>
<text text-anchor="middle" x="102" y="-57.8" font-family="Times New Roman,serif" font-size="14.00">(c:6,f:2)</text>
</g>
</g>
</svg>
