<?xml version="1.0" encoding="UTF-8" standalone="no"?>
<!DOCTYPE svg PUBLIC "-//W3C//DTD SVG 1.1//EN"
 "http://www.w3.org/Graphics/SVG/1.1/DTD/svg11.dtd">
<!-- Generated by graphviz version 2.38.0 (20140413.2041)
 -->
<!-- Title: gerichtet Pages: 1 -->
<svg width="666pt" height="1478pt"
 viewBox="0.00 0.00 666.50 1478.00" xmlns="http://www.w3.org/2000/svg" xmlns:xlink="http://www.w3.org/1999/xlink">
<g id="graph0" class="graph" transform="scale(1 1) rotate(0) translate(4 1474)">
<title>gerichtet</title>
<polygon fill="white" stroke="none" points="-4,4 -4,-1474 662.497,-1474 662.497,4 -4,4"/>
<!-- 1099 -->
<g id="node1" class="node"><title>1099</title>
<ellipse fill="none" stroke="black" cx="441.497" cy="-648" rx="28.6953" ry="18"/>
<text text-anchor="middle" x="441.497" y="-644.3" font-family="Times New Roman,serif" font-size="14.00">1099</text>
</g>
<!-- 90449 -->
<g id="node2" class="node"><title>90449</title>
<ellipse fill="none" stroke="black" cx="440.497" cy="-507" rx="32.4942" ry="18"/>
<text text-anchor="middle" x="440.497" y="-503.3" font-family="Times New Roman,serif" font-size="14.00">90449</text>
</g>
<!-- 1099&#45;&gt;90449 -->
<g id="edge1" class="edge"><title>1099&#45;&gt;90449</title>
<path fill="none" stroke="black" d="M441.374,-629.956C441.205,-606.404 440.897,-563.639 440.695,-535.526"/>
<polygon fill="black" stroke="black" points="444.193,-535.158 440.621,-525.184 437.193,-535.208 444.193,-535.158"/>
<text text-anchor="middle" x="473.497" y="-600.8" font-family="Times New Roman,serif" font-size="14.00">(c:325,f:97)</text>
</g>
<!-- 76199 -->
<g id="node20" class="node"><title>76199</title>
<ellipse fill="none" stroke="black" cx="359.497" cy="-279" rx="32.4942" ry="18"/>
<text text-anchor="middle" x="359.497" y="-275.3" font-family="Times New Roman,serif" font-size="14.00">76199</text>
</g>
<!-- 90449&#45;&gt;76199 -->
<g id="edge43" class="edge"><title>90449&#45;&gt;76199</title>
<path fill="none" stroke="black" d="M440.127,-488.607C438.911,-458.63 433.792,-395.848 412.497,-348 405.059,-331.286 392.641,-315.031 381.695,-302.607"/>
<polygon fill="black" stroke="black" points="384.107,-300.058 374.782,-295.029 378.936,-304.776 384.107,-300.058"/>
<text text-anchor="middle" x="461.497" y="-405.8" font-family="Times New Roman,serif" font-size="14.00">(c:253,f:0)</text>
</g>
<!-- 80999 -->
<g id="node23" class="node"><title>80999</title>
<ellipse fill="none" stroke="black" cx="474.497" cy="-18" rx="32.4942" ry="18"/>
<text text-anchor="middle" x="474.497" y="-14.3" font-family="Times New Roman,serif" font-size="14.00">80999</text>
</g>
<!-- 90449&#45;&gt;80999 -->
<g id="edge44" class="edge"><title>90449&#45;&gt;80999</title>
<path fill="none" stroke="black" d="M460.445,-492.333C482.059,-475.732 513.497,-445.56 513.497,-410.5 513.497,-410.5 513.497,-410.5 513.497,-104 513.497,-80.9231 509.465,-74.8132 499.497,-54 497.733,-50.3169 495.582,-46.6102 493.29,-43.058"/>
<polygon fill="black" stroke="black" points="496.024,-40.8589 487.44,-34.6479 490.277,-44.856 496.024,-40.8589"/>
<text text-anchor="middle" x="548.997" y="-275.3" font-family="Times New Roman,serif" font-size="14.00">(c:162,f:162)</text>
</g>
<!-- 4299 -->
<g id="node3" class="node"><title>4299</title>
<ellipse fill="none" stroke="black" cx="374.497" cy="-963" rx="28.6953" ry="18"/>
<text text-anchor="middle" x="374.497" y="-959.3" font-family="Times New Roman,serif" font-size="14.00">4299</text>
</g>
<!-- 4299&#45;&gt;1099 -->
<g id="edge2" class="edge"><title>4299&#45;&gt;1099</title>
<path fill="none" stroke="black" d="M378.195,-944.726C389.268,-892.995 422.226,-739.026 435.68,-676.176"/>
<polygon fill="black" stroke="black" points="439.14,-676.732 437.811,-666.221 432.295,-675.267 439.14,-676.732"/>
<text text-anchor="middle" x="437.497" y="-818.3" font-family="Times New Roman,serif" font-size="14.00">(c:116,f:0)</text>
</g>
<!-- 60599 -->
<g id="node4" class="node"><title>60599</title>
<ellipse fill="none" stroke="black" cx="262.497" cy="-648" rx="32.4942" ry="18"/>
<text text-anchor="middle" x="262.497" y="-644.3" font-family="Times New Roman,serif" font-size="14.00">60599</text>
</g>
<!-- 4299&#45;&gt;60599 -->
<g id="edge3" class="edge"><title>4299&#45;&gt;60599</title>
<path fill="none" stroke="black" d="M368.737,-945.243C360.943,-921.926 347.136,-878.246 339.497,-840 325.828,-771.558 359.461,-742.565 321.497,-684 315.812,-675.23 307.093,-668.361 298.087,-663.118"/>
<polygon fill="black" stroke="black" points="299.57,-659.944 289.087,-658.409 296.324,-666.146 299.57,-659.944"/>
<text text-anchor="middle" x="368.497" y="-818.3" font-family="Times New Roman,serif" font-size="14.00">(c:387,f:0)</text>
</g>
<!-- 60599&#45;&gt;90449 -->
<g id="edge35" class="edge"><title>60599&#45;&gt;90449</title>
<path fill="none" stroke="black" d="M284.258,-634.423C294.833,-628.056 307.584,-619.995 318.497,-612 354.403,-585.696 393.058,-551.671 417.015,-529.836"/>
<polygon fill="black" stroke="black" points="419.546,-532.265 424.552,-522.927 414.815,-527.105 419.546,-532.265"/>
<text text-anchor="middle" x="368.497" y="-600.8" font-family="Times New Roman,serif" font-size="14.00">(c:235,f:65)</text>
</g>
<!-- 55129 -->
<g id="node16" class="node"><title>55129</title>
<ellipse fill="none" stroke="black" cx="263.497" cy="-561" rx="32.4942" ry="18"/>
<text text-anchor="middle" x="263.497" y="-557.3" font-family="Times New Roman,serif" font-size="14.00">55129</text>
</g>
<!-- 60599&#45;&gt;55129 -->
<g id="edge33" class="edge"><title>60599&#45;&gt;55129</title>
<path fill="none" stroke="black" d="M262.699,-629.799C262.836,-618.163 263.02,-602.548 263.177,-589.237"/>
<polygon fill="black" stroke="black" points="266.677,-589.216 263.295,-579.175 259.678,-589.134 266.677,-589.216"/>
<text text-anchor="middle" x="288.997" y="-600.8" font-family="Times New Roman,serif" font-size="14.00">(c:43,f:0)</text>
</g>
<!-- 68199 -->
<g id="node19" class="node"><title>68199</title>
<ellipse fill="none" stroke="black" cx="274.497" cy="-366" rx="32.4942" ry="18"/>
<text text-anchor="middle" x="274.497" y="-362.3" font-family="Times New Roman,serif" font-size="14.00">68199</text>
</g>
<!-- 60599&#45;&gt;68199 -->
<g id="edge34" class="edge"><title>60599&#45;&gt;68199</title>
<path fill="none" stroke="black" d="M230.85,-643.487C206.441,-639.395 172.991,-630.631 149.497,-612 103.128,-575.228 71.047,-541.428 98.4971,-489 127.855,-432.928 195.998,-397.48 238.359,-380.023"/>
<polygon fill="black" stroke="black" points="239.77,-383.229 247.759,-376.27 237.174,-376.728 239.77,-383.229"/>
<text text-anchor="middle" x="127.497" y="-503.3" font-family="Times New Roman,serif" font-size="14.00">(c:106,f:0)</text>
</g>
<!-- 12099 -->
<g id="node5" class="node"><title>12099</title>
<ellipse fill="none" stroke="black" cx="388.497" cy="-1191" rx="32.4942" ry="18"/>
<text text-anchor="middle" x="388.497" y="-1187.3" font-family="Times New Roman,serif" font-size="14.00">12099</text>
</g>
<!-- 12099&#45;&gt;1099 -->
<g id="edge4" class="edge"><title>12099&#45;&gt;1099</title>
<path fill="none" stroke="black" d="M421.138,-1190.64C479.225,-1189.9 594.497,-1179.09 594.497,-1105 594.497,-1105 594.497,-1105 594.497,-734 594.497,-681.566 524.981,-661.199 479.665,-653.492"/>
<polygon fill="black" stroke="black" points="479.98,-649.999 469.56,-651.913 478.899,-656.915 479.98,-649.999"/>
<text text-anchor="middle" x="626.497" y="-905.3" font-family="Times New Roman,serif" font-size="14.00">(c:214,f:97)</text>
</g>
<!-- 12099&#45;&gt;4299 -->
<g id="edge5" class="edge"><title>12099&#45;&gt;4299</title>
<path fill="none" stroke="black" d="M387.422,-1172.64C384.998,-1133.52 379.094,-1038.21 376.18,-991.172"/>
<polygon fill="black" stroke="black" points="379.669,-990.873 375.557,-981.108 372.682,-991.306 379.669,-990.873"/>
<text text-anchor="middle" x="413.497" y="-1100.3" font-family="Times New Roman,serif" font-size="14.00">(c:188,f:0)</text>
</g>
<!-- 30159 -->
<g id="node6" class="node"><title>30159</title>
<ellipse fill="none" stroke="black" cx="274.497" cy="-1104" rx="32.4942" ry="18"/>
<text text-anchor="middle" x="274.497" y="-1100.3" font-family="Times New Roman,serif" font-size="14.00">30159</text>
</g>
<!-- 12099&#45;&gt;30159 -->
<g id="edge6" class="edge"><title>12099&#45;&gt;30159</title>
<path fill="none" stroke="black" d="M361.994,-1180.28C347.685,-1174.28 330.197,-1165.68 316.497,-1155 307.283,-1147.82 298.681,-1138.31 291.691,-1129.52"/>
<polygon fill="black" stroke="black" points="294.359,-1127.25 285.516,-1121.41 288.789,-1131.49 294.359,-1127.25"/>
<text text-anchor="middle" x="345.497" y="-1143.8" font-family="Times New Roman,serif" font-size="14.00">(c:258,f:0)</text>
</g>
<!-- 34119 -->
<g id="node7" class="node"><title>34119</title>
<ellipse fill="none" stroke="black" cx="275.497" cy="-735" rx="32.4942" ry="18"/>
<text text-anchor="middle" x="275.497" y="-731.3" font-family="Times New Roman,serif" font-size="14.00">34119</text>
</g>
<!-- 12099&#45;&gt;34119 -->
<g id="edge7" class="edge"><title>12099&#45;&gt;34119</title>
<path fill="none" stroke="black" d="M418.594,-1183.8C456.15,-1174.1 515.497,-1151.43 515.497,-1105 515.497,-1105 515.497,-1105 515.497,-864.5 515.497,-775.938 386.915,-748.178 317.983,-739.659"/>
<polygon fill="black" stroke="black" points="318.199,-736.161 307.865,-738.493 317.398,-743.115 318.199,-736.161"/>
<text text-anchor="middle" x="547.497" y="-959.3" font-family="Times New Roman,serif" font-size="14.00">(c:367,f:81)</text>
</g>
<!-- 30159&#45;&gt;4299 -->
<g id="edge17" class="edge"><title>30159&#45;&gt;4299</title>
<path fill="none" stroke="black" d="M285.968,-1087.05C303.45,-1062.76 336.874,-1016.3 357.278,-987.935"/>
<polygon fill="black" stroke="black" points="360.161,-989.921 363.16,-979.759 354.478,-985.833 360.161,-989.921"/>
<text text-anchor="middle" x="339.497" y="-1056.8" font-family="Times New Roman,serif" font-size="14.00">(c:261,f:0)</text>
</g>
<!-- 30159&#45;&gt;34119 -->
<g id="edge18" class="edge"><title>30159&#45;&gt;34119</title>
<path fill="none" stroke="black" d="M274.819,-1085.74C275.111,-1068.57 275.497,-1041.47 275.497,-1018 275.497,-1018 275.497,-1018 275.497,-821 275.497,-801.753 275.497,-780.054 275.497,-763.397"/>
<polygon fill="black" stroke="black" points="278.997,-763.256 275.497,-753.256 271.997,-763.256 278.997,-763.256"/>
<text text-anchor="middle" x="304.497" y="-905.3" font-family="Times New Roman,serif" font-size="14.00">(c:238,f:0)</text>
</g>
<!-- 49090 -->
<g id="node13" class="node"><title>49090</title>
<ellipse fill="none" stroke="black" cx="179.497" cy="-1017" rx="32.4942" ry="18"/>
<text text-anchor="middle" x="179.497" y="-1013.3" font-family="Times New Roman,serif" font-size="14.00">49090</text>
</g>
<!-- 30159&#45;&gt;49090 -->
<g id="edge19" class="edge"><title>30159&#45;&gt;49090</title>
<path fill="none" stroke="black" d="M247.692,-1093.38C228.458,-1086.02 204.714,-1075.83 197.497,-1068 191.539,-1061.54 187.523,-1052.96 184.828,-1044.74"/>
<polygon fill="black" stroke="black" points="188.189,-1043.76 182.155,-1035.05 181.441,-1045.62 188.189,-1043.76"/>
<text text-anchor="middle" x="229.497" y="-1056.8" font-family="Times New Roman,serif" font-size="14.00">(c:137,f:65)</text>
</g>
<!-- 34119&#45;&gt;1099 -->
<g id="edge21" class="edge"><title>34119&#45;&gt;1099</title>
<path fill="none" stroke="black" d="M297.789,-721.849C316.76,-711.579 344.785,-696.573 369.497,-684 382.725,-677.27 397.444,-670.065 410.11,-663.952"/>
<polygon fill="black" stroke="black" points="411.84,-667.003 419.336,-659.516 408.807,-660.695 411.84,-667.003"/>
<text text-anchor="middle" x="398.497" y="-687.8" font-family="Times New Roman,serif" font-size="14.00">(c:402,f:0)</text>
</g>
<!-- 34119&#45;&gt;60599 -->
<g id="edge23" class="edge"><title>34119&#45;&gt;60599</title>
<path fill="none" stroke="black" d="M268.553,-717.19C266.528,-711.512 264.572,-705.072 263.497,-699 262.216,-691.762 261.673,-683.844 261.52,-676.486"/>
<polygon fill="black" stroke="black" points="265.02,-676.257 261.534,-666.252 258.02,-676.247 265.02,-676.257"/>
<text text-anchor="middle" x="292.497" y="-687.8" font-family="Times New Roman,serif" font-size="14.00">(c:190,f:0)</text>
</g>
<!-- 50999 -->
<g id="node15" class="node"><title>50999</title>
<ellipse fill="none" stroke="black" cx="65.4971" cy="-648" rx="32.4942" ry="18"/>
<text text-anchor="middle" x="65.4971" y="-644.3" font-family="Times New Roman,serif" font-size="14.00">50999</text>
</g>
<!-- 34119&#45;&gt;50999 -->
<g id="edge22" class="edge"><title>34119&#45;&gt;50999</title>
<path fill="none" stroke="black" d="M249.747,-723.577C212.253,-708.401 142.528,-680.179 100.434,-663.141"/>
<polygon fill="black" stroke="black" points="101.712,-659.883 91.1291,-659.375 99.0853,-666.371 101.712,-659.883"/>
<text text-anchor="middle" x="215.497" y="-687.8" font-family="Times New Roman,serif" font-size="14.00">(c:249,f:81)</text>
</g>
<!-- 18119 -->
<g id="node8" class="node"><title>18119</title>
<ellipse fill="none" stroke="black" cx="345.497" cy="-1452" rx="32.4942" ry="18"/>
<text text-anchor="middle" x="345.497" y="-1448.3" font-family="Times New Roman,serif" font-size="14.00">18119</text>
</g>
<!-- 18119&#45;&gt;12099 -->
<g id="edge8" class="edge"><title>18119&#45;&gt;12099</title>
<path fill="none" stroke="black" d="M360.311,-1435.84C365.046,-1430.08 369.764,-1423.17 372.497,-1416 398.102,-1348.83 395.124,-1262.22 391.454,-1219.02"/>
<polygon fill="black" stroke="black" points="394.934,-1218.64 390.522,-1209.01 387.964,-1219.29 394.934,-1218.64"/>
<text text-anchor="middle" x="428.997" y="-1317.8" font-family="Times New Roman,serif" font-size="14.00">(c:222,f:178)</text>
</g>
<!-- 23569 -->
<g id="node9" class="node"><title>23569</title>
<ellipse fill="none" stroke="black" cx="302.497" cy="-1365" rx="32.4942" ry="18"/>
<text text-anchor="middle" x="302.497" y="-1361.3" font-family="Times New Roman,serif" font-size="14.00">23569</text>
</g>
<!-- 18119&#45;&gt;23569 -->
<g id="edge9" class="edge"><title>18119&#45;&gt;23569</title>
<path fill="none" stroke="black" d="M326.228,-1437.32C319.513,-1431.53 312.631,-1424.21 308.497,-1416 304.984,-1409.02 303.193,-1400.82 302.349,-1393.1"/>
<polygon fill="black" stroke="black" points="305.837,-1392.8 301.713,-1383.04 298.851,-1393.24 305.837,-1392.8"/>
<text text-anchor="middle" x="340.497" y="-1404.8" font-family="Times New Roman,serif" font-size="14.00">(c:125,f:65)</text>
</g>
<!-- 20099 -->
<g id="node10" class="node"><title>20099</title>
<ellipse fill="none" stroke="black" cx="282.497" cy="-1278" rx="32.4942" ry="18"/>
<text text-anchor="middle" x="282.497" y="-1274.3" font-family="Times New Roman,serif" font-size="14.00">20099</text>
</g>
<!-- 23569&#45;&gt;20099 -->
<g id="edge13" class="edge"><title>23569&#45;&gt;20099</title>
<path fill="none" stroke="black" d="M298.45,-1346.8C295.694,-1335.09 291.989,-1319.34 288.844,-1305.97"/>
<polygon fill="black" stroke="black" points="292.168,-1304.82 286.47,-1295.89 285.354,-1306.42 292.168,-1304.82"/>
<text text-anchor="middle" x="323.497" y="-1317.8" font-family="Times New Roman,serif" font-size="14.00">(c:65,f:65)</text>
</g>
<!-- 20099&#45;&gt;12099 -->
<g id="edge10" class="edge"><title>20099&#45;&gt;12099</title>
<path fill="none" stroke="black" d="M290.063,-1260.44C295.601,-1249.79 303.975,-1236.26 314.497,-1227 320.919,-1221.35 337.663,-1213.27 353.602,-1206.3"/>
<polygon fill="black" stroke="black" points="354.999,-1209.51 362.809,-1202.35 352.24,-1203.08 354.999,-1209.51"/>
<text text-anchor="middle" x="343.497" y="-1230.8" font-family="Times New Roman,serif" font-size="14.00">(c:289,f:0)</text>
</g>
<!-- 20099&#45;&gt;30159 -->
<g id="edge12" class="edge"><title>20099&#45;&gt;30159</title>
<path fill="none" stroke="black" d="M281.701,-1259.88C280.311,-1230 277.433,-1168.11 275.766,-1132.27"/>
<polygon fill="black" stroke="black" points="279.251,-1131.88 275.29,-1122.05 272.259,-1132.2 279.251,-1131.88"/>
<text text-anchor="middle" x="311.497" y="-1187.3" font-family="Times New Roman,serif" font-size="14.00">(c:150,f:65)</text>
</g>
<!-- 28199 -->
<g id="node11" class="node"><title>28199</title>
<ellipse fill="none" stroke="black" cx="173.497" cy="-1191" rx="32.4942" ry="18"/>
<text text-anchor="middle" x="173.497" y="-1187.3" font-family="Times New Roman,serif" font-size="14.00">28199</text>
</g>
<!-- 20099&#45;&gt;28199 -->
<g id="edge11" class="edge"><title>20099&#45;&gt;28199</title>
<path fill="none" stroke="black" d="M253.737,-1269.32C237.285,-1263.81 217.085,-1255.02 202.497,-1242 195.021,-1235.33 188.964,-1226.25 184.357,-1217.66"/>
<polygon fill="black" stroke="black" points="187.487,-1216.09 179.929,-1208.67 181.207,-1219.19 187.487,-1216.09"/>
<text text-anchor="middle" x="231.497" y="-1230.8" font-family="Times New Roman,serif" font-size="14.00">(c:123,f:0)</text>
</g>
<!-- 28199&#45;&gt;30159 -->
<g id="edge14" class="edge"><title>28199&#45;&gt;30159</title>
<path fill="none" stroke="black" d="M180.268,-1172.99C185.164,-1162.42 192.648,-1149.15 202.497,-1140 212.538,-1130.67 225.53,-1123.33 237.708,-1117.84"/>
<polygon fill="black" stroke="black" points="239.373,-1120.93 247.229,-1113.82 236.654,-1114.48 239.373,-1120.93"/>
<text text-anchor="middle" x="231.497" y="-1143.8" font-family="Times New Roman,serif" font-size="14.00">(c:123,f:0)</text>
</g>
<!-- 44149 -->
<g id="node12" class="node"><title>44149</title>
<ellipse fill="none" stroke="black" cx="127.497" cy="-822" rx="32.4942" ry="18"/>
<text text-anchor="middle" x="127.497" y="-818.3" font-family="Times New Roman,serif" font-size="14.00">44149</text>
</g>
<!-- 28199&#45;&gt;44149 -->
<g id="edge15" class="edge"><title>28199&#45;&gt;44149</title>
<path fill="none" stroke="black" d="M143.637,-1183.73C106.377,-1173.94 47.4971,-1151.18 47.4971,-1105 47.4971,-1105 47.4971,-1105 47.4971,-908 47.4971,-878.481 73.398,-855.035 95.7246,-840.308"/>
<polygon fill="black" stroke="black" points="97.7341,-843.179 104.358,-834.91 94.0232,-837.244 97.7341,-843.179"/>
<text text-anchor="middle" x="76.4971" y="-1013.3" font-family="Times New Roman,serif" font-size="14.00">(c:237,f:0)</text>
</g>
<!-- 28199&#45;&gt;49090 -->
<g id="edge16" class="edge"><title>28199&#45;&gt;49090</title>
<path fill="none" stroke="black" d="M173.621,-1172.7C173.817,-1152.05 174.307,-1116.5 175.497,-1086 176.021,-1072.56 176.869,-1057.65 177.649,-1045.22"/>
<polygon fill="black" stroke="black" points="181.155,-1045.24 178.308,-1035.04 174.17,-1044.79 181.155,-1045.24"/>
<text text-anchor="middle" x="204.497" y="-1100.3" font-family="Times New Roman,serif" font-size="14.00">(c:124,f:0)</text>
</g>
<!-- 44149&#45;&gt;60599 -->
<g id="edge26" class="edge"><title>44149&#45;&gt;60599</title>
<path fill="none" stroke="black" d="M131.464,-804.071C137.225,-782.208 149.568,-743.79 170.497,-717 186.932,-695.962 211.471,-678.27 231.074,-666.21"/>
<polygon fill="black" stroke="black" points="232.89,-669.201 239.686,-661.073 229.305,-663.19 232.89,-669.201"/>
<text text-anchor="middle" x="202.497" y="-731.3" font-family="Times New Roman,serif" font-size="14.00">(c:223,f:65)</text>
</g>
<!-- 44149&#45;&gt;34119 -->
<g id="edge24" class="edge"><title>44149&#45;&gt;34119</title>
<path fill="none" stroke="black" d="M146.744,-807.338C161.853,-796.86 183.591,-782.323 203.497,-771 215.699,-764.059 229.48,-757.147 241.695,-751.322"/>
<polygon fill="black" stroke="black" points="243.534,-754.325 251.095,-746.903 240.556,-747.99 243.534,-754.325"/>
<text text-anchor="middle" x="232.497" y="-774.8" font-family="Times New Roman,serif" font-size="14.00">(c:168,f:0)</text>
</g>
<!-- 44149&#45;&gt;50999 -->
<g id="edge25" class="edge"><title>44149&#45;&gt;50999</title>
<path fill="none" stroke="black" d="M116.411,-804.934C107.665,-791.577 95.7655,-771.785 88.4971,-753 78.7356,-727.772 72.6199,-697.417 69.1708,-676.032"/>
<polygon fill="black" stroke="black" points="72.6131,-675.388 67.6463,-666.029 65.693,-676.442 72.6131,-675.388"/>
<text text-anchor="middle" x="113.997" y="-731.3" font-family="Times New Roman,serif" font-size="14.00">(c:97,f:0)</text>
</g>
<!-- 49090&#45;&gt;44149 -->
<g id="edge28" class="edge"><title>49090&#45;&gt;44149</title>
<path fill="none" stroke="black" d="M161.343,-1001.94C142.506,-986.094 114.195,-958.4 102.497,-927 92.7713,-900.894 103.03,-869.669 113.191,-848.29"/>
<polygon fill="black" stroke="black" points="116.391,-849.718 117.781,-839.214 110.145,-846.559 116.391,-849.718"/>
<text text-anchor="middle" x="134.497" y="-905.3" font-family="Times New Roman,serif" font-size="14.00">(c:123,f:65)</text>
</g>
<!-- 33699 -->
<g id="node14" class="node"><title>33699</title>
<ellipse fill="none" stroke="black" cx="207.497" cy="-909" rx="32.4942" ry="18"/>
<text text-anchor="middle" x="207.497" y="-905.3" font-family="Times New Roman,serif" font-size="14.00">33699</text>
</g>
<!-- 49090&#45;&gt;33699 -->
<g id="edge27" class="edge"><title>49090&#45;&gt;33699</title>
<path fill="none" stroke="black" d="M183.996,-998.969C188.425,-982.202 195.256,-956.341 200.414,-936.814"/>
<polygon fill="black" stroke="black" points="203.84,-937.551 203.01,-926.988 197.072,-935.763 203.84,-937.551"/>
<text text-anchor="middle" x="223.997" y="-959.3" font-family="Times New Roman,serif" font-size="14.00">(c:53,f:0)</text>
</g>
<!-- 33699&#45;&gt;44149 -->
<g id="edge20" class="edge"><title>33699&#45;&gt;44149</title>
<path fill="none" stroke="black" d="M193.195,-892.804C180.871,-879.71 162.904,-860.62 148.873,-845.712"/>
<polygon fill="black" stroke="black" points="151.348,-843.235 141.945,-838.351 146.25,-848.032 151.348,-843.235"/>
<text text-anchor="middle" x="201.497" y="-861.8" font-family="Times New Roman,serif" font-size="14.00">(c:116,f:0)</text>
</g>
<!-- 50999&#45;&gt;55129 -->
<g id="edge29" class="edge"><title>50999&#45;&gt;55129</title>
<path fill="none" stroke="black" d="M90.574,-636.235C125.685,-621.162 189.616,-593.717 229.135,-576.751"/>
<polygon fill="black" stroke="black" points="230.816,-579.839 238.624,-572.678 228.054,-573.407 230.816,-579.839"/>
<text text-anchor="middle" x="205.497" y="-600.8" font-family="Times New Roman,serif" font-size="14.00">(c:179,f:9)</text>
</g>
<!-- 66119 -->
<g id="node17" class="node"><title>66119</title>
<ellipse fill="none" stroke="black" cx="32.4971" cy="-561" rx="32.4942" ry="18"/>
<text text-anchor="middle" x="32.4971" y="-557.3" font-family="Times New Roman,serif" font-size="14.00">66119</text>
</g>
<!-- 50999&#45;&gt;66119 -->
<g id="edge30" class="edge"><title>50999&#45;&gt;66119</title>
<path fill="none" stroke="black" d="M43.5317,-634.417C35.6989,-628.678 27.7646,-621.111 23.4971,-612 20.1155,-604.78 20.244,-596.425 21.8254,-588.637"/>
<polygon fill="black" stroke="black" points="25.2347,-589.442 24.5681,-578.868 18.4952,-587.55 25.2347,-589.442"/>
<text text-anchor="middle" x="55.4971" y="-600.8" font-family="Times New Roman,serif" font-size="14.00">(c:283,f:72)</text>
</g>
<!-- 67659 -->
<g id="node18" class="node"><title>67659</title>
<ellipse fill="none" stroke="black" cx="261.497" cy="-453" rx="32.4942" ry="18"/>
<text text-anchor="middle" x="261.497" y="-449.3" font-family="Times New Roman,serif" font-size="14.00">67659</text>
</g>
<!-- 55129&#45;&gt;67659 -->
<g id="edge31" class="edge"><title>55129&#45;&gt;67659</title>
<path fill="none" stroke="black" d="M263.176,-542.969C262.863,-526.378 262.382,-500.883 262.015,-481.431"/>
<polygon fill="black" stroke="black" points="265.512,-481.273 261.824,-471.341 258.514,-481.405 265.512,-481.273"/>
<text text-anchor="middle" x="288.997" y="-503.3" font-family="Times New Roman,serif" font-size="14.00">(c:80,f:0)</text>
</g>
<!-- 55129&#45;&gt;68199 -->
<g id="edge32" class="edge"><title>55129&#45;&gt;68199</title>
<path fill="none" stroke="black" d="M288.91,-549.448C299.101,-543.803 309.77,-535.759 315.497,-525 341.185,-476.745 338.39,-451.642 315.497,-402 312.771,-396.088 308.499,-390.805 303.722,-386.245"/>
<polygon fill="black" stroke="black" points="305.852,-383.462 295.951,-379.689 301.338,-388.812 305.852,-383.462"/>
<text text-anchor="middle" x="359.997" y="-449.3" font-family="Times New Roman,serif" font-size="14.00">(c:83,f:9)</text>
</g>
<!-- 66119&#45;&gt;67659 -->
<g id="edge36" class="edge"><title>66119&#45;&gt;67659</title>
<path fill="none" stroke="black" d="M63.7574,-555.628C90.6602,-550.916 129.865,-541.729 160.497,-525 181.488,-513.536 181.127,-503.03 200.497,-489 209.489,-482.487 219.79,-476.184 229.335,-470.765"/>
<polygon fill="black" stroke="black" points="231.136,-473.769 238.188,-465.861 227.744,-467.645 231.136,-473.769"/>
<text text-anchor="middle" x="229.497" y="-503.3" font-family="Times New Roman,serif" font-size="14.00">(c:72,f:72)</text>
</g>
<!-- 67659&#45;&gt;68199 -->
<g id="edge37" class="edge"><title>67659&#45;&gt;68199</title>
<path fill="none" stroke="black" d="M261.606,-434.77C261.897,-425.082 262.653,-412.801 264.497,-402 264.96,-399.29 265.554,-396.491 266.222,-393.71"/>
<polygon fill="black" stroke="black" points="269.638,-394.484 268.858,-383.918 262.879,-392.664 269.638,-394.484"/>
<text text-anchor="middle" x="289.997" y="-405.8" font-family="Times New Roman,serif" font-size="14.00">(c:67,f:0)</text>
</g>
<!-- 67659&#45;&gt;76199 -->
<g id="edge38" class="edge"><title>67659&#45;&gt;76199</title>
<path fill="none" stroke="black" d="M287.098,-441.746C298.487,-436.011 311.176,-427.811 319.497,-417 344.397,-384.647 353.815,-337.189 357.365,-307.471"/>
<polygon fill="black" stroke="black" points="360.86,-307.697 358.425,-297.386 353.899,-306.965 360.86,-307.697"/>
<text text-anchor="middle" x="379.497" y="-362.3" font-family="Times New Roman,serif" font-size="14.00">(c:96,f:72)</text>
</g>
<!-- 68199&#45;&gt;76199 -->
<g id="edge39" class="edge"><title>68199&#45;&gt;76199</title>
<path fill="none" stroke="black" d="M276.226,-347.615C278.049,-337.162 281.797,-324.155 289.497,-315 297.985,-304.908 310.099,-297.438 321.868,-292.051"/>
<polygon fill="black" stroke="black" points="323.281,-295.254 331.158,-288.169 320.582,-288.796 323.281,-295.254"/>
<text text-anchor="middle" x="314.997" y="-318.8" font-family="Times New Roman,serif" font-size="14.00">(c:58,f:9)</text>
</g>
<!-- 70199 -->
<g id="node21" class="node"><title>70199</title>
<ellipse fill="none" stroke="black" cx="404.497" cy="-192" rx="32.4942" ry="18"/>
<text text-anchor="middle" x="404.497" y="-188.3" font-family="Times New Roman,serif" font-size="14.00">70199</text>
</g>
<!-- 76199&#45;&gt;70199 -->
<g id="edge41" class="edge"><title>76199&#45;&gt;70199</title>
<path fill="none" stroke="black" d="M368.174,-261.611C374.606,-249.46 383.501,-232.66 390.878,-218.725"/>
<polygon fill="black" stroke="black" points="394.108,-220.104 395.694,-209.629 387.922,-216.829 394.108,-220.104"/>
<text text-anchor="middle" x="414.497" y="-231.8" font-family="Times New Roman,serif" font-size="14.00">(c:81,f:81)</text>
</g>
<!-- 86199 -->
<g id="node22" class="node"><title>86199</title>
<ellipse fill="none" stroke="black" cx="428.497" cy="-105" rx="32.4942" ry="18"/>
<text text-anchor="middle" x="428.497" y="-101.3" font-family="Times New Roman,serif" font-size="14.00">86199</text>
</g>
<!-- 70199&#45;&gt;86199 -->
<g id="edge40" class="edge"><title>70199&#45;&gt;86199</title>
<path fill="none" stroke="black" d="M409.354,-173.799C412.694,-161.97 417.194,-146.03 420.993,-132.578"/>
<polygon fill="black" stroke="black" points="424.38,-133.46 423.729,-122.885 417.644,-131.558 424.38,-133.46"/>
<text text-anchor="middle" x="450.497" y="-144.8" font-family="Times New Roman,serif" font-size="14.00">(c:149,f:81)</text>
</g>
<!-- 86199&#45;&gt;80999 -->
<g id="edge42" class="edge"><title>86199&#45;&gt;80999</title>
<path fill="none" stroke="black" d="M430.744,-87.0012C432.59,-76.9377 435.854,-64.2034 441.497,-54 444.009,-49.4575 447.247,-45.0575 450.71,-40.9987"/>
<polygon fill="black" stroke="black" points="453.278,-43.3768 457.515,-33.666 448.147,-38.6152 453.278,-43.3768"/>
<text text-anchor="middle" x="470.497" y="-57.8" font-family="Times New Roman,serif" font-size="14.00">(c:81,f:81)</text>
</g>
</g>
</svg>
