<?xml version="1.0" encoding="UTF-8" standalone="no"?>
<!DOCTYPE svg PUBLIC "-//W3C//DTD SVG 1.1//EN"
 "http://www.w3.org/Graphics/SVG/1.1/DTD/svg11.dtd">
<!-- Generated by graphviz version 2.38.0 (20140413.2041)
 -->
<!-- Title: gerichtet Pages: 1 -->
<svg width="658pt" height="1478pt"
 viewBox="0.00 0.00 658.50 1478.00" xmlns="http://www.w3.org/2000/svg" xmlns:xlink="http://www.w3.org/1999/xlink">
<g id="graph0" class="graph" transform="scale(1 1) rotate(0) translate(4 1474)">
<title>gerichtet</title>
<polygon fill="white" stroke="none" points="-4,4 -4,-1474 654.497,-1474 654.497,4 -4,4"/>
<!-- 1099 -->
<g id="node1" class="node"><title>1099</title>
<ellipse fill="none" stroke="black" cx="432.497" cy="-648" rx="28.6953" ry="18"/>
<text text-anchor="middle" x="432.497" y="-644.3" font-family="Times New Roman,serif" font-size="14.00">1099</text>
</g>
<!-- 90449 -->
<g id="node2" class="node"><title>90449</title>
<ellipse fill="none" stroke="black" cx="432.497" cy="-507" rx="32.4942" ry="18"/>
<text text-anchor="middle" x="432.497" y="-503.3" font-family="Times New Roman,serif" font-size="14.00">90449</text>
</g>
<!-- 1099&#45;&gt;90449 -->
<g id="edge1" class="edge"><title>1099&#45;&gt;90449</title>
<path fill="none" stroke="black" d="M432.497,-629.956C432.497,-606.404 432.497,-563.639 432.497,-535.526"/>
<polygon fill="black" stroke="black" points="435.997,-535.184 432.497,-525.184 428.997,-535.184 435.997,-535.184"/>
<text text-anchor="middle" x="467.997" y="-600.8" font-family="Times New Roman,serif" font-size="14.00">(c:325,f:162)</text>
</g>
<!-- 76199 -->
<g id="node20" class="node"><title>76199</title>
<ellipse fill="none" stroke="black" cx="351.497" cy="-279" rx="32.4942" ry="18"/>
<text text-anchor="middle" x="351.497" y="-275.3" font-family="Times New Roman,serif" font-size="14.00">76199</text>
</g>
<!-- 90449&#45;&gt;76199 -->
<g id="edge43" class="edge"><title>90449&#45;&gt;76199</title>
<path fill="none" stroke="black" d="M432.127,-488.607C430.911,-458.63 425.792,-395.848 404.497,-348 397.059,-331.286 384.641,-315.031 373.695,-302.607"/>
<polygon fill="black" stroke="black" points="376.107,-300.058 366.782,-295.029 370.936,-304.776 376.107,-300.058"/>
<text text-anchor="middle" x="453.497" y="-405.8" font-family="Times New Roman,serif" font-size="14.00">(c:253,f:0)</text>
</g>
<!-- 80999 -->
<g id="node23" class="node"><title>80999</title>
<ellipse fill="none" stroke="black" cx="466.497" cy="-18" rx="32.4942" ry="18"/>
<text text-anchor="middle" x="466.497" y="-14.3" font-family="Times New Roman,serif" font-size="14.00">80999</text>
</g>
<!-- 90449&#45;&gt;80999 -->
<g id="edge44" class="edge"><title>90449&#45;&gt;80999</title>
<path fill="none" stroke="black" d="M452.445,-492.333C474.059,-475.732 505.497,-445.56 505.497,-410.5 505.497,-410.5 505.497,-410.5 505.497,-104 505.497,-80.9231 501.465,-74.8132 491.497,-54 489.733,-50.3169 487.582,-46.6102 485.29,-43.058"/>
<polygon fill="black" stroke="black" points="488.024,-40.8589 479.44,-34.6479 482.277,-44.856 488.024,-40.8589"/>
<text text-anchor="middle" x="540.997" y="-275.3" font-family="Times New Roman,serif" font-size="14.00">(c:162,f:162)</text>
</g>
<!-- 4299 -->
<g id="node3" class="node"><title>4299</title>
<ellipse fill="none" stroke="black" cx="364.497" cy="-963" rx="28.6953" ry="18"/>
<text text-anchor="middle" x="364.497" y="-959.3" font-family="Times New Roman,serif" font-size="14.00">4299</text>
</g>
<!-- 4299&#45;&gt;1099 -->
<g id="edge2" class="edge"><title>4299&#45;&gt;1099</title>
<path fill="none" stroke="black" d="M368.25,-944.726C379.489,-892.995 412.939,-739.026 426.593,-676.176"/>
<polygon fill="black" stroke="black" points="430.053,-676.736 428.756,-666.221 423.213,-675.25 430.053,-676.736"/>
<text text-anchor="middle" x="427.497" y="-818.3" font-family="Times New Roman,serif" font-size="14.00">(c:116,f:0)</text>
</g>
<!-- 60599 -->
<g id="node4" class="node"><title>60599</title>
<ellipse fill="none" stroke="black" cx="253.497" cy="-648" rx="32.4942" ry="18"/>
<text text-anchor="middle" x="253.497" y="-644.3" font-family="Times New Roman,serif" font-size="14.00">60599</text>
</g>
<!-- 4299&#45;&gt;60599 -->
<g id="edge3" class="edge"><title>4299&#45;&gt;60599</title>
<path fill="none" stroke="black" d="M358.703,-945.25C350.868,-921.941 337.015,-878.27 329.497,-840 316.054,-771.564 350.248,-742.643 312.497,-684 306.84,-675.213 298.129,-668.337 289.123,-663.095"/>
<polygon fill="black" stroke="black" points="290.603,-659.92 280.12,-658.388 287.359,-666.123 290.603,-659.92"/>
<text text-anchor="middle" x="358.497" y="-818.3" font-family="Times New Roman,serif" font-size="14.00">(c:387,f:0)</text>
</g>
<!-- 60599&#45;&gt;90449 -->
<g id="edge35" class="edge"><title>60599&#45;&gt;90449</title>
<path fill="none" stroke="black" d="M276.884,-635.319C288.81,-628.988 303.327,-620.694 315.497,-612 350.863,-586.737 387.702,-552.452 410.372,-530.276"/>
<polygon fill="black" stroke="black" points="412.833,-532.764 417.494,-523.25 407.917,-527.781 412.833,-532.764"/>
<text text-anchor="middle" x="364.497" y="-600.8" font-family="Times New Roman,serif" font-size="14.00">(c:235,f:0)</text>
</g>
<!-- 55129 -->
<g id="node16" class="node"><title>55129</title>
<ellipse fill="none" stroke="black" cx="253.497" cy="-561" rx="32.4942" ry="18"/>
<text text-anchor="middle" x="253.497" y="-557.3" font-family="Times New Roman,serif" font-size="14.00">55129</text>
</g>
<!-- 60599&#45;&gt;55129 -->
<g id="edge33" class="edge"><title>60599&#45;&gt;55129</title>
<path fill="none" stroke="black" d="M253.497,-629.799C253.497,-618.163 253.497,-602.548 253.497,-589.237"/>
<polygon fill="black" stroke="black" points="256.997,-589.175 253.497,-579.175 249.997,-589.175 256.997,-589.175"/>
<text text-anchor="middle" x="282.497" y="-600.8" font-family="Times New Roman,serif" font-size="14.00">(c:43,f:43)</text>
</g>
<!-- 68199 -->
<g id="node19" class="node"><title>68199</title>
<ellipse fill="none" stroke="black" cx="266.497" cy="-366" rx="32.4942" ry="18"/>
<text text-anchor="middle" x="266.497" y="-362.3" font-family="Times New Roman,serif" font-size="14.00">68199</text>
</g>
<!-- 60599&#45;&gt;68199 -->
<g id="edge34" class="edge"><title>60599&#45;&gt;68199</title>
<path fill="none" stroke="black" d="M222.058,-643.365C198.264,-639.217 165.958,-630.437 143.497,-612 98.1399,-574.767 68.631,-541.171 95.4971,-489 123.784,-434.071 189.523,-398.413 230.754,-380.577"/>
<polygon fill="black" stroke="black" points="232.298,-383.725 240.167,-376.63 229.591,-377.269 232.298,-383.725"/>
<text text-anchor="middle" x="124.497" y="-503.3" font-family="Times New Roman,serif" font-size="14.00">(c:106,f:0)</text>
</g>
<!-- 12099 -->
<g id="node5" class="node"><title>12099</title>
<ellipse fill="none" stroke="black" cx="376.497" cy="-1191" rx="32.4942" ry="18"/>
<text text-anchor="middle" x="376.497" y="-1187.3" font-family="Times New Roman,serif" font-size="14.00">12099</text>
</g>
<!-- 12099&#45;&gt;1099 -->
<g id="edge4" class="edge"><title>12099&#45;&gt;1099</title>
<path fill="none" stroke="black" d="M409.113,-1190.46C466.496,-1189.37 579.497,-1177.98 579.497,-1105 579.497,-1105 579.497,-1105 579.497,-734 579.497,-683.646 514.057,-662.646 470.501,-654.245"/>
<polygon fill="black" stroke="black" points="470.952,-650.771 460.493,-652.459 469.722,-657.662 470.952,-650.771"/>
<text text-anchor="middle" x="614.997" y="-905.3" font-family="Times New Roman,serif" font-size="14.00">(c:214,f:162)</text>
</g>
<!-- 12099&#45;&gt;4299 -->
<g id="edge5" class="edge"><title>12099&#45;&gt;4299</title>
<path fill="none" stroke="black" d="M375.575,-1172.64C373.498,-1133.52 368.437,-1038.21 365.94,-991.172"/>
<polygon fill="black" stroke="black" points="369.431,-990.909 365.406,-981.108 362.441,-991.28 369.431,-990.909"/>
<text text-anchor="middle" x="402.497" y="-1100.3" font-family="Times New Roman,serif" font-size="14.00">(c:188,f:0)</text>
</g>
<!-- 30159 -->
<g id="node6" class="node"><title>30159</title>
<ellipse fill="none" stroke="black" cx="268.497" cy="-1104" rx="32.4942" ry="18"/>
<text text-anchor="middle" x="268.497" y="-1100.3" font-family="Times New Roman,serif" font-size="14.00">30159</text>
</g>
<!-- 12099&#45;&gt;30159 -->
<g id="edge6" class="edge"><title>12099&#45;&gt;30159</title>
<path fill="none" stroke="black" d="M349.765,-1180.39C335.643,-1174.48 318.576,-1165.92 305.497,-1155 297.043,-1147.94 289.452,-1138.57 283.379,-1129.85"/>
<polygon fill="black" stroke="black" points="286.267,-1127.87 277.835,-1121.45 280.426,-1131.73 286.267,-1127.87"/>
<text text-anchor="middle" x="334.497" y="-1143.8" font-family="Times New Roman,serif" font-size="14.00">(c:258,f:0)</text>
</g>
<!-- 34119 -->
<g id="node7" class="node"><title>34119</title>
<ellipse fill="none" stroke="black" cx="266.497" cy="-735" rx="32.4942" ry="18"/>
<text text-anchor="middle" x="266.497" y="-731.3" font-family="Times New Roman,serif" font-size="14.00">34119</text>
</g>
<!-- 12099&#45;&gt;34119 -->
<g id="edge7" class="edge"><title>12099&#45;&gt;34119</title>
<path fill="none" stroke="black" d="M406.648,-1184.19C445.052,-1174.84 506.497,-1152.46 506.497,-1105 506.497,-1105 506.497,-1105 506.497,-864.5 506.497,-775.938 377.915,-748.178 308.983,-739.659"/>
<polygon fill="black" stroke="black" points="309.199,-736.161 298.865,-738.493 308.398,-743.115 309.199,-736.161"/>
<text text-anchor="middle" x="535.497" y="-959.3" font-family="Times New Roman,serif" font-size="14.00">(c:367,f:0)</text>
</g>
<!-- 30159&#45;&gt;4299 -->
<g id="edge17" class="edge"><title>30159&#45;&gt;4299</title>
<path fill="none" stroke="black" d="M279.51,-1087.05C296.219,-1062.86 328.103,-1016.7 347.712,-988.303"/>
<polygon fill="black" stroke="black" points="350.81,-989.976 353.613,-979.759 345.05,-985.998 350.81,-989.976"/>
<text text-anchor="middle" x="331.497" y="-1056.8" font-family="Times New Roman,serif" font-size="14.00">(c:261,f:0)</text>
</g>
<!-- 30159&#45;&gt;34119 -->
<g id="edge18" class="edge"><title>30159&#45;&gt;34119</title>
<path fill="none" stroke="black" d="M267.853,-1085.75C267.269,-1068.58 266.497,-1041.47 266.497,-1018 266.497,-1018 266.497,-1018 266.497,-821 266.497,-801.753 266.497,-780.054 266.497,-763.397"/>
<polygon fill="black" stroke="black" points="269.997,-763.256 266.497,-753.256 262.997,-763.256 269.997,-763.256"/>
<text text-anchor="middle" x="295.497" y="-905.3" font-family="Times New Roman,serif" font-size="14.00">(c:238,f:0)</text>
</g>
<!-- 49090 -->
<g id="node13" class="node"><title>49090</title>
<ellipse fill="none" stroke="black" cx="176.497" cy="-1017" rx="32.4942" ry="18"/>
<text text-anchor="middle" x="176.497" y="-1013.3" font-family="Times New Roman,serif" font-size="14.00">49090</text>
</g>
<!-- 30159&#45;&gt;49090 -->
<g id="edge19" class="edge"><title>30159&#45;&gt;49090</title>
<path fill="none" stroke="black" d="M242.349,-1093.11C223.93,-1085.7 201.376,-1075.58 194.497,-1068 188.588,-1061.49 184.585,-1052.91 181.886,-1044.69"/>
<polygon fill="black" stroke="black" points="185.247,-1043.71 179.202,-1035.01 178.502,-1045.58 185.247,-1043.71"/>
<text text-anchor="middle" x="223.497" y="-1056.8" font-family="Times New Roman,serif" font-size="14.00">(c:137,f:0)</text>
</g>
<!-- 34119&#45;&gt;1099 -->
<g id="edge21" class="edge"><title>34119&#45;&gt;1099</title>
<path fill="none" stroke="black" d="M288.789,-721.849C307.76,-711.579 335.785,-696.573 360.497,-684 373.725,-677.27 388.444,-670.065 401.11,-663.952"/>
<polygon fill="black" stroke="black" points="402.84,-667.003 410.336,-659.516 399.807,-660.695 402.84,-667.003"/>
<text text-anchor="middle" x="389.497" y="-687.8" font-family="Times New Roman,serif" font-size="14.00">(c:402,f:0)</text>
</g>
<!-- 34119&#45;&gt;60599 -->
<g id="edge23" class="edge"><title>34119&#45;&gt;60599</title>
<path fill="none" stroke="black" d="M259.553,-717.19C257.528,-711.512 255.572,-705.072 254.497,-699 253.216,-691.762 252.673,-683.844 252.52,-676.486"/>
<polygon fill="black" stroke="black" points="256.02,-676.257 252.534,-666.252 249.02,-676.247 256.02,-676.257"/>
<text text-anchor="middle" x="283.497" y="-687.8" font-family="Times New Roman,serif" font-size="14.00">(c:190,f:0)</text>
</g>
<!-- 50999 -->
<g id="node15" class="node"><title>50999</title>
<ellipse fill="none" stroke="black" cx="62.4971" cy="-648" rx="32.4942" ry="18"/>
<text text-anchor="middle" x="62.4971" y="-644.3" font-family="Times New Roman,serif" font-size="14.00">50999</text>
</g>
<!-- 34119&#45;&gt;50999 -->
<g id="edge22" class="edge"><title>34119&#45;&gt;50999</title>
<path fill="none" stroke="black" d="M241.073,-723.407C204.685,-708.245 137.655,-680.316 96.8738,-663.324"/>
<polygon fill="black" stroke="black" points="98.1779,-660.075 87.601,-659.46 95.4856,-666.537 98.1779,-660.075"/>
<text text-anchor="middle" x="206.497" y="-687.8" font-family="Times New Roman,serif" font-size="14.00">(c:249,f:0)</text>
</g>
<!-- 18119 -->
<g id="node8" class="node"><title>18119</title>
<ellipse fill="none" stroke="black" cx="334.497" cy="-1452" rx="32.4942" ry="18"/>
<text text-anchor="middle" x="334.497" y="-1448.3" font-family="Times New Roman,serif" font-size="14.00">18119</text>
</g>
<!-- 18119&#45;&gt;12099 -->
<g id="edge8" class="edge"><title>18119&#45;&gt;12099</title>
<path fill="none" stroke="black" d="M349.329,-1435.84C354.065,-1430.09 358.78,-1423.18 361.497,-1416 386.945,-1348.79 383.517,-1262.2 379.608,-1219.01"/>
<polygon fill="black" stroke="black" points="383.085,-1218.61 378.621,-1209 376.119,-1219.3 383.085,-1218.61"/>
<text text-anchor="middle" x="416.997" y="-1317.8" font-family="Times New Roman,serif" font-size="14.00">(c:222,f:162)</text>
</g>
<!-- 23569 -->
<g id="node9" class="node"><title>23569</title>
<ellipse fill="none" stroke="black" cx="290.497" cy="-1365" rx="32.4942" ry="18"/>
<text text-anchor="middle" x="290.497" y="-1361.3" font-family="Times New Roman,serif" font-size="14.00">23569</text>
</g>
<!-- 18119&#45;&gt;23569 -->
<g id="edge9" class="edge"><title>18119&#45;&gt;23569</title>
<path fill="none" stroke="black" d="M315.313,-1437.28C308.609,-1431.48 301.712,-1424.17 297.497,-1416 293.906,-1409.04 291.97,-1400.84 290.97,-1393.12"/>
<polygon fill="black" stroke="black" points="294.449,-1392.72 290.119,-1383.05 287.473,-1393.31 294.449,-1392.72"/>
<text text-anchor="middle" x="329.497" y="-1404.8" font-family="Times New Roman,serif" font-size="14.00">(c:125,f:43)</text>
</g>
<!-- 20099 -->
<g id="node10" class="node"><title>20099</title>
<ellipse fill="none" stroke="black" cx="275.497" cy="-1278" rx="32.4942" ry="18"/>
<text text-anchor="middle" x="275.497" y="-1274.3" font-family="Times New Roman,serif" font-size="14.00">20099</text>
</g>
<!-- 23569&#45;&gt;20099 -->
<g id="edge13" class="edge"><title>23569&#45;&gt;20099</title>
<path fill="none" stroke="black" d="M287.462,-1346.8C285.408,-1335.16 282.653,-1319.55 280.304,-1306.24"/>
<polygon fill="black" stroke="black" points="283.713,-1305.41 278.528,-1296.18 276.819,-1306.63 283.713,-1305.41"/>
<text text-anchor="middle" x="313.497" y="-1317.8" font-family="Times New Roman,serif" font-size="14.00">(c:65,f:43)</text>
</g>
<!-- 20099&#45;&gt;12099 -->
<g id="edge10" class="edge"><title>20099&#45;&gt;12099</title>
<path fill="none" stroke="black" d="M281.89,-1259.97C286.56,-1249.39 293.776,-1236.12 303.497,-1227 309.608,-1221.27 325.866,-1213.28 341.491,-1206.38"/>
<polygon fill="black" stroke="black" points="343.248,-1209.44 351.042,-1202.26 340.474,-1203.01 343.248,-1209.44"/>
<text text-anchor="middle" x="332.497" y="-1230.8" font-family="Times New Roman,serif" font-size="14.00">(c:289,f:0)</text>
</g>
<!-- 20099&#45;&gt;30159 -->
<g id="edge12" class="edge"><title>20099&#45;&gt;30159</title>
<path fill="none" stroke="black" d="M274.8,-1259.88C273.584,-1230 271.066,-1168.11 269.607,-1132.27"/>
<polygon fill="black" stroke="black" points="273.095,-1131.9 269.191,-1122.05 266.101,-1132.19 273.095,-1131.9"/>
<text text-anchor="middle" x="302.497" y="-1187.3" font-family="Times New Roman,serif" font-size="14.00">(c:150,f:0)</text>
</g>
<!-- 28199 -->
<g id="node11" class="node"><title>28199</title>
<ellipse fill="none" stroke="black" cx="168.497" cy="-1191" rx="32.4942" ry="18"/>
<text text-anchor="middle" x="168.497" y="-1187.3" font-family="Times New Roman,serif" font-size="14.00">28199</text>
</g>
<!-- 20099&#45;&gt;28199 -->
<g id="edge11" class="edge"><title>20099&#45;&gt;28199</title>
<path fill="none" stroke="black" d="M245.598,-1270.68C227.698,-1265.56 205.57,-1256.72 190.497,-1242 183.962,-1235.62 179.23,-1226.96 175.87,-1218.65"/>
<polygon fill="black" stroke="black" points="179.162,-1217.46 172.529,-1209.19 172.562,-1219.79 179.162,-1217.46"/>
<text text-anchor="middle" x="222.497" y="-1230.8" font-family="Times New Roman,serif" font-size="14.00">(c:123,f:43)</text>
</g>
<!-- 28199&#45;&gt;30159 -->
<g id="edge14" class="edge"><title>28199&#45;&gt;30159</title>
<path fill="none" stroke="black" d="M174.907,-1172.99C179.584,-1162.42 186.801,-1149.15 196.497,-1140 206.468,-1130.59 219.443,-1123.24 231.628,-1117.75"/>
<polygon fill="black" stroke="black" points="233.294,-1120.85 241.158,-1113.75 230.583,-1114.39 233.294,-1120.85"/>
<text text-anchor="middle" x="225.497" y="-1143.8" font-family="Times New Roman,serif" font-size="14.00">(c:123,f:0)</text>
</g>
<!-- 44149 -->
<g id="node12" class="node"><title>44149</title>
<ellipse fill="none" stroke="black" cx="121.497" cy="-822" rx="32.4942" ry="18"/>
<text text-anchor="middle" x="121.497" y="-818.3" font-family="Times New Roman,serif" font-size="14.00">44149</text>
</g>
<!-- 28199&#45;&gt;44149 -->
<g id="edge15" class="edge"><title>28199&#45;&gt;44149</title>
<path fill="none" stroke="black" d="M138.796,-1183.49C102.112,-1173.49 44.4971,-1150.54 44.4971,-1105 44.4971,-1105 44.4971,-1105 44.4971,-908 44.4971,-879.124 69.2066,-855.687 90.6306,-840.793"/>
<polygon fill="black" stroke="black" points="92.7998,-843.555 99.2255,-835.131 88.9491,-837.709 92.7998,-843.555"/>
<text text-anchor="middle" x="76.4971" y="-1013.3" font-family="Times New Roman,serif" font-size="14.00">(c:237,f:43)</text>
</g>
<!-- 28199&#45;&gt;49090 -->
<g id="edge16" class="edge"><title>28199&#45;&gt;49090</title>
<path fill="none" stroke="black" d="M168.172,-1172.69C167.898,-1152.03 167.786,-1116.47 169.497,-1086 170.254,-1072.53 171.719,-1057.61 173.114,-1045.19"/>
<polygon fill="black" stroke="black" points="176.619,-1045.35 174.303,-1035.01 169.666,-1044.54 176.619,-1045.35"/>
<text text-anchor="middle" x="198.497" y="-1100.3" font-family="Times New Roman,serif" font-size="14.00">(c:124,f:0)</text>
</g>
<!-- 44149&#45;&gt;60599 -->
<g id="edge26" class="edge"><title>44149&#45;&gt;60599</title>
<path fill="none" stroke="black" d="M124.904,-804.068C129.956,-782.202 141.107,-743.781 161.497,-717 177.669,-695.759 202.222,-678.077 221.896,-666.072"/>
<polygon fill="black" stroke="black" points="223.714,-669.063 230.544,-660.964 220.154,-663.036 223.714,-669.063"/>
<text text-anchor="middle" x="193.497" y="-731.3" font-family="Times New Roman,serif" font-size="14.00">(c:223,f:43)</text>
</g>
<!-- 44149&#45;&gt;34119 -->
<g id="edge24" class="edge"><title>44149&#45;&gt;34119</title>
<path fill="none" stroke="black" d="M140.207,-807.046C154.665,-796.547 175.373,-782.116 194.497,-771 206.539,-764.001 220.186,-757.118 232.336,-751.333"/>
<polygon fill="black" stroke="black" points="234.129,-754.359 241.7,-746.948 231.16,-748.02 234.129,-754.359"/>
<text text-anchor="middle" x="223.497" y="-774.8" font-family="Times New Roman,serif" font-size="14.00">(c:168,f:0)</text>
</g>
<!-- 44149&#45;&gt;50999 -->
<g id="edge25" class="edge"><title>44149&#45;&gt;50999</title>
<path fill="none" stroke="black" d="M109.218,-805.175C99.6008,-791.959 86.6866,-772.237 79.4971,-753 70.1278,-727.93 65.9152,-697.553 64.0254,-676.119"/>
<polygon fill="black" stroke="black" points="67.5106,-675.792 63.2527,-666.09 60.5313,-676.33 67.5106,-675.792"/>
<text text-anchor="middle" x="104.997" y="-731.3" font-family="Times New Roman,serif" font-size="14.00">(c:97,f:0)</text>
</g>
<!-- 49090&#45;&gt;44149 -->
<g id="edge28" class="edge"><title>49090&#45;&gt;44149</title>
<path fill="none" stroke="black" d="M158.343,-1001.94C139.506,-986.094 111.195,-958.4 99.4971,-927 89.8873,-901.205 98.944,-870.163 108.178,-848.746"/>
<polygon fill="black" stroke="black" points="111.369,-850.184 112.366,-839.636 105.009,-847.259 111.369,-850.184"/>
<text text-anchor="middle" x="128.497" y="-905.3" font-family="Times New Roman,serif" font-size="14.00">(c:123,f:0)</text>
</g>
<!-- 33699 -->
<g id="node14" class="node"><title>33699</title>
<ellipse fill="none" stroke="black" cx="198.497" cy="-909" rx="32.4942" ry="18"/>
<text text-anchor="middle" x="198.497" y="-905.3" font-family="Times New Roman,serif" font-size="14.00">33699</text>
</g>
<!-- 49090&#45;&gt;33699 -->
<g id="edge27" class="edge"><title>49090&#45;&gt;33699</title>
<path fill="none" stroke="black" d="M180.032,-998.969C183.512,-982.202 188.879,-956.341 192.932,-936.814"/>
<polygon fill="black" stroke="black" points="196.366,-937.491 194.971,-926.988 189.512,-936.069 196.366,-937.491"/>
<text text-anchor="middle" x="216.997" y="-959.3" font-family="Times New Roman,serif" font-size="14.00">(c:53,f:0)</text>
</g>
<!-- 33699&#45;&gt;44149 -->
<g id="edge20" class="edge"><title>33699&#45;&gt;44149</title>
<path fill="none" stroke="black" d="M184.374,-892.41C172.652,-879.469 155.807,-860.875 142.503,-846.188"/>
<polygon fill="black" stroke="black" points="144.838,-843.553 135.531,-838.491 139.65,-848.253 144.838,-843.553"/>
<text text-anchor="middle" x="194.497" y="-861.8" font-family="Times New Roman,serif" font-size="14.00">(c:116,f:0)</text>
</g>
<!-- 50999&#45;&gt;55129 -->
<g id="edge29" class="edge"><title>50999&#45;&gt;55129</title>
<path fill="none" stroke="black" d="M87.076,-636.062C120.885,-621.016 181.863,-593.879 219.874,-576.963"/>
<polygon fill="black" stroke="black" points="221.299,-580.16 229.013,-572.896 218.453,-573.764 221.299,-580.16"/>
<text text-anchor="middle" x="198.497" y="-600.8" font-family="Times New Roman,serif" font-size="14.00">(c:179,f:0)</text>
</g>
<!-- 66119 -->
<g id="node17" class="node"><title>66119</title>
<ellipse fill="none" stroke="black" cx="32.4971" cy="-561" rx="32.4942" ry="18"/>
<text text-anchor="middle" x="32.4971" y="-557.3" font-family="Times New Roman,serif" font-size="14.00">66119</text>
</g>
<!-- 50999&#45;&gt;66119 -->
<g id="edge30" class="edge"><title>50999&#45;&gt;66119</title>
<path fill="none" stroke="black" d="M43.2254,-633.468C36.6282,-627.693 30.0253,-620.351 26.4971,-612 23.4561,-604.802 23.2698,-596.536 24.3155,-588.824"/>
<polygon fill="black" stroke="black" points="27.7899,-589.302 26.3528,-578.805 20.9303,-587.907 27.7899,-589.302"/>
<text text-anchor="middle" x="55.4971" y="-600.8" font-family="Times New Roman,serif" font-size="14.00">(c:283,f:0)</text>
</g>
<!-- 67659 -->
<g id="node18" class="node"><title>67659</title>
<ellipse fill="none" stroke="black" cx="254.497" cy="-453" rx="32.4942" ry="18"/>
<text text-anchor="middle" x="254.497" y="-449.3" font-family="Times New Roman,serif" font-size="14.00">67659</text>
</g>
<!-- 55129&#45;&gt;67659 -->
<g id="edge31" class="edge"><title>55129&#45;&gt;67659</title>
<path fill="none" stroke="black" d="M253.658,-542.969C253.814,-526.378 254.055,-500.883 254.238,-481.431"/>
<polygon fill="black" stroke="black" points="257.739,-481.373 254.334,-471.341 250.739,-481.307 257.739,-481.373"/>
<text text-anchor="middle" x="283.497" y="-503.3" font-family="Times New Roman,serif" font-size="14.00">(c:80,f:43)</text>
</g>
<!-- 55129&#45;&gt;68199 -->
<g id="edge32" class="edge"><title>55129&#45;&gt;68199</title>
<path fill="none" stroke="black" d="M280.692,-550.959C292.685,-545.46 305.601,-537.109 312.497,-525 322.714,-507.059 324.645,-436.542 307.497,-402 304.602,-396.169 300.253,-390.922 295.454,-386.373"/>
<polygon fill="black" stroke="black" points="297.586,-383.592 287.687,-379.815 293.07,-388.941 297.586,-383.592"/>
<text text-anchor="middle" x="345.997" y="-449.3" font-family="Times New Roman,serif" font-size="14.00">(c:83,f:0)</text>
</g>
<!-- 66119&#45;&gt;67659 -->
<g id="edge36" class="edge"><title>66119&#45;&gt;67659</title>
<path fill="none" stroke="black" d="M63.4467,-555.212C89.6405,-550.273 127.584,-540.987 157.497,-525 179.18,-513.412 179.743,-503.636 199.497,-489 207.377,-483.161 216.225,-477.265 224.482,-472.019"/>
<polygon fill="black" stroke="black" points="226.507,-474.881 233.136,-466.615 222.8,-468.943 226.507,-474.881"/>
<text text-anchor="middle" x="224.997" y="-503.3" font-family="Times New Roman,serif" font-size="14.00">(c:72,f:0)</text>
</g>
<!-- 67659&#45;&gt;68199 -->
<g id="edge37" class="edge"><title>67659&#45;&gt;68199</title>
<path fill="none" stroke="black" d="M254.179,-434.775C254.251,-425.089 254.762,-412.808 256.497,-402 256.933,-399.286 257.509,-396.483 258.166,-393.701"/>
<polygon fill="black" stroke="black" points="261.583,-394.471 260.788,-383.906 254.821,-392.661 261.583,-394.471"/>
<text text-anchor="middle" x="281.997" y="-405.8" font-family="Times New Roman,serif" font-size="14.00">(c:67,f:0)</text>
</g>
<!-- 67659&#45;&gt;76199 -->
<g id="edge38" class="edge"><title>67659&#45;&gt;76199</title>
<path fill="none" stroke="black" d="M279.949,-441.503C291.067,-435.755 303.393,-427.614 311.497,-417 336.272,-384.552 345.726,-337.121 349.317,-307.435"/>
<polygon fill="black" stroke="black" points="352.811,-307.676 350.393,-297.361 345.851,-306.933 352.811,-307.676"/>
<text text-anchor="middle" x="371.497" y="-362.3" font-family="Times New Roman,serif" font-size="14.00">(c:96,f:43)</text>
</g>
<!-- 68199&#45;&gt;76199 -->
<g id="edge39" class="edge"><title>68199&#45;&gt;76199</title>
<path fill="none" stroke="black" d="M268.226,-347.615C270.049,-337.162 273.797,-324.155 281.497,-315 289.985,-304.908 302.099,-297.438 313.868,-292.051"/>
<polygon fill="black" stroke="black" points="315.281,-295.254 323.158,-288.169 312.582,-288.796 315.281,-295.254"/>
<text text-anchor="middle" x="306.997" y="-318.8" font-family="Times New Roman,serif" font-size="14.00">(c:58,f:0)</text>
</g>
<!-- 70199 -->
<g id="node21" class="node"><title>70199</title>
<ellipse fill="none" stroke="black" cx="396.497" cy="-192" rx="32.4942" ry="18"/>
<text text-anchor="middle" x="396.497" y="-188.3" font-family="Times New Roman,serif" font-size="14.00">70199</text>
</g>
<!-- 76199&#45;&gt;70199 -->
<g id="edge41" class="edge"><title>76199&#45;&gt;70199</title>
<path fill="none" stroke="black" d="M360.174,-261.611C366.606,-249.46 375.501,-232.66 382.878,-218.725"/>
<polygon fill="black" stroke="black" points="386.108,-220.104 387.694,-209.629 379.922,-216.829 386.108,-220.104"/>
<text text-anchor="middle" x="406.497" y="-231.8" font-family="Times New Roman,serif" font-size="14.00">(c:81,f:43)</text>
</g>
<!-- 86199 -->
<g id="node22" class="node"><title>86199</title>
<ellipse fill="none" stroke="black" cx="420.497" cy="-105" rx="32.4942" ry="18"/>
<text text-anchor="middle" x="420.497" y="-101.3" font-family="Times New Roman,serif" font-size="14.00">86199</text>
</g>
<!-- 70199&#45;&gt;86199 -->
<g id="edge40" class="edge"><title>70199&#45;&gt;86199</title>
<path fill="none" stroke="black" d="M401.354,-173.799C404.694,-161.97 409.194,-146.03 412.993,-132.578"/>
<polygon fill="black" stroke="black" points="416.38,-133.46 415.729,-122.885 409.644,-131.558 416.38,-133.46"/>
<text text-anchor="middle" x="442.497" y="-144.8" font-family="Times New Roman,serif" font-size="14.00">(c:149,f:43)</text>
</g>
<!-- 86199&#45;&gt;80999 -->
<g id="edge42" class="edge"><title>86199&#45;&gt;80999</title>
<path fill="none" stroke="black" d="M422.744,-87.0012C424.59,-76.9377 427.854,-64.2034 433.497,-54 436.009,-49.4575 439.247,-45.0575 442.71,-40.9987"/>
<polygon fill="black" stroke="black" points="445.278,-43.3768 449.515,-33.666 440.147,-38.6152 445.278,-43.3768"/>
<text text-anchor="middle" x="462.497" y="-57.8" font-family="Times New Roman,serif" font-size="14.00">(c:81,f:43)</text>
</g>
</g>
</svg>
