<?xml version="1.0" encoding="UTF-8" standalone="no"?>
<!DOCTYPE svg PUBLIC "-//W3C//DTD SVG 1.1//EN"
 "http://www.w3.org/Graphics/SVG/1.1/DTD/svg11.dtd">
<!-- Generated by graphviz version 2.38.0 (20140413.2041)
 -->
<!-- Title: gerichtet Pages: 1 -->
<svg width="658pt" height="1478pt"
 viewBox="0.00 0.00 658.50 1478.00" xmlns="http://www.w3.org/2000/svg" xmlns:xlink="http://www.w3.org/1999/xlink">
<g id="graph0" class="graph" transform="scale(1 1) rotate(0) translate(4 1474)">
<title>gerichtet</title>
<polygon fill="white" stroke="none" points="-4,4 -4,-1474 654.497,-1474 654.497,4 -4,4"/>
<!-- 1099 -->
<g id="node1" class="node"><title>1099</title>
<ellipse fill="none" stroke="black" cx="425.497" cy="-648" rx="28.6953" ry="18"/>
<text text-anchor="middle" x="425.497" y="-644.3" font-family="Times New Roman,serif" font-size="14.00">1099</text>
</g>
<!-- 90449 -->
<g id="node2" class="node"><title>90449</title>
<ellipse fill="none" stroke="black" cx="423.497" cy="-507" rx="32.4942" ry="18"/>
<text text-anchor="middle" x="423.497" y="-503.3" font-family="Times New Roman,serif" font-size="14.00">90449</text>
</g>
<!-- 1099&#45;&gt;90449 -->
<g id="edge1" class="edge"><title>1099&#45;&gt;90449</title>
<path fill="none" stroke="black" d="M425.252,-629.956C424.913,-606.404 424.298,-563.639 423.893,-535.526"/>
<polygon fill="black" stroke="black" points="427.388,-535.132 423.744,-525.184 420.389,-535.233 427.388,-535.132"/>
<text text-anchor="middle" x="460.997" y="-600.8" font-family="Times New Roman,serif" font-size="14.00">(c:325,f:243)</text>
</g>
<!-- 76199 -->
<g id="node20" class="node"><title>76199</title>
<ellipse fill="none" stroke="black" cx="349.497" cy="-279" rx="32.4942" ry="18"/>
<text text-anchor="middle" x="349.497" y="-275.3" font-family="Times New Roman,serif" font-size="14.00">76199</text>
</g>
<!-- 90449&#45;&gt;76199 -->
<g id="edge43" class="edge"><title>90449&#45;&gt;76199</title>
<path fill="none" stroke="black" d="M422.784,-488.752C421.049,-458.996 415.17,-396.538 395.497,-348 389.059,-332.116 378.52,-316.15 369.153,-303.685"/>
<polygon fill="black" stroke="black" points="371.817,-301.41 362.92,-295.658 366.288,-305.703 371.817,-301.41"/>
<text text-anchor="middle" x="446.497" y="-405.8" font-family="Times New Roman,serif" font-size="14.00">(c:253,f:81)</text>
</g>
<!-- 80999 -->
<g id="node23" class="node"><title>80999</title>
<ellipse fill="none" stroke="black" cx="463.497" cy="-18" rx="32.4942" ry="18"/>
<text text-anchor="middle" x="463.497" y="-14.3" font-family="Times New Roman,serif" font-size="14.00">80999</text>
</g>
<!-- 90449&#45;&gt;80999 -->
<g id="edge44" class="edge"><title>90449&#45;&gt;80999</title>
<path fill="none" stroke="black" d="M444.668,-493.007C468.068,-476.836 502.497,-446.864 502.497,-410.5 502.497,-410.5 502.497,-410.5 502.497,-104 502.497,-80.9231 498.465,-74.8132 488.497,-54 486.733,-50.3169 484.582,-46.6102 482.29,-43.058"/>
<polygon fill="black" stroke="black" points="485.024,-40.8589 476.44,-34.6479 479.277,-44.856 485.024,-40.8589"/>
<text text-anchor="middle" x="537.997" y="-275.3" font-family="Times New Roman,serif" font-size="14.00">(c:162,f:162)</text>
</g>
<!-- 4299 -->
<g id="node3" class="node"><title>4299</title>
<ellipse fill="none" stroke="black" cx="361.497" cy="-963" rx="28.6953" ry="18"/>
<text text-anchor="middle" x="361.497" y="-959.3" font-family="Times New Roman,serif" font-size="14.00">4299</text>
</g>
<!-- 4299&#45;&gt;1099 -->
<g id="edge2" class="edge"><title>4299&#45;&gt;1099</title>
<path fill="none" stroke="black" d="M365.029,-944.726C375.607,-892.995 407.089,-739.026 419.94,-676.176"/>
<polygon fill="black" stroke="black" points="423.402,-676.719 421.976,-666.221 416.544,-675.317 423.402,-676.719"/>
<text text-anchor="middle" x="425.497" y="-818.3" font-family="Times New Roman,serif" font-size="14.00">(c:116,f:29)</text>
</g>
<!-- 60599 -->
<g id="node4" class="node"><title>60599</title>
<ellipse fill="none" stroke="black" cx="248.497" cy="-648" rx="32.4942" ry="18"/>
<text text-anchor="middle" x="248.497" y="-644.3" font-family="Times New Roman,serif" font-size="14.00">60599</text>
</g>
<!-- 4299&#45;&gt;60599 -->
<g id="edge3" class="edge"><title>4299&#45;&gt;60599</title>
<path fill="none" stroke="black" d="M355.591,-945.252C347.596,-921.945 333.418,-878.277 325.497,-840 311.343,-771.604 344.454,-742.632 306.497,-684 300.995,-675.5 292.633,-668.759 283.959,-663.555"/>
<polygon fill="black" stroke="black" points="285.375,-660.342 274.912,-658.679 282.054,-666.504 285.375,-660.342"/>
<text text-anchor="middle" x="354.497" y="-818.3" font-family="Times New Roman,serif" font-size="14.00">(c:387,f:0)</text>
</g>
<!-- 60599&#45;&gt;90449 -->
<g id="edge35" class="edge"><title>60599&#45;&gt;90449</title>
<path fill="none" stroke="black" d="M270.869,-634.788C281.903,-628.446 295.228,-620.299 306.497,-612 341.34,-586.338 378.103,-552.365 400.917,-530.348"/>
<polygon fill="black" stroke="black" points="403.65,-532.572 408.379,-523.091 398.77,-527.554 403.65,-532.572"/>
<text text-anchor="middle" x="355.497" y="-600.8" font-family="Times New Roman,serif" font-size="14.00">(c:235,f:0)</text>
</g>
<!-- 55129 -->
<g id="node16" class="node"><title>55129</title>
<ellipse fill="none" stroke="black" cx="252.497" cy="-561" rx="32.4942" ry="18"/>
<text text-anchor="middle" x="252.497" y="-557.3" font-family="Times New Roman,serif" font-size="14.00">55129</text>
</g>
<!-- 60599&#45;&gt;55129 -->
<g id="edge33" class="edge"><title>60599&#45;&gt;55129</title>
<path fill="none" stroke="black" d="M249.307,-629.799C249.854,-618.163 250.589,-602.548 251.215,-589.237"/>
<polygon fill="black" stroke="black" points="254.715,-589.329 251.689,-579.175 247.723,-589 254.715,-589.329"/>
<text text-anchor="middle" x="276.997" y="-600.8" font-family="Times New Roman,serif" font-size="14.00">(c:43,f:0)</text>
</g>
<!-- 68199 -->
<g id="node19" class="node"><title>68199</title>
<ellipse fill="none" stroke="black" cx="264.497" cy="-366" rx="32.4942" ry="18"/>
<text text-anchor="middle" x="264.497" y="-362.3" font-family="Times New Roman,serif" font-size="14.00">68199</text>
</g>
<!-- 60599&#45;&gt;68199 -->
<g id="edge34" class="edge"><title>60599&#45;&gt;68199</title>
<path fill="none" stroke="black" d="M217.19,-642.963C194.328,-638.63 163.743,-629.794 142.497,-612 97.6319,-574.425 68.8493,-541.103 95.4971,-489 123.337,-434.567 188.041,-398.843 228.824,-380.843"/>
<polygon fill="black" stroke="black" points="230.324,-384.008 238.14,-376.855 227.57,-377.573 230.324,-384.008"/>
<text text-anchor="middle" x="124.497" y="-503.3" font-family="Times New Roman,serif" font-size="14.00">(c:106,f:0)</text>
</g>
<!-- 12099 -->
<g id="node5" class="node"><title>12099</title>
<ellipse fill="none" stroke="black" cx="376.497" cy="-1191" rx="32.4942" ry="18"/>
<text text-anchor="middle" x="376.497" y="-1187.3" font-family="Times New Roman,serif" font-size="14.00">12099</text>
</g>
<!-- 12099&#45;&gt;1099 -->
<g id="edge4" class="edge"><title>12099&#45;&gt;1099</title>
<path fill="none" stroke="black" d="M409.113,-1190.46C466.496,-1189.37 579.497,-1177.98 579.497,-1105 579.497,-1105 579.497,-1105 579.497,-734 579.497,-681.304 509.527,-661.028 463.914,-653.409"/>
<polygon fill="black" stroke="black" points="464.158,-649.906 453.743,-651.85 463.097,-656.825 464.158,-649.906"/>
<text text-anchor="middle" x="614.997" y="-905.3" font-family="Times New Roman,serif" font-size="14.00">(c:214,f:214)</text>
</g>
<!-- 12099&#45;&gt;4299 -->
<g id="edge5" class="edge"><title>12099&#45;&gt;4299</title>
<path fill="none" stroke="black" d="M375.345,-1172.64C372.748,-1133.52 366.422,-1038.21 363.301,-991.172"/>
<polygon fill="black" stroke="black" points="366.787,-990.855 362.633,-981.108 359.803,-991.318 366.787,-990.855"/>
<text text-anchor="middle" x="401.497" y="-1100.3" font-family="Times New Roman,serif" font-size="14.00">(c:188,f:8)</text>
</g>
<!-- 30159 -->
<g id="node6" class="node"><title>30159</title>
<ellipse fill="none" stroke="black" cx="262.497" cy="-1104" rx="32.4942" ry="18"/>
<text text-anchor="middle" x="262.497" y="-1100.3" font-family="Times New Roman,serif" font-size="14.00">30159</text>
</g>
<!-- 12099&#45;&gt;30159 -->
<g id="edge6" class="edge"><title>12099&#45;&gt;30159</title>
<path fill="none" stroke="black" d="M350.416,-1180.15C336.322,-1174.11 319.076,-1165.52 305.497,-1155 296.17,-1147.77 287.384,-1138.26 280.214,-1129.47"/>
<polygon fill="black" stroke="black" points="282.791,-1127.09 273.871,-1121.37 277.28,-1131.4 282.791,-1127.09"/>
<text text-anchor="middle" x="334.497" y="-1143.8" font-family="Times New Roman,serif" font-size="14.00">(c:258,f:0)</text>
</g>
<!-- 34119 -->
<g id="node7" class="node"><title>34119</title>
<ellipse fill="none" stroke="black" cx="260.497" cy="-735" rx="32.4942" ry="18"/>
<text text-anchor="middle" x="260.497" y="-731.3" font-family="Times New Roman,serif" font-size="14.00">34119</text>
</g>
<!-- 12099&#45;&gt;34119 -->
<g id="edge7" class="edge"><title>12099&#45;&gt;34119</title>
<path fill="none" stroke="black" d="M406.648,-1184.19C445.052,-1174.84 506.497,-1152.46 506.497,-1105 506.497,-1105 506.497,-1105 506.497,-864.5 506.497,-773.754 373.359,-746.981 302.974,-739.167"/>
<polygon fill="black" stroke="black" points="302.963,-735.648 292.657,-738.108 302.247,-742.611 302.963,-735.648"/>
<text text-anchor="middle" x="535.497" y="-959.3" font-family="Times New Roman,serif" font-size="14.00">(c:367,f:0)</text>
</g>
<!-- 30159&#45;&gt;4299 -->
<g id="edge17" class="edge"><title>30159&#45;&gt;4299</title>
<path fill="none" stroke="black" d="M273.854,-1087.05C291.16,-1062.76 324.25,-1016.3 344.45,-987.935"/>
<polygon fill="black" stroke="black" points="347.323,-989.935 350.273,-979.759 341.621,-985.874 347.323,-989.935"/>
<text text-anchor="middle" x="329.497" y="-1056.8" font-family="Times New Roman,serif" font-size="14.00">(c:261,f:21)</text>
</g>
<!-- 30159&#45;&gt;34119 -->
<g id="edge18" class="edge"><title>30159&#45;&gt;34119</title>
<path fill="none" stroke="black" d="M261.853,-1085.75C261.269,-1068.58 260.497,-1041.47 260.497,-1018 260.497,-1018 260.497,-1018 260.497,-821 260.497,-801.753 260.497,-780.054 260.497,-763.397"/>
<polygon fill="black" stroke="black" points="263.997,-763.256 260.497,-753.256 256.997,-763.256 263.997,-763.256"/>
<text text-anchor="middle" x="289.497" y="-905.3" font-family="Times New Roman,serif" font-size="14.00">(c:238,f:0)</text>
</g>
<!-- 49090 -->
<g id="node13" class="node"><title>49090</title>
<ellipse fill="none" stroke="black" cx="170.497" cy="-1017" rx="32.4942" ry="18"/>
<text text-anchor="middle" x="170.497" y="-1013.3" font-family="Times New Roman,serif" font-size="14.00">49090</text>
</g>
<!-- 30159&#45;&gt;49090 -->
<g id="edge19" class="edge"><title>30159&#45;&gt;49090</title>
<path fill="none" stroke="black" d="M236.349,-1093.11C217.93,-1085.7 195.376,-1075.58 188.497,-1068 182.588,-1061.49 178.585,-1052.91 175.886,-1044.69"/>
<polygon fill="black" stroke="black" points="179.247,-1043.71 173.202,-1035.01 172.502,-1045.58 179.247,-1043.71"/>
<text text-anchor="middle" x="217.497" y="-1056.8" font-family="Times New Roman,serif" font-size="14.00">(c:137,f:0)</text>
</g>
<!-- 34119&#45;&gt;1099 -->
<g id="edge21" class="edge"><title>34119&#45;&gt;1099</title>
<path fill="none" stroke="black" d="M282.807,-721.884C301.789,-711.635 329.82,-696.642 354.497,-684 367.46,-677.359 381.859,-670.218 394.283,-664.129"/>
<polygon fill="black" stroke="black" points="395.893,-667.238 403.342,-659.704 392.821,-660.948 395.893,-667.238"/>
<text text-anchor="middle" x="383.497" y="-687.8" font-family="Times New Roman,serif" font-size="14.00">(c:402,f:0)</text>
</g>
<!-- 34119&#45;&gt;60599 -->
<g id="edge23" class="edge"><title>34119&#45;&gt;60599</title>
<path fill="none" stroke="black" d="M253.482,-717.202C251.452,-711.525 249.511,-705.083 248.497,-699 247.289,-691.751 246.88,-683.829 246.873,-676.471"/>
<polygon fill="black" stroke="black" points="250.378,-676.317 247.106,-666.24 243.38,-676.157 250.378,-676.317"/>
<text text-anchor="middle" x="277.497" y="-687.8" font-family="Times New Roman,serif" font-size="14.00">(c:190,f:0)</text>
</g>
<!-- 50999 -->
<g id="node15" class="node"><title>50999</title>
<ellipse fill="none" stroke="black" cx="62.4971" cy="-648" rx="32.4942" ry="18"/>
<text text-anchor="middle" x="62.4971" y="-644.3" font-family="Times New Roman,serif" font-size="14.00">50999</text>
</g>
<!-- 34119&#45;&gt;50999 -->
<g id="edge22" class="edge"><title>34119&#45;&gt;50999</title>
<path fill="none" stroke="black" d="M235.42,-723.235C200.31,-708.162 136.378,-680.717 96.8591,-663.751"/>
<polygon fill="black" stroke="black" points="97.9401,-660.407 87.3703,-659.678 95.1787,-666.839 97.9401,-660.407"/>
<text text-anchor="middle" x="202.497" y="-687.8" font-family="Times New Roman,serif" font-size="14.00">(c:249,f:0)</text>
</g>
<!-- 18119 -->
<g id="node8" class="node"><title>18119</title>
<ellipse fill="none" stroke="black" cx="333.497" cy="-1452" rx="32.4942" ry="18"/>
<text text-anchor="middle" x="333.497" y="-1448.3" font-family="Times New Roman,serif" font-size="14.00">18119</text>
</g>
<!-- 18119&#45;&gt;12099 -->
<g id="edge8" class="edge"><title>18119&#45;&gt;12099</title>
<path fill="none" stroke="black" d="M348.311,-1435.84C353.046,-1430.08 357.764,-1423.17 360.497,-1416 386.102,-1348.83 383.124,-1262.22 379.454,-1219.02"/>
<polygon fill="black" stroke="black" points="382.934,-1218.64 378.522,-1209.01 375.964,-1219.29 382.934,-1218.64"/>
<text text-anchor="middle" x="416.997" y="-1317.8" font-family="Times New Roman,serif" font-size="14.00">(c:222,f:222)</text>
</g>
<!-- 23569 -->
<g id="node9" class="node"><title>23569</title>
<ellipse fill="none" stroke="black" cx="290.497" cy="-1365" rx="32.4942" ry="18"/>
<text text-anchor="middle" x="290.497" y="-1361.3" font-family="Times New Roman,serif" font-size="14.00">23569</text>
</g>
<!-- 18119&#45;&gt;23569 -->
<g id="edge9" class="edge"><title>18119&#45;&gt;23569</title>
<path fill="none" stroke="black" d="M314.228,-1437.32C307.513,-1431.53 300.631,-1424.21 296.497,-1416 292.984,-1409.02 291.193,-1400.82 290.349,-1393.1"/>
<polygon fill="black" stroke="black" points="293.837,-1392.8 289.713,-1383.04 286.851,-1393.24 293.837,-1392.8"/>
<text text-anchor="middle" x="328.497" y="-1404.8" font-family="Times New Roman,serif" font-size="14.00">(c:125,f:21)</text>
</g>
<!-- 20099 -->
<g id="node10" class="node"><title>20099</title>
<ellipse fill="none" stroke="black" cx="277.497" cy="-1278" rx="32.4942" ry="18"/>
<text text-anchor="middle" x="277.497" y="-1274.3" font-family="Times New Roman,serif" font-size="14.00">20099</text>
</g>
<!-- 23569&#45;&gt;20099 -->
<g id="edge13" class="edge"><title>23569&#45;&gt;20099</title>
<path fill="none" stroke="black" d="M287.866,-1346.8C286.087,-1335.16 283.699,-1319.55 281.663,-1306.24"/>
<polygon fill="black" stroke="black" points="285.096,-1305.53 280.124,-1296.18 278.176,-1306.59 285.096,-1305.53"/>
<text text-anchor="middle" x="314.497" y="-1317.8" font-family="Times New Roman,serif" font-size="14.00">(c:65,f:21)</text>
</g>
<!-- 20099&#45;&gt;12099 -->
<g id="edge10" class="edge"><title>20099&#45;&gt;12099</title>
<path fill="none" stroke="black" d="M282.785,-1259.95C286.787,-1249.37 293.201,-1236.09 302.497,-1227 308.611,-1221.02 325.337,-1212.92 341.343,-1206.02"/>
<polygon fill="black" stroke="black" points="342.741,-1209.23 350.598,-1202.13 340.024,-1202.78 342.741,-1209.23"/>
<text text-anchor="middle" x="331.497" y="-1230.8" font-family="Times New Roman,serif" font-size="14.00">(c:289,f:0)</text>
</g>
<!-- 20099&#45;&gt;30159 -->
<g id="edge12" class="edge"><title>20099&#45;&gt;30159</title>
<path fill="none" stroke="black" d="M275.985,-1259.95C274.767,-1246.2 273.014,-1226.36 271.497,-1209 269.227,-1183.02 266.665,-1153.38 264.856,-1132.41"/>
<polygon fill="black" stroke="black" points="268.331,-1131.96 263.985,-1122.3 261.357,-1132.56 268.331,-1131.96"/>
<text text-anchor="middle" x="303.497" y="-1187.3" font-family="Times New Roman,serif" font-size="14.00">(c:150,f:21)</text>
</g>
<!-- 28199 -->
<g id="node11" class="node"><title>28199</title>
<ellipse fill="none" stroke="black" cx="171.497" cy="-1191" rx="32.4942" ry="18"/>
<text text-anchor="middle" x="171.497" y="-1187.3" font-family="Times New Roman,serif" font-size="14.00">28199</text>
</g>
<!-- 20099&#45;&gt;28199 -->
<g id="edge11" class="edge"><title>20099&#45;&gt;28199</title>
<path fill="none" stroke="black" d="M247.045,-1271.23C228.55,-1266.3 205.659,-1257.46 190.497,-1242 184.302,-1235.68 180.087,-1227.15 177.236,-1218.91"/>
<polygon fill="black" stroke="black" points="180.559,-1217.81 174.393,-1209.19 173.841,-1219.77 180.559,-1217.81"/>
<text text-anchor="middle" x="219.497" y="-1230.8" font-family="Times New Roman,serif" font-size="14.00">(c:123,f:0)</text>
</g>
<!-- 28199&#45;&gt;30159 -->
<g id="edge14" class="edge"><title>28199&#45;&gt;30159</title>
<path fill="none" stroke="black" d="M174.608,-1173.01C177.288,-1162.45 182.1,-1149.18 190.497,-1140 196.051,-1133.93 211.873,-1125.98 227.276,-1119.2"/>
<polygon fill="black" stroke="black" points="228.904,-1122.31 236.716,-1115.15 226.146,-1115.87 228.904,-1122.31"/>
<text text-anchor="middle" x="219.497" y="-1143.8" font-family="Times New Roman,serif" font-size="14.00">(c:123,f:0)</text>
</g>
<!-- 44149 -->
<g id="node12" class="node"><title>44149</title>
<ellipse fill="none" stroke="black" cx="118.497" cy="-822" rx="32.4942" ry="18"/>
<text text-anchor="middle" x="118.497" y="-818.3" font-family="Times New Roman,serif" font-size="14.00">44149</text>
</g>
<!-- 28199&#45;&gt;44149 -->
<g id="edge15" class="edge"><title>28199&#45;&gt;44149</title>
<path fill="none" stroke="black" d="M140.984,-1184.49C101.718,-1175.44 38.4971,-1153.37 38.4971,-1105 38.4971,-1105 38.4971,-1105 38.4971,-908 38.4971,-878.481 64.398,-855.035 86.7246,-840.308"/>
<polygon fill="black" stroke="black" points="88.7341,-843.179 95.3578,-834.91 85.0232,-837.244 88.7341,-843.179"/>
<text text-anchor="middle" x="67.4971" y="-1013.3" font-family="Times New Roman,serif" font-size="14.00">(c:237,f:0)</text>
</g>
<!-- 28199&#45;&gt;49090 -->
<g id="edge16" class="edge"><title>28199&#45;&gt;49090</title>
<path fill="none" stroke="black" d="M168.937,-1173C167.006,-1159.28 164.52,-1139.44 163.497,-1122 161.973,-1096 164.375,-1066.37 166.77,-1045.4"/>
<polygon fill="black" stroke="black" points="170.266,-1045.64 168.001,-1035.29 163.318,-1044.8 170.266,-1045.64"/>
<text text-anchor="middle" x="192.497" y="-1100.3" font-family="Times New Roman,serif" font-size="14.00">(c:124,f:0)</text>
</g>
<!-- 44149&#45;&gt;60599 -->
<g id="edge26" class="edge"><title>44149&#45;&gt;60599</title>
<path fill="none" stroke="black" d="M122.678,-803.78C128.601,-781.947 141.049,-743.914 161.497,-717 176.845,-696.798 199.576,-679.31 217.954,-667.13"/>
<polygon fill="black" stroke="black" points="220.056,-669.939 226.575,-661.587 216.27,-664.051 220.056,-669.939"/>
<text text-anchor="middle" x="190.497" y="-731.3" font-family="Times New Roman,serif" font-size="14.00">(c:223,f:0)</text>
</g>
<!-- 44149&#45;&gt;34119 -->
<g id="edge24" class="edge"><title>44149&#45;&gt;34119</title>
<path fill="none" stroke="black" d="M136.643,-806.754C150.449,-796.236 170.14,-781.913 188.497,-771 200.469,-763.883 214.101,-756.974 226.259,-751.202"/>
<polygon fill="black" stroke="black" points="228.047,-754.23 235.633,-746.834 225.091,-747.885 228.047,-754.23"/>
<text text-anchor="middle" x="217.497" y="-774.8" font-family="Times New Roman,serif" font-size="14.00">(c:168,f:0)</text>
</g>
<!-- 44149&#45;&gt;50999 -->
<g id="edge25" class="edge"><title>44149&#45;&gt;50999</title>
<path fill="none" stroke="black" d="M107.131,-805.038C98.2216,-791.742 86.2403,-771.98 79.4971,-753 70.5372,-727.781 66.2662,-697.425 64.251,-676.037"/>
<polygon fill="black" stroke="black" points="67.7355,-675.705 63.411,-666.033 60.76,-676.291 67.7355,-675.705"/>
<text text-anchor="middle" x="104.997" y="-731.3" font-family="Times New Roman,serif" font-size="14.00">(c:97,f:0)</text>
</g>
<!-- 49090&#45;&gt;44149 -->
<g id="edge28" class="edge"><title>49090&#45;&gt;44149</title>
<path fill="none" stroke="black" d="M152.343,-1001.94C133.506,-986.094 105.195,-958.4 93.4971,-927 83.7713,-900.894 94.0305,-869.669 104.191,-848.29"/>
<polygon fill="black" stroke="black" points="107.391,-849.718 108.781,-839.214 101.145,-846.559 107.391,-849.718"/>
<text text-anchor="middle" x="122.497" y="-905.3" font-family="Times New Roman,serif" font-size="14.00">(c:123,f:0)</text>
</g>
<!-- 33699 -->
<g id="node14" class="node"><title>33699</title>
<ellipse fill="none" stroke="black" cx="192.497" cy="-909" rx="32.4942" ry="18"/>
<text text-anchor="middle" x="192.497" y="-905.3" font-family="Times New Roman,serif" font-size="14.00">33699</text>
</g>
<!-- 49090&#45;&gt;33699 -->
<g id="edge27" class="edge"><title>49090&#45;&gt;33699</title>
<path fill="none" stroke="black" d="M174.032,-998.969C177.512,-982.202 182.879,-956.341 186.932,-936.814"/>
<polygon fill="black" stroke="black" points="190.366,-937.491 188.971,-926.988 183.512,-936.069 190.366,-937.491"/>
<text text-anchor="middle" x="210.997" y="-959.3" font-family="Times New Roman,serif" font-size="14.00">(c:53,f:0)</text>
</g>
<!-- 33699&#45;&gt;44149 -->
<g id="edge20" class="edge"><title>33699&#45;&gt;44149</title>
<path fill="none" stroke="black" d="M178.924,-892.41C167.659,-879.469 151.47,-860.875 138.684,-846.188"/>
<polygon fill="black" stroke="black" points="141.19,-843.736 131.984,-838.491 135.91,-848.332 141.19,-843.736"/>
<text text-anchor="middle" x="189.497" y="-861.8" font-family="Times New Roman,serif" font-size="14.00">(c:116,f:0)</text>
</g>
<!-- 50999&#45;&gt;55129 -->
<g id="edge29" class="edge"><title>50999&#45;&gt;55129</title>
<path fill="none" stroke="black" d="M86.9473,-636.062C120.345,-621.121 180.393,-594.257 218.256,-577.319"/>
<polygon fill="black" stroke="black" points="220.141,-580.309 227.84,-573.031 217.282,-573.92 220.141,-580.309"/>
<text text-anchor="middle" x="198.497" y="-600.8" font-family="Times New Roman,serif" font-size="14.00">(c:179,f:0)</text>
</g>
<!-- 66119 -->
<g id="node17" class="node"><title>66119</title>
<ellipse fill="none" stroke="black" cx="32.4971" cy="-561" rx="32.4942" ry="18"/>
<text text-anchor="middle" x="32.4971" y="-557.3" font-family="Times New Roman,serif" font-size="14.00">66119</text>
</g>
<!-- 50999&#45;&gt;66119 -->
<g id="edge30" class="edge"><title>50999&#45;&gt;66119</title>
<path fill="none" stroke="black" d="M43.2254,-633.468C36.6282,-627.693 30.0253,-620.351 26.4971,-612 23.4561,-604.802 23.2698,-596.536 24.3155,-588.824"/>
<polygon fill="black" stroke="black" points="27.7899,-589.302 26.3528,-578.805 20.9303,-587.907 27.7899,-589.302"/>
<text text-anchor="middle" x="55.4971" y="-600.8" font-family="Times New Roman,serif" font-size="14.00">(c:283,f:0)</text>
</g>
<!-- 67659 -->
<g id="node18" class="node"><title>67659</title>
<ellipse fill="none" stroke="black" cx="251.497" cy="-453" rx="32.4942" ry="18"/>
<text text-anchor="middle" x="251.497" y="-449.3" font-family="Times New Roman,serif" font-size="14.00">67659</text>
</g>
<!-- 55129&#45;&gt;67659 -->
<g id="edge31" class="edge"><title>55129&#45;&gt;67659</title>
<path fill="none" stroke="black" d="M252.336,-542.969C252.18,-526.378 251.939,-500.883 251.756,-481.431"/>
<polygon fill="black" stroke="black" points="255.255,-481.307 251.661,-471.341 248.255,-481.373 255.255,-481.307"/>
<text text-anchor="middle" x="277.997" y="-503.3" font-family="Times New Roman,serif" font-size="14.00">(c:80,f:0)</text>
</g>
<!-- 55129&#45;&gt;68199 -->
<g id="edge32" class="edge"><title>55129&#45;&gt;68199</title>
<path fill="none" stroke="black" d="M278.108,-549.709C288.575,-544.078 299.594,-535.973 305.497,-525 331.397,-476.858 328.39,-451.642 305.497,-402 302.771,-396.088 298.499,-390.805 293.722,-386.245"/>
<polygon fill="black" stroke="black" points="295.852,-383.462 285.951,-379.689 291.338,-388.812 295.852,-383.462"/>
<text text-anchor="middle" x="349.997" y="-449.3" font-family="Times New Roman,serif" font-size="14.00">(c:83,f:0)</text>
</g>
<!-- 66119&#45;&gt;67659 -->
<g id="edge36" class="edge"><title>66119&#45;&gt;67659</title>
<path fill="none" stroke="black" d="M63.5463,-555.396C89.8017,-550.57 127.78,-541.347 157.497,-525 178.453,-513.472 178.514,-503.55 197.497,-489 205.116,-483.161 213.704,-477.298 221.751,-472.086"/>
<polygon fill="black" stroke="black" points="223.637,-475.035 230.201,-466.718 219.883,-469.126 223.637,-475.035"/>
<text text-anchor="middle" x="222.997" y="-503.3" font-family="Times New Roman,serif" font-size="14.00">(c:72,f:0)</text>
</g>
<!-- 67659&#45;&gt;68199 -->
<g id="edge37" class="edge"><title>67659&#45;&gt;68199</title>
<path fill="none" stroke="black" d="M251.606,-434.77C251.897,-425.082 252.653,-412.801 254.497,-402 254.96,-399.29 255.554,-396.491 256.222,-393.71"/>
<polygon fill="black" stroke="black" points="259.638,-394.484 258.858,-383.918 252.879,-392.664 259.638,-394.484"/>
<text text-anchor="middle" x="279.997" y="-405.8" font-family="Times New Roman,serif" font-size="14.00">(c:67,f:0)</text>
</g>
<!-- 67659&#45;&gt;76199 -->
<g id="edge38" class="edge"><title>67659&#45;&gt;76199</title>
<path fill="none" stroke="black" d="M277.098,-441.746C288.487,-436.011 301.176,-427.811 309.497,-417 334.397,-384.647 343.815,-337.189 347.365,-307.471"/>
<polygon fill="black" stroke="black" points="350.86,-307.697 348.425,-297.386 343.899,-306.965 350.86,-307.697"/>
<text text-anchor="middle" x="365.997" y="-362.3" font-family="Times New Roman,serif" font-size="14.00">(c:96,f:0)</text>
</g>
<!-- 68199&#45;&gt;76199 -->
<g id="edge39" class="edge"><title>68199&#45;&gt;76199</title>
<path fill="none" stroke="black" d="M266.226,-347.615C268.049,-337.162 271.797,-324.155 279.497,-315 287.985,-304.908 300.099,-297.438 311.868,-292.051"/>
<polygon fill="black" stroke="black" points="313.281,-295.254 321.158,-288.169 310.582,-288.796 313.281,-295.254"/>
<text text-anchor="middle" x="304.997" y="-318.8" font-family="Times New Roman,serif" font-size="14.00">(c:58,f:0)</text>
</g>
<!-- 70199 -->
<g id="node21" class="node"><title>70199</title>
<ellipse fill="none" stroke="black" cx="393.497" cy="-192" rx="32.4942" ry="18"/>
<text text-anchor="middle" x="393.497" y="-188.3" font-family="Times New Roman,serif" font-size="14.00">70199</text>
</g>
<!-- 76199&#45;&gt;70199 -->
<g id="edge41" class="edge"><title>76199&#45;&gt;70199</title>
<path fill="none" stroke="black" d="M357.981,-261.611C364.271,-249.46 372.967,-232.66 380.18,-218.725"/>
<polygon fill="black" stroke="black" points="383.401,-220.118 384.889,-209.629 377.184,-216.9 383.401,-220.118"/>
<text text-anchor="middle" x="403.497" y="-231.8" font-family="Times New Roman,serif" font-size="14.00">(c:81,f:81)</text>
</g>
<!-- 86199 -->
<g id="node22" class="node"><title>86199</title>
<ellipse fill="none" stroke="black" cx="417.497" cy="-105" rx="32.4942" ry="18"/>
<text text-anchor="middle" x="417.497" y="-101.3" font-family="Times New Roman,serif" font-size="14.00">86199</text>
</g>
<!-- 70199&#45;&gt;86199 -->
<g id="edge40" class="edge"><title>70199&#45;&gt;86199</title>
<path fill="none" stroke="black" d="M398.354,-173.799C401.694,-161.97 406.194,-146.03 409.993,-132.578"/>
<polygon fill="black" stroke="black" points="413.38,-133.46 412.729,-122.885 406.644,-131.558 413.38,-133.46"/>
<text text-anchor="middle" x="439.497" y="-144.8" font-family="Times New Roman,serif" font-size="14.00">(c:149,f:81)</text>
</g>
<!-- 86199&#45;&gt;80999 -->
<g id="edge42" class="edge"><title>86199&#45;&gt;80999</title>
<path fill="none" stroke="black" d="M419.744,-87.0012C421.59,-76.9377 424.854,-64.2034 430.497,-54 433.009,-49.4575 436.247,-45.0575 439.71,-40.9987"/>
<polygon fill="black" stroke="black" points="442.278,-43.3768 446.515,-33.666 437.147,-38.6152 442.278,-43.3768"/>
<text text-anchor="middle" x="459.497" y="-57.8" font-family="Times New Roman,serif" font-size="14.00">(c:81,f:81)</text>
</g>
</g>
</svg>
