<?xml version="1.0" encoding="UTF-8" standalone="no"?>
<!DOCTYPE svg PUBLIC "-//W3C//DTD SVG 1.1//EN"
 "http://www.w3.org/Graphics/SVG/1.1/DTD/svg11.dtd">
<!-- Generated by graphviz version 2.38.0 (20140413.2041)
 -->
<!-- Title: gerichtet Pages: 1 -->
<svg width="610pt" height="305pt"
 viewBox="0.00 0.00 610.20 305.00" xmlns="http://www.w3.org/2000/svg" xmlns:xlink="http://www.w3.org/1999/xlink">
<g id="graph0" class="graph" transform="scale(1 1) rotate(0) translate(4 301)">
<title>gerichtet</title>
<polygon fill="white" stroke="none" points="-4,4 -4,-301 606.196,-301 606.196,4 -4,4"/>
<!-- 22 -->
<g id="node1" class="node"><title>22</title>
<ellipse fill="none" stroke="black" cx="354.196" cy="-279" rx="27" ry="18"/>
<text text-anchor="middle" x="354.196" y="-275.3" font-family="Times New Roman,serif" font-size="14.00">22</text>
</g>
<!-- 41 -->
<g id="node2" class="node"><title>41</title>
<ellipse fill="none" stroke="black" cx="120.196" cy="-192" rx="27" ry="18"/>
<text text-anchor="middle" x="120.196" y="-188.3" font-family="Times New Roman,serif" font-size="14.00">41</text>
</g>
<!-- 22&#45;&gt;41 -->
<g id="edge1" class="edge"><title>22&#45;&gt;41</title>
<path fill="none" stroke="black" d="M330.903,-269.539C289.029,-254.328 200.938,-222.33 152.986,-204.911"/>
<polygon fill="black" stroke="black" points="153.988,-201.551 143.394,-201.427 151.598,-208.131 153.988,-201.551"/>
<text text-anchor="middle" x="274.196" y="-231.8" font-family="Times New Roman,serif" font-size="14.00">(c:1,f:1)</text>
</g>
<!-- 42 -->
<g id="node3" class="node"><title>42</title>
<ellipse fill="none" stroke="black" cx="287.196" cy="-192" rx="27" ry="18"/>
<text text-anchor="middle" x="287.196" y="-188.3" font-family="Times New Roman,serif" font-size="14.00">42</text>
</g>
<!-- 22&#45;&gt;42 -->
<g id="edge2" class="edge"><title>22&#45;&gt;42</title>
<path fill="none" stroke="black" d="M342.217,-262.804C332.086,-249.95 317.4,-231.319 305.748,-216.537"/>
<polygon fill="black" stroke="black" points="308.235,-214.038 299.296,-208.351 302.738,-218.372 308.235,-214.038"/>
<text text-anchor="middle" x="347.196" y="-231.8" font-family="Times New Roman,serif" font-size="14.00">(c:1,f:1)</text>
</g>
<!-- 43 -->
<g id="node4" class="node"><title>43</title>
<ellipse fill="none" stroke="black" cx="455.196" cy="-192" rx="27" ry="18"/>
<text text-anchor="middle" x="455.196" y="-188.3" font-family="Times New Roman,serif" font-size="14.00">43</text>
</g>
<!-- 22&#45;&gt;43 -->
<g id="edge3" class="edge"><title>22&#45;&gt;43</title>
<path fill="none" stroke="black" d="M370.423,-264.343C386.841,-250.526 412.41,-229.008 431.176,-213.214"/>
<polygon fill="black" stroke="black" points="433.611,-215.74 439.009,-206.623 429.104,-210.384 433.611,-215.74"/>
<text text-anchor="middle" x="432.196" y="-231.8" font-family="Times New Roman,serif" font-size="14.00">(c:1,f:1)</text>
</g>
<!-- 44 -->
<g id="node5" class="node"><title>44</title>
<ellipse fill="none" stroke="black" cx="558.196" cy="-192" rx="27" ry="18"/>
<text text-anchor="middle" x="558.196" y="-188.3" font-family="Times New Roman,serif" font-size="14.00">44</text>
</g>
<!-- 22&#45;&gt;44 -->
<g id="edge4" class="edge"><title>22&#45;&gt;44</title>
<path fill="none" stroke="black" d="M378.504,-270.87C399.808,-264.374 431.459,-254.12 458.196,-243 482.531,-232.879 509.183,-219.428 528.849,-209.027"/>
<polygon fill="black" stroke="black" points="530.728,-211.992 537.901,-204.194 527.431,-205.817 530.728,-211.992"/>
<text text-anchor="middle" x="510.196" y="-231.8" font-family="Times New Roman,serif" font-size="14.00">(c:1,f:1)</text>
</g>
<!-- 61 -->
<g id="node6" class="node"><title>61</title>
<ellipse fill="none" stroke="black" cx="388.196" cy="-105" rx="27" ry="18"/>
<text text-anchor="middle" x="388.196" y="-101.3" font-family="Times New Roman,serif" font-size="14.00">61</text>
</g>
<!-- 41&#45;&gt;61 -->
<g id="edge5" class="edge"><title>41&#45;&gt;61</title>
<path fill="none" stroke="black" d="M147.184,-189.677C183.312,-187.041 248.699,-179.201 299.196,-156 308.972,-151.508 309.114,-146.769 318.196,-141 330.442,-133.22 344.651,-125.841 357.055,-119.882"/>
<polygon fill="black" stroke="black" points="358.564,-123.04 366.126,-115.618 355.586,-116.705 358.564,-123.04"/>
<text text-anchor="middle" x="340.196" y="-144.8" font-family="Times New Roman,serif" font-size="14.00">(c:1,f:0)</text>
</g>
<!-- 62 -->
<g id="node7" class="node"><title>62</title>
<ellipse fill="none" stroke="black" cx="254.196" cy="-105" rx="27" ry="18"/>
<text text-anchor="middle" x="254.196" y="-101.3" font-family="Times New Roman,serif" font-size="14.00">62</text>
</g>
<!-- 41&#45;&gt;62 -->
<g id="edge6" class="edge"><title>41&#45;&gt;62</title>
<path fill="none" stroke="black" d="M124.92,-174.255C128.87,-163.241 135.597,-149.365 146.196,-141 172.088,-120.565 187.133,-134.096 218.196,-123 220.051,-122.337 221.939,-121.612 223.83,-120.845"/>
<polygon fill="black" stroke="black" points="225.399,-123.979 233.167,-116.774 222.602,-117.562 225.399,-123.979"/>
<text text-anchor="middle" x="168.196" y="-144.8" font-family="Times New Roman,serif" font-size="14.00">(c:1,f:0)</text>
</g>
<!-- 63 -->
<g id="node8" class="node"><title>63</title>
<ellipse fill="none" stroke="black" cx="182.196" cy="-105" rx="27" ry="18"/>
<text text-anchor="middle" x="182.196" y="-101.3" font-family="Times New Roman,serif" font-size="14.00">63</text>
</g>
<!-- 41&#45;&gt;63 -->
<g id="edge7" class="edge"><title>41&#45;&gt;63</title>
<path fill="none" stroke="black" d="M96.0909,-183.839C71.7668,-175.361 39.7174,-159.969 54.1957,-141 65.3114,-126.437 112.021,-116.46 145.807,-110.991"/>
<polygon fill="black" stroke="black" points="146.478,-114.429 155.824,-109.439 145.406,-107.512 146.478,-114.429"/>
<text text-anchor="middle" x="76.1957" y="-144.8" font-family="Times New Roman,serif" font-size="14.00">(c:1,f:0)</text>
</g>
<!-- 64 -->
<g id="node9" class="node"><title>64</title>
<ellipse fill="none" stroke="black" cx="48.1957" cy="-105" rx="27" ry="18"/>
<text text-anchor="middle" x="48.1957" y="-101.3" font-family="Times New Roman,serif" font-size="14.00">64</text>
</g>
<!-- 41&#45;&gt;64 -->
<g id="edge8" class="edge"><title>41&#45;&gt;64</title>
<path fill="none" stroke="black" d="M93.009,-191.462C65.369,-190.288 23.7726,-183.633 3.1957,-156 -5.6995,-144.054 5.43568,-131.602 18.8518,-122.112"/>
<polygon fill="black" stroke="black" points="20.848,-124.99 27.3412,-116.618 17.0444,-119.113 20.848,-124.99"/>
<text text-anchor="middle" x="25.1957" y="-144.8" font-family="Times New Roman,serif" font-size="14.00">(c:1,f:1)</text>
</g>
<!-- 42&#45;&gt;61 -->
<g id="edge9" class="edge"><title>42&#45;&gt;61</title>
<path fill="none" stroke="black" d="M312.389,-185.001C329.445,-179.813 351.47,-170.763 366.196,-156 372.646,-149.533 377.357,-140.855 380.724,-132.545"/>
<polygon fill="black" stroke="black" points="384.025,-133.708 384.083,-123.113 377.431,-131.359 384.025,-133.708"/>
<text text-anchor="middle" x="398.196" y="-144.8" font-family="Times New Roman,serif" font-size="14.00">(c:1,f:0)</text>
</g>
<!-- 42&#45;&gt;62 -->
<g id="edge10" class="edge"><title>42&#45;&gt;62</title>
<path fill="none" stroke="black" d="M270.448,-177.379C264.479,-171.497 258.435,-164.104 255.196,-156 252.392,-148.986 251.378,-140.965 251.262,-133.431"/>
<polygon fill="black" stroke="black" points="254.765,-133.372 251.602,-123.261 247.769,-133.138 254.765,-133.372"/>
<text text-anchor="middle" x="277.196" y="-144.8" font-family="Times New Roman,serif" font-size="14.00">(c:1,f:0)</text>
</g>
<!-- 42&#45;&gt;63 -->
<g id="edge11" class="edge"><title>42&#45;&gt;63</title>
<path fill="none" stroke="black" d="M261.891,-185.629C243.826,-180.645 220.019,-171.581 204.196,-156 197.687,-149.591 192.962,-140.928 189.6,-132.613"/>
<polygon fill="black" stroke="black" points="192.892,-131.425 186.253,-123.168 186.294,-133.763 192.892,-131.425"/>
<text text-anchor="middle" x="226.196" y="-144.8" font-family="Times New Roman,serif" font-size="14.00">(c:1,f:1)</text>
</g>
<!-- 43&#45;&gt;61 -->
<g id="edge12" class="edge"><title>43&#45;&gt;61</title>
<path fill="none" stroke="black" d="M476.008,-180.414C492.4,-170.641 510.849,-155.49 500.196,-141 483.227,-117.919 451.104,-109.634 425.597,-106.855"/>
<polygon fill="black" stroke="black" points="425.749,-103.355 415.488,-105.995 425.156,-110.33 425.749,-103.355"/>
<text text-anchor="middle" x="525.196" y="-144.8" font-family="Times New Roman,serif" font-size="14.00">(c:1,f:0)</text>
</g>
<!-- 43&#45;&gt;62 -->
<g id="edge13" class="edge"><title>43&#45;&gt;62</title>
<path fill="none" stroke="black" d="M448.875,-174.066C443.858,-162.967 435.753,-149.068 424.196,-141 418.685,-137.154 338.289,-121.669 290.061,-112.637"/>
<polygon fill="black" stroke="black" points="290.479,-109.154 280.006,-110.76 289.194,-116.035 290.479,-109.154"/>
<text text-anchor="middle" x="460.196" y="-144.8" font-family="Times New Roman,serif" font-size="14.00">(c:1,f:1)</text>
</g>
<!-- 44&#45;&gt;61 -->
<g id="edge14" class="edge"><title>44&#45;&gt;61</title>
<path fill="none" stroke="black" d="M560.392,-173.616C560.738,-162.897 559.195,-149.6 551.196,-141 534.397,-122.938 467.71,-113.412 425.014,-109.062"/>
<polygon fill="black" stroke="black" points="425.274,-105.571 414.983,-108.09 424.599,-112.539 425.274,-105.571"/>
<text text-anchor="middle" x="580.196" y="-144.8" font-family="Times New Roman,serif" font-size="14.00">(c:1,f:1)</text>
</g>
<!-- 88 -->
<g id="node10" class="node"><title>88</title>
<ellipse fill="none" stroke="black" cx="217.196" cy="-18" rx="27" ry="18"/>
<text text-anchor="middle" x="217.196" y="-14.3" font-family="Times New Roman,serif" font-size="14.00">88</text>
</g>
<!-- 61&#45;&gt;88 -->
<g id="edge15" class="edge"><title>61&#45;&gt;88</title>
<path fill="none" stroke="black" d="M367.228,-93.5773C337.229,-78.6655 281.89,-51.1578 247.455,-34.0411"/>
<polygon fill="black" stroke="black" points="248.848,-30.825 238.335,-29.5079 245.732,-37.0933 248.848,-30.825"/>
<text text-anchor="middle" x="335.196" y="-57.8" font-family="Times New Roman,serif" font-size="14.00">(c:1,f:1)</text>
</g>
<!-- 62&#45;&gt;88 -->
<g id="edge16" class="edge"><title>62&#45;&gt;88</title>
<path fill="none" stroke="black" d="M247.062,-87.6111C241.823,-75.577 234.6,-58.9825 228.569,-45.1281"/>
<polygon fill="black" stroke="black" points="231.634,-43.4006 224.434,-35.6286 225.216,-46.1945 231.634,-43.4006"/>
<text text-anchor="middle" x="260.196" y="-57.8" font-family="Times New Roman,serif" font-size="14.00">(c:1,f:1)</text>
</g>
<!-- 63&#45;&gt;88 -->
<g id="edge17" class="edge"><title>63&#45;&gt;88</title>
<path fill="none" stroke="black" d="M180.922,-86.6924C180.831,-76.7565 181.831,-64.2565 186.196,-54 188.249,-49.1755 191.239,-44.5574 194.564,-40.3486"/>
<polygon fill="black" stroke="black" points="197.22,-42.6282 201.209,-32.813 191.97,-37.9983 197.22,-42.6282"/>
<text text-anchor="middle" x="208.196" y="-57.8" font-family="Times New Roman,serif" font-size="14.00">(c:1,f:1)</text>
</g>
<!-- 64&#45;&gt;88 -->
<g id="edge18" class="edge"><title>64&#45;&gt;88</title>
<path fill="none" stroke="black" d="M67.2758,-91.9608C84.4512,-81.3535 110.552,-65.7982 134.196,-54 150.495,-45.8665 169.146,-37.8883 184.634,-31.6081"/>
<polygon fill="black" stroke="black" points="186.314,-34.7058 194.298,-27.7417 183.713,-28.2067 186.314,-34.7058"/>
<text text-anchor="middle" x="156.196" y="-57.8" font-family="Times New Roman,serif" font-size="14.00">(c:1,f:1)</text>
</g>
</g>
</svg>
