<?xml version="1.0" encoding="UTF-8" standalone="no"?>
<!DOCTYPE svg PUBLIC "-//W3C//DTD SVG 1.1//EN"
 "http://www.w3.org/Graphics/SVG/1.1/DTD/svg11.dtd">
<!-- Generated by graphviz version 2.38.0 (20140413.2041)
 -->
<!-- Title: gerichtet Pages: 1 -->
<svg width="277pt" height="479pt"
 viewBox="0.00 0.00 277.00 479.00" xmlns="http://www.w3.org/2000/svg" xmlns:xlink="http://www.w3.org/1999/xlink">
<g id="graph0" class="graph" transform="scale(1 1) rotate(0) translate(4 475)">
<title>gerichtet</title>
<polygon fill="white" stroke="none" points="-4,4 -4,-475 273,-475 273,4 -4,4"/>
<!-- 1 -->
<g id="node1" class="node"><title>1</title>
<ellipse fill="none" stroke="black" cx="194" cy="-453" rx="27" ry="18"/>
<text text-anchor="middle" x="194" y="-449.3" font-family="Times New Roman,serif" font-size="14.00">1</text>
</g>
<!-- 2 -->
<g id="node2" class="node"><title>2</title>
<ellipse fill="none" stroke="black" cx="155" cy="-366" rx="27" ry="18"/>
<text text-anchor="middle" x="155" y="-362.3" font-family="Times New Roman,serif" font-size="14.00">2</text>
</g>
<!-- 1&#45;&gt;2 -->
<g id="edge1" class="edge"><title>1&#45;&gt;2</title>
<path fill="none" stroke="black" d="M181.315,-436.699C176.927,-430.821 172.29,-423.87 169,-417 165.574,-409.845 162.849,-401.701 160.748,-394.094"/>
<polygon fill="black" stroke="black" points="164.092,-393.042 158.262,-384.195 157.303,-394.746 164.092,-393.042"/>
<text text-anchor="middle" x="191" y="-405.8" font-family="Times New Roman,serif" font-size="14.00">(c:3,f:2)</text>
</g>
<!-- 4 -->
<g id="node3" class="node"><title>4</title>
<ellipse fill="none" stroke="black" cx="153" cy="-192" rx="27" ry="18"/>
<text text-anchor="middle" x="153" y="-188.3" font-family="Times New Roman,serif" font-size="14.00">4</text>
</g>
<!-- 1&#45;&gt;4 -->
<g id="edge2" class="edge"><title>1&#45;&gt;4</title>
<path fill="none" stroke="black" d="M204.672,-436.315C208.027,-430.508 211.298,-423.701 213,-417 222.989,-377.661 281,-476.662 202,-261 195.8,-244.076 184.128,-227.609 173.731,-215.12"/>
<polygon fill="black" stroke="black" points="176.345,-212.791 167.153,-207.522 171.053,-217.373 176.345,-212.791"/>
<text text-anchor="middle" x="247" y="-318.8" font-family="Times New Roman,serif" font-size="14.00">(c:2,f:2)</text>
</g>
<!-- 3 -->
<g id="node4" class="node"><title>3</title>
<ellipse fill="none" stroke="black" cx="71" cy="-279" rx="27" ry="18"/>
<text text-anchor="middle" x="71" y="-275.3" font-family="Times New Roman,serif" font-size="14.00">3</text>
</g>
<!-- 2&#45;&gt;3 -->
<g id="edge3" class="edge"><title>2&#45;&gt;3</title>
<path fill="none" stroke="black" d="M132.884,-355.306C121.124,-349.315 107.06,-340.72 97,-330 90.5514,-323.129 85.2749,-314.351 81.2013,-306.073"/>
<polygon fill="black" stroke="black" points="84.285,-304.398 76.9737,-296.73 77.9075,-307.284 84.285,-304.398"/>
<text text-anchor="middle" x="119" y="-318.8" font-family="Times New Roman,serif" font-size="14.00">(c:2,f:2)</text>
</g>
<!-- 4&#45;&gt;2 -->
<g id="edge6" class="edge"><title>4&#45;&gt;2</title>
<path fill="none" stroke="black" d="M153.198,-210.052C153.545,-239.88 154.265,-301.764 154.682,-337.643"/>
<polygon fill="black" stroke="black" points="151.185,-337.921 154.801,-347.879 158.184,-337.839 151.185,-337.921"/>
<text text-anchor="middle" x="176" y="-275.3" font-family="Times New Roman,serif" font-size="14.00">(c:2,f:0)</text>
</g>
<!-- 5 -->
<g id="node6" class="node"><title>5</title>
<ellipse fill="none" stroke="black" cx="63" cy="-105" rx="27" ry="18"/>
<text text-anchor="middle" x="63" y="-101.3" font-family="Times New Roman,serif" font-size="14.00">5</text>
</g>
<!-- 4&#45;&gt;5 -->
<g id="edge7" class="edge"><title>4&#45;&gt;5</title>
<path fill="none" stroke="black" d="M138.138,-176.964C123.808,-163.43 101.93,-142.768 85.4715,-127.223"/>
<polygon fill="black" stroke="black" points="87.5571,-124.379 77.8837,-120.057 82.7507,-129.468 87.5571,-124.379"/>
<text text-anchor="middle" x="135" y="-144.8" font-family="Times New Roman,serif" font-size="14.00">(c:2,f:2)</text>
</g>
<!-- 3&#45;&gt;4 -->
<g id="edge4" class="edge"><title>3&#45;&gt;4</title>
<path fill="none" stroke="black" d="M77.0248,-261.318C81.3965,-250.878 88.1031,-237.63 97,-228 104.236,-220.168 113.604,-213.408 122.602,-207.974"/>
<polygon fill="black" stroke="black" points="124.413,-210.971 131.383,-202.991 120.958,-204.882 124.413,-210.971"/>
<text text-anchor="middle" x="119" y="-231.8" font-family="Times New Roman,serif" font-size="14.00">(c:1,f:0)</text>
</g>
<!-- 6 -->
<g id="node5" class="node"><title>6</title>
<ellipse fill="none" stroke="black" cx="27" cy="-18" rx="27" ry="18"/>
<text text-anchor="middle" x="27" y="-14.3" font-family="Times New Roman,serif" font-size="14.00">6</text>
</g>
<!-- 3&#45;&gt;6 -->
<g id="edge5" class="edge"><title>3&#45;&gt;6</title>
<path fill="none" stroke="black" d="M61.3908,-262.158C48.3037,-239.563 25.5282,-196.338 17,-156 9.03917,-118.346 15.0894,-73.7215 20.6493,-45.879"/>
<polygon fill="black" stroke="black" points="24.0767,-46.5877 22.7259,-36.0793 17.2288,-45.1365 24.0767,-46.5877"/>
<text text-anchor="middle" x="39" y="-144.8" font-family="Times New Roman,serif" font-size="14.00">(c:2,f:2)</text>
</g>
<!-- 5&#45;&gt;3 -->
<g id="edge8" class="edge"><title>5&#45;&gt;3</title>
<path fill="none" stroke="black" d="M63.7931,-123.052C65.1805,-152.88 68.0588,-214.764 69.7276,-250.643"/>
<polygon fill="black" stroke="black" points="66.2428,-251.053 70.2037,-260.879 73.2352,-250.727 66.2428,-251.053"/>
<text text-anchor="middle" x="90" y="-188.3" font-family="Times New Roman,serif" font-size="14.00">(c:1,f:0)</text>
</g>
<!-- 5&#45;&gt;6 -->
<g id="edge9" class="edge"><title>5&#45;&gt;6</title>
<path fill="none" stroke="black" d="M55.8876,-87.2067C50.776,-75.1377 43.788,-58.6384 37.9654,-44.8906"/>
<polygon fill="black" stroke="black" points="41.098,-43.3123 33.9752,-35.4692 34.6523,-46.0423 41.098,-43.3123"/>
<text text-anchor="middle" x="70" y="-57.8" font-family="Times New Roman,serif" font-size="14.00">(c:4,f:2)</text>
</g>
</g>
</svg>
