<?xml version="1.0" encoding="UTF-8" standalone="no"?>
<!DOCTYPE svg PUBLIC "-//W3C//DTD SVG 1.1//EN"
 "http://www.w3.org/Graphics/SVG/1.1/DTD/svg11.dtd">
<!-- Generated by graphviz version 2.38.0 (20140413.2041)
 -->
<!-- Title: gerichtet Pages: 1 -->
<svg width="1127pt" height="827pt"
 viewBox="0.00 0.00 1127.00 827.00" xmlns="http://www.w3.org/2000/svg" xmlns:xlink="http://www.w3.org/1999/xlink">
<g id="graph0" class="graph" transform="scale(1 1) rotate(0) translate(4 823)">
<title>gerichtet</title>
<polygon fill="white" stroke="none" points="-4,4 -4,-823 1123,-823 1123,4 -4,4"/>
<!-- 1 -->
<g id="node1" class="node"><title>1</title>
<ellipse fill="none" stroke="black" cx="496" cy="-801" rx="27" ry="18"/>
<text text-anchor="middle" x="496" y="-797.3" font-family="Times New Roman,serif" font-size="14.00">1</text>
</g>
<!-- 2 -->
<g id="node2" class="node"><title>2</title>
<ellipse fill="none" stroke="black" cx="588" cy="-714" rx="27" ry="18"/>
<text text-anchor="middle" x="588" y="-710.3" font-family="Times New Roman,serif" font-size="14.00">2</text>
</g>
<!-- 1&#45;&gt;2 -->
<g id="edge1" class="edge"><title>1&#45;&gt;2</title>
<path fill="none" stroke="black" d="M511.192,-785.964C525.841,-772.43 548.205,-751.768 565.029,-736.223"/>
<polygon fill="black" stroke="black" points="567.816,-738.414 572.786,-729.057 563.065,-733.272 567.816,-738.414"/>
<text text-anchor="middle" x="569" y="-753.8" font-family="Times New Roman,serif" font-size="14.00">(c:1,f:1)</text>
</g>
<!-- 3 -->
<g id="node3" class="node"><title>3</title>
<ellipse fill="none" stroke="black" cx="511" cy="-627" rx="27" ry="18"/>
<text text-anchor="middle" x="511" y="-623.3" font-family="Times New Roman,serif" font-size="14.00">3</text>
</g>
<!-- 1&#45;&gt;3 -->
<g id="edge2" class="edge"><title>1&#45;&gt;3</title>
<path fill="none" stroke="black" d="M497.493,-782.879C500.099,-753.001 505.496,-691.113 508.621,-655.274"/>
<polygon fill="black" stroke="black" points="512.131,-655.318 509.513,-645.052 505.157,-654.71 512.131,-655.318"/>
<text text-anchor="middle" x="526" y="-710.3" font-family="Times New Roman,serif" font-size="14.00">(c:1,f:1)</text>
</g>
<!-- 4 -->
<g id="node4" class="node"><title>4</title>
<ellipse fill="none" stroke="black" cx="511" cy="-540" rx="27" ry="18"/>
<text text-anchor="middle" x="511" y="-536.3" font-family="Times New Roman,serif" font-size="14.00">4</text>
</g>
<!-- 1&#45;&gt;4 -->
<g id="edge3" class="edge"><title>1&#45;&gt;4</title>
<path fill="none" stroke="black" d="M469.348,-797.676C388.778,-789.565 157.047,-757.654 220,-663 277.475,-576.583 409.255,-551.256 473.883,-543.927"/>
<polygon fill="black" stroke="black" points="474.447,-547.387 484.028,-542.863 473.717,-540.426 474.447,-547.387"/>
<text text-anchor="middle" x="242" y="-666.8" font-family="Times New Roman,serif" font-size="14.00">(c:1,f:1)</text>
</g>
<!-- 5 -->
<g id="node5" class="node"><title>5</title>
<ellipse fill="none" stroke="black" cx="743" cy="-453" rx="27" ry="18"/>
<text text-anchor="middle" x="743" y="-449.3" font-family="Times New Roman,serif" font-size="14.00">5</text>
</g>
<!-- 1&#45;&gt;5 -->
<g id="edge4" class="edge"><title>1&#45;&gt;5</title>
<path fill="none" stroke="black" d="M522.389,-796.493C607.019,-784.654 868.961,-743.224 918,-678 932.348,-658.916 987.776,-656.378 876,-522 850.521,-491.37 807.723,-473.013 777.57,-463.23"/>
<polygon fill="black" stroke="black" points="778.459,-459.842 767.872,-460.236 776.394,-466.53 778.459,-459.842"/>
<text text-anchor="middle" x="966" y="-623.3" font-family="Times New Roman,serif" font-size="14.00">(c:1,f:1)</text>
</g>
<!-- 6 -->
<g id="node6" class="node"><title>6</title>
<ellipse fill="none" stroke="black" cx="740" cy="-366" rx="27" ry="18"/>
<text text-anchor="middle" x="740" y="-362.3" font-family="Times New Roman,serif" font-size="14.00">6</text>
</g>
<!-- 1&#45;&gt;6 -->
<g id="edge5" class="edge"><title>1&#45;&gt;6</title>
<path fill="none" stroke="black" d="M522.808,-798.534C629.996,-792.322 1022,-766.109 1022,-715 1022,-715 1022,-715 1022,-539 1022,-477.581 981.795,-469.527 931,-435 917.593,-425.887 824.576,-394.677 773.467,-377.891"/>
<polygon fill="black" stroke="black" points="774.432,-374.525 763.84,-374.737 772.253,-381.177 774.432,-374.525"/>
<text text-anchor="middle" x="1044" y="-579.8" font-family="Times New Roman,serif" font-size="14.00">(c:2,f:2)</text>
</g>
<!-- 7 -->
<g id="node7" class="node"><title>7</title>
<ellipse fill="none" stroke="black" cx="773" cy="-279" rx="27" ry="18"/>
<text text-anchor="middle" x="773" y="-275.3" font-family="Times New Roman,serif" font-size="14.00">7</text>
</g>
<!-- 1&#45;&gt;7 -->
<g id="edge6" class="edge"><title>1&#45;&gt;7</title>
<path fill="none" stroke="black" d="M523.036,-799.995C591.41,-799.51 776.488,-795.262 927,-765 973.298,-755.691 995.383,-766.151 1028,-732 1150.37,-603.878 1050.05,-469.385 921,-348 888.754,-317.669 840.597,-299.005 808.05,-289.081"/>
<polygon fill="black" stroke="black" points="808.651,-285.61 798.071,-286.162 806.686,-292.329 808.651,-285.61"/>
<text text-anchor="middle" x="1097" y="-536.3" font-family="Times New Roman,serif" font-size="14.00">(c:2,f:2)</text>
</g>
<!-- 8 -->
<g id="node8" class="node"><title>8</title>
<ellipse fill="none" stroke="black" cx="401" cy="-192" rx="27" ry="18"/>
<text text-anchor="middle" x="401" y="-188.3" font-family="Times New Roman,serif" font-size="14.00">8</text>
</g>
<!-- 1&#45;&gt;8 -->
<g id="edge7" class="edge"><title>1&#45;&gt;8</title>
<path fill="none" stroke="black" d="M468.864,-799.484C384.274,-797.152 131,-784.374 131,-715 131,-715 131,-715 131,-278 131,-229.755 289.825,-205.515 363.847,-196.837"/>
<polygon fill="black" stroke="black" points="364.584,-200.276 374.124,-195.668 363.793,-193.32 364.584,-200.276"/>
<text text-anchor="middle" x="153" y="-492.8" font-family="Times New Roman,serif" font-size="14.00">(c:1,f:1)</text>
</g>
<!-- 9 -->
<g id="node9" class="node"><title>9</title>
<ellipse fill="none" stroke="black" cx="502" cy="-105" rx="27" ry="18"/>
<text text-anchor="middle" x="502" y="-101.3" font-family="Times New Roman,serif" font-size="14.00">9</text>
</g>
<!-- 1&#45;&gt;9 -->
<g id="edge8" class="edge"><title>1&#45;&gt;9</title>
<path fill="none" stroke="black" d="M468.993,-800.518C373.718,-801.632 59,-798.956 59,-715 59,-715 59,-715 59,-191 59,-98.425 382.305,-152.661 470,-123 471.043,-122.647 472.093,-122.263 473.144,-121.854"/>
<polygon fill="black" stroke="black" points="474.797,-124.948 482.476,-117.648 471.921,-118.566 474.797,-124.948"/>
<text text-anchor="middle" x="81" y="-449.3" font-family="Times New Roman,serif" font-size="14.00">(c:1,f:1)</text>
</g>
<!-- 10 -->
<g id="node10" class="node"><title>10</title>
<ellipse fill="none" stroke="black" cx="502" cy="-18" rx="27" ry="18"/>
<text text-anchor="middle" x="502" y="-14.3" font-family="Times New Roman,serif" font-size="14.00">10</text>
</g>
<!-- 1&#45;&gt;10 -->
<g id="edge9" class="edge"><title>1&#45;&gt;10</title>
<path fill="none" stroke="black" d="M468.897,-799.405C388.387,-797.374 151.744,-789.43 79,-765 39.6094,-751.771 0,-756.553 0,-715 0,-715 0,-715 0,-104 0,-56.8555 348.632,-29.2562 464.825,-21.367"/>
<polygon fill="black" stroke="black" points="465.266,-24.8454 475.01,-20.6857 464.799,-17.861 465.266,-24.8454"/>
<text text-anchor="middle" x="22" y="-405.8" font-family="Times New Roman,serif" font-size="14.00">(c:1,f:1)</text>
</g>
<!-- 2&#45;&gt;3 -->
<g id="edge10" class="edge"><title>2&#45;&gt;3</title>
<path fill="none" stroke="black" d="M565.381,-703.751C553.469,-697.896 539.42,-689.286 530,-678 524.477,-671.383 520.462,-662.992 517.586,-654.983"/>
<polygon fill="black" stroke="black" points="520.853,-653.703 514.526,-645.205 514.173,-655.794 520.853,-653.703"/>
<text text-anchor="middle" x="552" y="-666.8" font-family="Times New Roman,serif" font-size="14.00">(c:2,f:0)</text>
</g>
<!-- 2&#45;&gt;4 -->
<g id="edge11" class="edge"><title>2&#45;&gt;4</title>
<path fill="none" stroke="black" d="M588.187,-695.943C587.706,-668.486 583.448,-613.752 559,-576 554.349,-568.818 547.671,-562.614 540.768,-557.51"/>
<polygon fill="black" stroke="black" points="542.291,-554.317 532.04,-551.642 538.385,-560.126 542.291,-554.317"/>
<text text-anchor="middle" x="605" y="-623.3" font-family="Times New Roman,serif" font-size="14.00">(c:2,f:0)</text>
</g>
<!-- 2&#45;&gt;5 -->
<g id="edge12" class="edge"><title>2&#45;&gt;5</title>
<path fill="none" stroke="black" d="M605.647,-699.955C636.778,-675.835 700.905,-620.941 730,-558 741.234,-533.697 743.849,-502.974 744.041,-481.24"/>
<polygon fill="black" stroke="black" points="747.54,-481.04 743.961,-471.068 740.54,-481.095 747.54,-481.04"/>
<text text-anchor="middle" x="741" y="-579.8" font-family="Times New Roman,serif" font-size="14.00">(c:2,f:0)</text>
</g>
<!-- 2&#45;&gt;6 -->
<g id="edge13" class="edge"><title>2&#45;&gt;6</title>
<path fill="none" stroke="black" d="M614.141,-709.416C676.344,-700.159 828,-672.976 828,-628 828,-628 828,-628 828,-452 828,-419.462 796.49,-395.428 771.18,-381.373"/>
<polygon fill="black" stroke="black" points="772.685,-378.21 762.206,-376.649 769.425,-384.404 772.685,-378.21"/>
<text text-anchor="middle" x="850" y="-536.3" font-family="Times New Roman,serif" font-size="14.00">(c:2,f:0)</text>
</g>
<!-- 2&#45;&gt;7 -->
<g id="edge14" class="edge"><title>2&#45;&gt;7</title>
<path fill="none" stroke="black" d="M615.151,-712.193C655.289,-710.161 732.161,-703.025 792,-678 815.213,-668.292 821.415,-663.922 838,-645 895.797,-579.058 909.695,-556.059 931,-471 950.184,-394.409 912.275,-357.918 846,-315 833.089,-306.639 817.876,-299.031 804.689,-293.059"/>
<polygon fill="black" stroke="black" points="806.069,-289.842 795.506,-289.013 803.246,-296.248 806.069,-289.842"/>
<text text-anchor="middle" x="948" y="-492.8" font-family="Times New Roman,serif" font-size="14.00">(c:2,f:0)</text>
</g>
<!-- 2&#45;&gt;8 -->
<g id="edge15" class="edge"><title>2&#45;&gt;8</title>
<path fill="none" stroke="black" d="M566.581,-702.898C548.89,-694.498 525.24,-683.118 516,-678 393.954,-610.394 322.506,-603.887 280,-471 263.258,-418.659 227.988,-367.561 292,-261 308.831,-232.981 342.112,-214.757 367.493,-204.296"/>
<polygon fill="black" stroke="black" points="369.083,-207.433 377.126,-200.536 366.538,-200.912 369.083,-207.433"/>
<text text-anchor="middle" x="302" y="-449.3" font-family="Times New Roman,serif" font-size="14.00">(c:1,f:0)</text>
</g>
<!-- 2&#45;&gt;9 -->
<g id="edge16" class="edge"><title>2&#45;&gt;9</title>
<path fill="none" stroke="black" d="M566.948,-702.29C562.107,-700.044 556.931,-697.81 552,-696 477.55,-668.67 448.764,-686.205 381,-645 264.311,-574.046 221.892,-545.265 175,-417 120.174,-267.031 263.366,-214.732 405,-141 431.589,-127.158 442.154,-134.098 470,-123 470.869,-122.654 471.746,-122.29 472.625,-121.912"/>
<polygon fill="black" stroke="black" points="474.46,-124.916 482.003,-117.477 471.467,-118.589 474.46,-124.916"/>
<text text-anchor="middle" x="197" y="-405.8" font-family="Times New Roman,serif" font-size="14.00">(c:1,f:0)</text>
</g>
<!-- 2&#45;&gt;10 -->
<g id="edge17" class="edge"><title>2&#45;&gt;10</title>
<path fill="none" stroke="black" d="M615.167,-712.971C659.631,-712.046 749.999,-706.449 820,-678 843.31,-668.527 847.932,-662.511 866,-645 981.921,-532.656 1035,-484.928 1035,-323.5 1035,-323.5 1035,-323.5 1035,-104 1035,-53.6884 659.866,-27.969 539.026,-20.9893"/>
<polygon fill="black" stroke="black" points="538.979,-17.4811 528.797,-20.4084 538.582,-24.4698 538.979,-17.4811"/>
<text text-anchor="middle" x="1056" y="-362.3" font-family="Times New Roman,serif" font-size="14.00">(c:2,f:1)</text>
</g>
<!-- 3&#45;&gt;4 -->
<g id="edge18" class="edge"><title>3&#45;&gt;4</title>
<path fill="none" stroke="black" d="M511,-608.799C511,-597.163 511,-581.548 511,-568.237"/>
<polygon fill="black" stroke="black" points="514.5,-568.175 511,-558.175 507.5,-568.175 514.5,-568.175"/>
<text text-anchor="middle" x="533" y="-579.8" font-family="Times New Roman,serif" font-size="14.00">(c:1,f:0)</text>
</g>
<!-- 3&#45;&gt;5 -->
<g id="edge19" class="edge"><title>3&#45;&gt;5</title>
<path fill="none" stroke="black" d="M535.489,-618.936C546.352,-615.835 559.299,-612.183 571,-609 601.581,-600.68 614.187,-609.389 640,-591 670.019,-569.615 662.25,-550.185 686,-522 693.496,-513.105 697.233,-512.659 705,-504 712.317,-495.843 719.745,-486.385 726.07,-477.904"/>
<polygon fill="black" stroke="black" points="728.896,-479.969 731.982,-469.833 723.249,-475.832 728.896,-479.969"/>
<text text-anchor="middle" x="708" y="-536.3" font-family="Times New Roman,serif" font-size="14.00">(c:2,f:0)</text>
</g>
<!-- 3&#45;&gt;6 -->
<g id="edge20" class="edge"><title>3&#45;&gt;6</title>
<path fill="none" stroke="black" d="M529.914,-613.543C539.04,-607.203 549.946,-599.132 559,-591 629.67,-527.528 695.135,-434.894 724.198,-391.341"/>
<polygon fill="black" stroke="black" points="727.237,-393.091 729.836,-382.82 721.399,-389.229 727.237,-393.091"/>
<text text-anchor="middle" x="673" y="-492.8" font-family="Times New Roman,serif" font-size="14.00">(c:1,f:0)</text>
</g>
<!-- 3&#45;&gt;7 -->
<g id="edge21" class="edge"><title>3&#45;&gt;7</title>
<path fill="none" stroke="black" d="M534.702,-618.194C545.64,-614.874 558.866,-611.256 571,-609 614.002,-601.004 730.27,-614.749 767,-591 796.581,-571.873 786.1,-551.067 806,-522 840.078,-472.226 871.706,-473.806 892,-417 894.243,-410.722 894.235,-408.281 892,-402 875.57,-355.824 830.578,-318.325 800.866,-297.608"/>
<polygon fill="black" stroke="black" points="802.797,-294.688 792.556,-291.971 798.867,-300.481 802.797,-294.688"/>
<text text-anchor="middle" x="905" y="-449.3" font-family="Times New Roman,serif" font-size="14.00">(c:1,f:0)</text>
</g>
<!-- 3&#45;&gt;8 -->
<g id="edge22" class="edge"><title>3&#45;&gt;8</title>
<path fill="none" stroke="black" d="M484.08,-624.282C458.501,-621.298 420.418,-613.159 396,-591 334.024,-534.756 340.313,-499.087 324,-417 309.022,-341.63 356.938,-256.939 383.91,-216.694"/>
<polygon fill="black" stroke="black" points="386.864,-218.576 389.634,-208.349 381.091,-214.616 386.864,-218.576"/>
<text text-anchor="middle" x="346" y="-405.8" font-family="Times New Roman,serif" font-size="14.00">(c:1,f:0)</text>
</g>
<!-- 3&#45;&gt;9 -->
<g id="edge23" class="edge"><title>3&#45;&gt;9</title>
<path fill="none" stroke="black" d="M500.819,-610.143C492.665,-596.749 481.544,-576.797 475,-558 466.975,-534.949 467.232,-528.306 465,-504 450.203,-342.831 469.186,-300.934 494,-141 494.416,-138.321 494.921,-135.541 495.474,-132.773"/>
<polygon fill="black" stroke="black" points="498.895,-133.513 497.606,-122.996 492.056,-132.021 498.895,-133.513"/>
<text text-anchor="middle" x="483" y="-362.3" font-family="Times New Roman,serif" font-size="14.00">(c:2,f:0)</text>
</g>
<!-- 3&#45;&gt;10 -->
<g id="edge24" class="edge"><title>3&#45;&gt;10</title>
<path fill="none" stroke="black" d="M484.663,-622.991C456.575,-618.925 411.479,-609.886 377,-591 327.074,-563.653 318.494,-548.505 283,-504 205.937,-407.373 207,-360.094 207,-236.5 207,-236.5 207,-236.5 207,-104 207,-50.8234 386.228,-28.9025 465.283,-21.82"/>
<polygon fill="black" stroke="black" points="465.639,-25.3024 475.3,-20.9543 465.036,-18.3284 465.639,-25.3024"/>
<text text-anchor="middle" x="231" y="-318.8" font-family="Times New Roman,serif" font-size="14.00">(c:2,f:1)</text>
</g>
<!-- 4&#45;&gt;5 -->
<g id="edge25" class="edge"><title>4&#45;&gt;5</title>
<path fill="none" stroke="black" d="M530.874,-527.738C542.63,-520.994 557.762,-512.171 571,-504 581.385,-497.59 582.78,-493.801 594,-489 630.764,-473.269 675.794,-463.938 706.667,-458.919"/>
<polygon fill="black" stroke="black" points="707.219,-462.375 716.562,-457.379 706.142,-455.459 707.219,-462.375"/>
<text text-anchor="middle" x="616" y="-492.8" font-family="Times New Roman,serif" font-size="14.00">(c:2,f:0)</text>
</g>
<!-- 4&#45;&gt;6 -->
<g id="edge26" class="edge"><title>4&#45;&gt;6</title>
<path fill="none" stroke="black" d="M525.352,-524.743C531.701,-518.412 539.245,-510.855 546,-504 576.002,-473.553 578.864,-460.727 613,-435 643.062,-412.343 681.677,-392.822 708.394,-380.581"/>
<polygon fill="black" stroke="black" points="709.98,-383.705 717.662,-376.408 707.106,-377.323 709.98,-383.705"/>
<text text-anchor="middle" x="635" y="-449.3" font-family="Times New Roman,serif" font-size="14.00">(c:2,f:0)</text>
</g>
<!-- 4&#45;&gt;7 -->
<g id="edge27" class="edge"><title>4&#45;&gt;7</title>
<path fill="none" stroke="black" d="M517.813,-522.13C529.63,-494.455 556.141,-438.816 592,-402 637.825,-354.951 704.561,-315.69 742.891,-295.236"/>
<polygon fill="black" stroke="black" points="744.773,-298.201 751.994,-290.448 741.514,-292.006 744.773,-298.201"/>
<text text-anchor="middle" x="614" y="-405.8" font-family="Times New Roman,serif" font-size="14.00">(c:2,f:0)</text>
</g>
<!-- 4&#45;&gt;8 -->
<g id="edge28" class="edge"><title>4&#45;&gt;8</title>
<path fill="none" stroke="black" d="M497.498,-524.144C474.784,-498.068 429.681,-441.366 412,-384 394.682,-327.81 396.055,-257.999 398.55,-220.274"/>
<polygon fill="black" stroke="black" points="402.057,-220.315 399.305,-210.084 395.076,-219.798 402.057,-220.315"/>
<text text-anchor="middle" x="434" y="-362.3" font-family="Times New Roman,serif" font-size="14.00">(c:1,f:0)</text>
</g>
<!-- 4&#45;&gt;9 -->
<g id="edge29" class="edge"><title>4&#45;&gt;9</title>
<path fill="none" stroke="black" d="M513.207,-521.837C516.756,-493.292 523.575,-434.227 526,-384 526.771,-368.019 532.322,-362.698 526,-348 521.404,-337.314 511.715,-340.634 507,-330 491.727,-295.557 496.706,-184.973 500.032,-133.206"/>
<polygon fill="black" stroke="black" points="503.533,-133.312 500.709,-123.101 496.548,-132.845 503.533,-133.312"/>
<text text-anchor="middle" x="529" y="-318.8" font-family="Times New Roman,serif" font-size="14.00">(c:1,f:0)</text>
</g>
<!-- 4&#45;&gt;10 -->
<g id="edge30" class="edge"><title>4&#45;&gt;10</title>
<path fill="none" stroke="black" d="M492.447,-526.692C474.733,-514.244 448.127,-493.65 430,-471 392.148,-423.704 291,-297.078 291,-236.5 291,-236.5 291,-236.5 291,-104 291,-30.0474 403.896,-18.8039 464.527,-18.0981"/>
<polygon fill="black" stroke="black" points="464.856,-21.5974 474.847,-18.0736 464.839,-14.5975 464.856,-21.5974"/>
<text text-anchor="middle" x="332" y="-275.3" font-family="Times New Roman,serif" font-size="14.00">(c:2,f:1)</text>
</g>
<!-- 5&#45;&gt;6 -->
<g id="edge31" class="edge"><title>5&#45;&gt;6</title>
<path fill="none" stroke="black" d="M742.393,-434.799C741.982,-423.163 741.431,-407.548 740.961,-394.237"/>
<polygon fill="black" stroke="black" points="744.457,-394.046 740.606,-384.175 737.461,-394.293 744.457,-394.046"/>
<text text-anchor="middle" x="763" y="-405.8" font-family="Times New Roman,serif" font-size="14.00">(c:1,f:0)</text>
</g>
<!-- 5&#45;&gt;7 -->
<g id="edge32" class="edge"><title>5&#45;&gt;7</title>
<path fill="none" stroke="black" d="M764.105,-441.702C773.557,-435.874 783.741,-427.609 789,-417 809.133,-376.383 798.645,-359.295 789,-315 788.325,-311.901 787.351,-308.748 786.211,-305.668"/>
<polygon fill="black" stroke="black" points="789.323,-304.044 782.169,-296.229 782.888,-306.799 789.323,-304.044"/>
<text text-anchor="middle" x="822" y="-362.3" font-family="Times New Roman,serif" font-size="14.00">(c:2,f:0)</text>
</g>
<!-- 5&#45;&gt;8 -->
<g id="edge33" class="edge"><title>5&#45;&gt;8</title>
<path fill="none" stroke="black" d="M720.421,-442.898C705.792,-436.555 686.624,-427.39 671,-417 642.418,-397.992 584.557,-332.454 555,-315 534.663,-302.991 524.942,-309.655 505,-297 470.437,-275.066 438.379,-239.819 419.241,-216.535"/>
<polygon fill="black" stroke="black" points="421.798,-214.129 412.795,-208.544 416.35,-218.525 421.798,-214.129"/>
<text text-anchor="middle" x="596" y="-318.8" font-family="Times New Roman,serif" font-size="14.00">(c:1,f:0)</text>
</g>
<!-- 5&#45;&gt;9 -->
<g id="edge34" class="edge"><title>5&#45;&gt;9</title>
<path fill="none" stroke="black" d="M732.451,-436.035C714.291,-408.287 676.342,-349.13 648,-297 631.763,-267.135 633.5,-256.518 615,-228 587.374,-185.414 576.414,-177.368 541,-141 536.252,-136.124 530.948,-131.109 525.819,-126.452"/>
<polygon fill="black" stroke="black" points="527.805,-123.534 518.008,-119.501 523.152,-128.764 527.805,-123.534"/>
<text text-anchor="middle" x="670" y="-275.3" font-family="Times New Roman,serif" font-size="14.00">(c:1,f:0)</text>
</g>
<!-- 5&#45;&gt;10 -->
<g id="edge35" class="edge"><title>5&#45;&gt;10</title>
<path fill="none" stroke="black" d="M766.478,-444.037C791.454,-434.201 829.817,-414.879 848,-384 914.993,-270.233 924.537,-190.047 842,-87 825.586,-66.507 817.608,-63.1559 793,-54 747.278,-36.9884 606.799,-25.8252 539.157,-21.293"/>
<polygon fill="black" stroke="black" points="539.16,-17.7858 528.952,-20.6227 538.701,-24.7707 539.16,-17.7858"/>
<text text-anchor="middle" x="923" y="-231.8" font-family="Times New Roman,serif" font-size="14.00">(c:1,f:1)</text>
</g>
<!-- 6&#45;&gt;7 -->
<g id="edge36" class="edge"><title>6&#45;&gt;7</title>
<path fill="none" stroke="black" d="M739.338,-347.755C739.534,-337.84 740.784,-325.34 745,-315 746.767,-310.668 749.248,-306.44 752.011,-302.506"/>
<polygon fill="black" stroke="black" points="754.921,-304.467 758.341,-294.439 749.414,-300.146 754.921,-304.467"/>
<text text-anchor="middle" x="767" y="-318.8" font-family="Times New Roman,serif" font-size="14.00">(c:2,f:0)</text>
</g>
<!-- 6&#45;&gt;8 -->
<g id="edge37" class="edge"><title>6&#45;&gt;8</title>
<path fill="none" stroke="black" d="M718.131,-354.989C695.125,-344.578 657.781,-328.011 625,-315 603.048,-306.287 596.347,-307.106 575,-297 520.629,-271.261 461.293,-233.529 427.861,-211.294"/>
<polygon fill="black" stroke="black" points="429.401,-208.112 419.144,-205.456 425.505,-213.929 429.401,-208.112"/>
<text text-anchor="middle" x="597" y="-275.3" font-family="Times New Roman,serif" font-size="14.00">(c:2,f:1)</text>
</g>
<!-- 6&#45;&gt;9 -->
<g id="edge38" class="edge"><title>6&#45;&gt;9</title>
<path fill="none" stroke="black" d="M733.069,-348.426C711.844,-297.818 648.655,-148.285 640,-141 611.751,-117.223 569.479,-109.277 539.169,-106.783"/>
<polygon fill="black" stroke="black" points="539.199,-103.278 528.99,-106.112 538.738,-110.263 539.199,-103.278"/>
<text text-anchor="middle" x="709" y="-231.8" font-family="Times New Roman,serif" font-size="14.00">(c:2,f:0)</text>
</g>
<!-- 6&#45;&gt;10 -->
<g id="edge39" class="edge"><title>6&#45;&gt;10</title>
<path fill="none" stroke="black" d="M762.206,-355.351C788.275,-342.346 828,-316.534 828,-280 828,-280 828,-280 828,-104 828,-44.8345 624.399,-26.0975 539.001,-20.8407"/>
<polygon fill="black" stroke="black" points="539.143,-17.3431 528.955,-20.2513 538.733,-24.3311 539.143,-17.3431"/>
<text text-anchor="middle" x="850" y="-188.3" font-family="Times New Roman,serif" font-size="14.00">(c:1,f:1)</text>
</g>
<!-- 7&#45;&gt;8 -->
<g id="edge40" class="edge"><title>7&#45;&gt;8</title>
<path fill="none" stroke="black" d="M747.271,-272.762C730.649,-269.386 708.55,-264.912 689,-261 648.573,-252.911 638.217,-252.074 598,-243 540.652,-230.06 474.507,-212.785 435.307,-202.298"/>
<polygon fill="black" stroke="black" points="436.034,-198.87 425.469,-199.657 434.219,-205.63 436.034,-198.87"/>
<text text-anchor="middle" x="620" y="-231.8" font-family="Times New Roman,serif" font-size="14.00">(c:1,f:0)</text>
</g>
<!-- 7&#45;&gt;9 -->
<g id="edge41" class="edge"><title>7&#45;&gt;9</title>
<path fill="none" stroke="black" d="M761.549,-262.45C751.513,-248.741 736.602,-228.177 724,-210 703.001,-179.711 708.635,-161.492 678,-141 636.223,-113.056 577.203,-106.432 539.264,-105.355"/>
<polygon fill="black" stroke="black" points="539.212,-101.853 529.155,-105.185 539.095,-108.852 539.212,-101.853"/>
<text text-anchor="middle" x="746" y="-188.3" font-family="Times New Roman,serif" font-size="14.00">(c:2,f:0)</text>
</g>
<!-- 7&#45;&gt;10 -->
<g id="edge42" class="edge"><title>7&#45;&gt;10</title>
<path fill="none" stroke="black" d="M776.814,-261.1C780.766,-239.269 784.322,-200.886 768,-174 715.691,-87.8361 596.095,-44.5046 536.737,-27.6588"/>
<polygon fill="black" stroke="black" points="537.635,-24.2759 527.065,-24.998 535.779,-31.0252 537.635,-24.2759"/>
<text text-anchor="middle" x="777" y="-144.8" font-family="Times New Roman,serif" font-size="14.00">(c:2,f:2)</text>
</g>
<!-- 8&#45;&gt;9 -->
<g id="edge43" class="edge"><title>8&#45;&gt;9</title>
<path fill="none" stroke="black" d="M403.573,-173.87C405.962,-163.251 410.495,-149.972 419,-141 431.651,-127.653 450.193,-119.183 466.544,-113.926"/>
<polygon fill="black" stroke="black" points="467.754,-117.218 476.37,-111.052 465.789,-110.5 467.754,-117.218"/>
<text text-anchor="middle" x="441" y="-144.8" font-family="Times New Roman,serif" font-size="14.00">(c:2,f:0)</text>
</g>
<!-- 8&#45;&gt;10 -->
<g id="edge44" class="edge"><title>8&#45;&gt;10</title>
<path fill="none" stroke="black" d="M400.636,-173.667C400.988,-151.715 404.386,-113.556 422,-87 435.556,-66.5614 456.961,-48.8233 474.22,-36.5928"/>
<polygon fill="black" stroke="black" points="476.531,-39.2523 482.804,-30.7139 472.575,-33.4769 476.531,-39.2523"/>
<text text-anchor="middle" x="444" y="-101.3" font-family="Times New Roman,serif" font-size="14.00">(c:2,f:2)</text>
</g>
<!-- 9&#45;&gt;10 -->
<g id="edge45" class="edge"><title>9&#45;&gt;10</title>
<path fill="none" stroke="black" d="M502,-86.799C502,-75.1626 502,-59.5479 502,-46.2368"/>
<polygon fill="black" stroke="black" points="505.5,-46.1754 502,-36.1754 498.5,-46.1755 505.5,-46.1754"/>
<text text-anchor="middle" x="524" y="-57.8" font-family="Times New Roman,serif" font-size="14.00">(c:2,f:1)</text>
</g>
</g>
</svg>
