<?xml version="1.0" encoding="UTF-8" standalone="no"?>
<!DOCTYPE svg PUBLIC "-//W3C//DTD SVG 1.1//EN"
 "http://www.w3.org/Graphics/SVG/1.1/DTD/svg11.dtd">
<!-- Generated by graphviz version 2.38.0 (20140413.2041)
 -->
<!-- Title: gerichtet Pages: 1 -->
<svg width="212pt" height="392pt"
 viewBox="0.00 0.00 212.00 392.00" xmlns="http://www.w3.org/2000/svg" xmlns:xlink="http://www.w3.org/1999/xlink">
<g id="graph0" class="graph" transform="scale(1 1) rotate(0) translate(4 388)">
<title>gerichtet</title>
<polygon fill="white" stroke="none" points="-4,4 -4,-388 208,-388 208,4 -4,4"/>
<!-- 0 -->
<g id="node1" class="node"><title>0</title>
<ellipse fill="none" stroke="black" cx="127" cy="-366" rx="27" ry="18"/>
<text text-anchor="middle" x="127" y="-362.3" font-family="Times New Roman,serif" font-size="14.00">0</text>
</g>
<!-- 1 -->
<g id="node2" class="node"><title>1</title>
<ellipse fill="none" stroke="black" cx="127" cy="-279" rx="27" ry="18"/>
<text text-anchor="middle" x="127" y="-275.3" font-family="Times New Roman,serif" font-size="14.00">1</text>
</g>
<!-- 0&#45;&gt;1 -->
<g id="edge1" class="edge"><title>0&#45;&gt;1</title>
<path fill="none" stroke="black" d="M127,-347.799C127,-336.163 127,-320.548 127,-307.237"/>
<polygon fill="black" stroke="black" points="130.5,-307.175 127,-297.175 123.5,-307.175 130.5,-307.175"/>
<text text-anchor="middle" x="152.5" y="-318.8" font-family="Times New Roman,serif" font-size="14.00">(c:10,f:7)</text>
</g>
<!-- 2 -->
<g id="node3" class="node"><title>2</title>
<ellipse fill="none" stroke="black" cx="94" cy="-192" rx="27" ry="18"/>
<text text-anchor="middle" x="94" y="-188.3" font-family="Times New Roman,serif" font-size="14.00">2</text>
</g>
<!-- 1&#45;&gt;2 -->
<g id="edge2" class="edge"><title>1&#45;&gt;2</title>
<path fill="none" stroke="black" d="M110.252,-264.379C104.283,-258.497 98.2398,-251.104 95,-243 92.1959,-235.986 91.1823,-227.965 91.0659,-220.431"/>
<polygon fill="black" stroke="black" points="94.5698,-220.372 91.4059,-210.261 87.5737,-220.138 94.5698,-220.372"/>
<text text-anchor="middle" x="120.5" y="-231.8" font-family="Times New Roman,serif" font-size="14.00">(c:10,f:7)</text>
</g>
<!-- 4 -->
<g id="node4" class="node"><title>4</title>
<ellipse fill="none" stroke="black" cx="93" cy="-105" rx="27" ry="18"/>
<text text-anchor="middle" x="93" y="-101.3" font-family="Times New Roman,serif" font-size="14.00">4</text>
</g>
<!-- 2&#45;&gt;4 -->
<g id="edge3" class="edge"><title>2&#45;&gt;4</title>
<path fill="none" stroke="black" d="M93.7976,-173.799C93.6607,-162.163 93.477,-146.548 93.3204,-133.237"/>
<polygon fill="black" stroke="black" points="96.8196,-133.134 93.2021,-123.175 89.82,-133.216 96.8196,-133.134"/>
<text text-anchor="middle" x="115" y="-144.8" font-family="Times New Roman,serif" font-size="14.00">(c:7,f:7)</text>
</g>
<!-- 3 -->
<g id="node5" class="node"><title>3</title>
<ellipse fill="none" stroke="black" cx="130" cy="-18" rx="27" ry="18"/>
<text text-anchor="middle" x="130" y="-14.3" font-family="Times New Roman,serif" font-size="14.00">3</text>
</g>
<!-- 4&#45;&gt;3 -->
<g id="edge5" class="edge"><title>4&#45;&gt;3</title>
<path fill="none" stroke="black" d="M93.9978,-86.709C95.0805,-76.7787 97.3305,-64.2787 102,-54 103.935,-49.7403 106.506,-45.5508 109.307,-41.6336"/>
<polygon fill="black" stroke="black" points="112.217,-43.5951 115.649,-33.5715 106.715,-39.2672 112.217,-43.5951"/>
<text text-anchor="middle" x="124" y="-57.8" font-family="Times New Roman,serif" font-size="14.00">(c:5,f:0)</text>
</g>
<!-- 5 -->
<g id="node6" class="node"><title>5</title>
<ellipse fill="none" stroke="black" cx="27" cy="-18" rx="27" ry="18"/>
<text text-anchor="middle" x="27" y="-14.3" font-family="Times New Roman,serif" font-size="14.00">5</text>
</g>
<!-- 4&#45;&gt;5 -->
<g id="edge6" class="edge"><title>4&#45;&gt;5</title>
<path fill="none" stroke="black" d="M71.8003,-93.8227C61.4719,-87.8894 49.6594,-79.4963 42,-69 37.0418,-62.2054 33.7071,-53.7654 31.4705,-45.7663"/>
<polygon fill="black" stroke="black" points="34.8771,-44.9628 29.1852,-36.0268 28.0622,-46.5619 34.8771,-44.9628"/>
<text text-anchor="middle" x="67.5" y="-57.8" font-family="Times New Roman,serif" font-size="14.00">(c:15,f:7)</text>
</g>
<!-- 3&#45;&gt;1 -->
<g id="edge4" class="edge"><title>3&#45;&gt;1</title>
<path fill="none" stroke="black" d="M139.169,-35.2287C141.936,-40.9738 144.607,-47.6023 146,-54 163.871,-136.077 166.674,-161.584 146,-243 145.123,-246.455 143.828,-249.939 142.319,-253.299"/>
<polygon fill="black" stroke="black" points="139.143,-251.823 137.672,-262.315 145.365,-255.03 139.143,-251.823"/>
<text text-anchor="middle" x="182" y="-144.8" font-family="Times New Roman,serif" font-size="14.00">(c:5,f:0)</text>
</g>
</g>
</svg>
