<?xml version="1.0" encoding="UTF-8" standalone="no"?>
<!DOCTYPE svg PUBLIC "-//W3C//DTD SVG 1.1//EN"
 "http://www.w3.org/Graphics/SVG/1.1/DTD/svg11.dtd">
<!-- Generated by graphviz version 2.38.0 (20140413.2041)
 -->
<!-- Title: gerichtet Pages: 1 -->
<svg width="218pt" height="413pt"
 viewBox="0.00 0.00 218.00 413.00" xmlns="http://www.w3.org/2000/svg" xmlns:xlink="http://www.w3.org/1999/xlink">
<g id="graph0" class="graph" transform="scale(1 1) rotate(0) translate(4 409)">
<title>gerichtet</title>
<polygon fill="white" stroke="none" points="-4,4 -4,-409 214,-409 214,4 -4,4"/>
<!-- 0 -->
<g id="node1" class="node"><title>0</title>
<ellipse fill="none" stroke="black" cx="97" cy="-387" rx="27" ry="18"/>
<text text-anchor="middle" x="97" y="-383.3" font-family="Times New Roman,serif" font-size="14.00">0</text>
</g>
<!-- 1 -->
<g id="node2" class="node"><title>1</title>
<ellipse fill="none" stroke="black" cx="27" cy="-246" rx="27" ry="18"/>
<text text-anchor="middle" x="27" y="-242.3" font-family="Times New Roman,serif" font-size="14.00">1</text>
</g>
<!-- 0&#45;&gt;1 -->
<g id="edge1" class="edge"><title>0&#45;&gt;1</title>
<path fill="none" stroke="black" d="M75.9595,-375.359C66.3294,-369.45 55.6144,-361.215 49,-351 34.0874,-327.969 29.0758,-296.612 27.4948,-274.368"/>
<polygon fill="black" stroke="black" points="30.9836,-274.06 26.9659,-264.256 23.9931,-274.426 30.9836,-274.06"/>
<text text-anchor="middle" x="71" y="-339.8" font-family="Times New Roman,serif" font-size="14.00">(c:2,f:2)</text>
</g>
<!-- 2 -->
<g id="node3" class="node"><title>2</title>
<ellipse fill="none" stroke="black" cx="97" cy="-300" rx="27" ry="18"/>
<text text-anchor="middle" x="97" y="-296.3" font-family="Times New Roman,serif" font-size="14.00">2</text>
</g>
<!-- 0&#45;&gt;2 -->
<g id="edge2" class="edge"><title>0&#45;&gt;2</title>
<path fill="none" stroke="black" d="M97,-368.799C97,-357.163 97,-341.548 97,-328.237"/>
<polygon fill="black" stroke="black" points="100.5,-328.175 97,-318.175 93.5001,-328.175 100.5,-328.175"/>
<text text-anchor="middle" x="119" y="-339.8" font-family="Times New Roman,serif" font-size="14.00">(c:1,f:1)</text>
</g>
<!-- 3 -->
<g id="node4" class="node"><title>3</title>
<ellipse fill="none" stroke="black" cx="148" cy="-192" rx="27" ry="18"/>
<text text-anchor="middle" x="148" y="-188.3" font-family="Times New Roman,serif" font-size="14.00">3</text>
</g>
<!-- 0&#45;&gt;3 -->
<g id="edge3" class="edge"><title>0&#45;&gt;3</title>
<path fill="none" stroke="black" d="M118.26,-375.497C127.942,-369.621 138.637,-361.374 145,-351 173.765,-304.099 167.345,-282.383 159,-228 158.58,-225.261 157.985,-222.443 157.286,-219.651"/>
<polygon fill="black" stroke="black" points="160.587,-218.467 154.433,-209.843 153.866,-220.423 160.587,-218.467"/>
<text text-anchor="middle" x="188" y="-296.3" font-family="Times New Roman,serif" font-size="14.00">(c:3,f:3)</text>
</g>
<!-- 5 -->
<g id="node5" class="node"><title>5</title>
<ellipse fill="none" stroke="black" cx="81" cy="-18" rx="27" ry="18"/>
<text text-anchor="middle" x="81" y="-14.3" font-family="Times New Roman,serif" font-size="14.00">5</text>
</g>
<!-- 1&#45;&gt;5 -->
<g id="edge4" class="edge"><title>1&#45;&gt;5</title>
<path fill="none" stroke="black" d="M21.387,-228.182C15.2891,-207.411 7.37255,-171.129 15,-141 24.3279,-104.153 47.2422,-66.3663 63.4438,-42.8049"/>
<polygon fill="black" stroke="black" points="66.3926,-44.6961 69.2822,-34.5029 60.6668,-40.6693 66.3926,-44.6961"/>
<text text-anchor="middle" x="37" y="-144.8" font-family="Times New Roman,serif" font-size="14.00">(c:4,f:2)</text>
</g>
<!-- 2&#45;&gt;3 -->
<g id="edge5" class="edge"><title>2&#45;&gt;3</title>
<path fill="none" stroke="black" d="M98.8923,-281.756C101.096,-266.796 105.697,-244.943 115,-228 117.713,-223.059 121.29,-218.29 125.086,-213.946"/>
<polygon fill="black" stroke="black" points="127.673,-216.304 132.017,-206.641 122.595,-211.486 127.673,-216.304"/>
<text text-anchor="middle" x="137" y="-242.3" font-family="Times New Roman,serif" font-size="14.00">(c:6,f:0)</text>
</g>
<!-- 2&#45;&gt;5 -->
<g id="edge6" class="edge"><title>2&#45;&gt;5</title>
<path fill="none" stroke="black" d="M96.0232,-281.906C93.3397,-234.946 85.8374,-103.654 82.5624,-46.3426"/>
<polygon fill="black" stroke="black" points="86.0492,-46.0098 81.9843,-36.2258 79.0606,-46.4092 86.0492,-46.0098"/>
<text text-anchor="middle" x="110" y="-144.8" font-family="Times New Roman,serif" font-size="14.00">(c:5,f:1)</text>
</g>
<!-- 4 -->
<g id="node6" class="node"><title>4</title>
<ellipse fill="none" stroke="black" cx="142" cy="-105" rx="27" ry="18"/>
<text text-anchor="middle" x="142" y="-101.3" font-family="Times New Roman,serif" font-size="14.00">4</text>
</g>
<!-- 3&#45;&gt;4 -->
<g id="edge7" class="edge"><title>3&#45;&gt;4</title>
<path fill="none" stroke="black" d="M146.786,-173.799C145.964,-162.163 144.862,-146.548 143.923,-133.237"/>
<polygon fill="black" stroke="black" points="147.408,-132.904 143.212,-123.175 140.425,-133.397 147.408,-132.904"/>
<text text-anchor="middle" x="167" y="-144.8" font-family="Times New Roman,serif" font-size="14.00">(c:8,f:3)</text>
</g>
<!-- 4&#45;&gt;5 -->
<g id="edge8" class="edge"><title>4&#45;&gt;5</title>
<path fill="none" stroke="black" d="M130.812,-88.4097C121.697,-75.709 108.674,-57.5615 98.2292,-43.0079"/>
<polygon fill="black" stroke="black" points="100.791,-40.5752 92.1174,-34.4915 95.1044,-44.6566 100.791,-40.5752"/>
<text text-anchor="middle" x="137" y="-57.8" font-family="Times New Roman,serif" font-size="14.00">(c:4,f:3)</text>
</g>
</g>
</svg>
