<?xml version="1.0" encoding="UTF-8" standalone="no"?>
<!DOCTYPE svg PUBLIC "-//W3C//DTD SVG 1.1//EN"
 "http://www.w3.org/Graphics/SVG/1.1/DTD/svg11.dtd">
<!-- Generated by graphviz version 2.38.0 (20140413.2041)
 -->
<!-- Title: gerichtet Pages: 1 -->
<svg width="255pt" height="521pt"
 viewBox="0.00 0.00 255.00 521.00" xmlns="http://www.w3.org/2000/svg" xmlns:xlink="http://www.w3.org/1999/xlink">
<g id="graph0" class="graph" transform="scale(1 1) rotate(0) translate(4 517)">
<title>gerichtet</title>
<polygon fill="white" stroke="none" points="-4,4 -4,-517 251,-517 251,4 -4,4"/>
<!-- 11 -->
<g id="node1" class="node"><title>11</title>
<ellipse fill="none" stroke="black" cx="100" cy="-495" rx="27" ry="18"/>
<text text-anchor="middle" x="100" y="-491.3" font-family="Times New Roman,serif" font-size="14.00">11</text>
</g>
<!-- 12 -->
<g id="node2" class="node"><title>12</title>
<ellipse fill="none" stroke="black" cx="27" cy="-354" rx="27" ry="18"/>
<text text-anchor="middle" x="27" y="-350.3" font-family="Times New Roman,serif" font-size="14.00">12</text>
</g>
<!-- 11&#45;&gt;12 -->
<g id="edge1" class="edge"><title>11&#45;&gt;12</title>
<path fill="none" stroke="black" d="M79.0811,-483.279C69.4799,-477.351 58.754,-469.124 52,-459 36.6781,-436.034 30.7208,-404.667 28.4188,-382.402"/>
<polygon fill="black" stroke="black" points="31.8928,-381.947 27.5573,-372.28 24.918,-382.541 31.8928,-381.947"/>
<text text-anchor="middle" x="74" y="-447.8" font-family="Times New Roman,serif" font-size="14.00">(c:1,f:1)</text>
</g>
<!-- 13 -->
<g id="node3" class="node"><title>13</title>
<ellipse fill="none" stroke="black" cx="100" cy="-354" rx="27" ry="18"/>
<text text-anchor="middle" x="100" y="-350.3" font-family="Times New Roman,serif" font-size="14.00">13</text>
</g>
<!-- 11&#45;&gt;13 -->
<g id="edge2" class="edge"><title>11&#45;&gt;13</title>
<path fill="none" stroke="black" d="M100,-476.956C100,-453.404 100,-410.639 100,-382.526"/>
<polygon fill="black" stroke="black" points="103.5,-382.184 100,-372.184 96.5001,-382.184 103.5,-382.184"/>
<text text-anchor="middle" x="125.5" y="-447.8" font-family="Times New Roman,serif" font-size="14.00">(c:10,f:0)</text>
</g>
<!-- 14 -->
<g id="node4" class="node"><title>14</title>
<ellipse fill="none" stroke="black" cx="188" cy="-408" rx="27" ry="18"/>
<text text-anchor="middle" x="188" y="-404.3" font-family="Times New Roman,serif" font-size="14.00">14</text>
</g>
<!-- 11&#45;&gt;14 -->
<g id="edge3" class="edge"><title>11&#45;&gt;14</title>
<path fill="none" stroke="black" d="M120.808,-483.529C131.777,-477.36 144.994,-468.841 155,-459 162.297,-451.823 168.86,-442.776 174.176,-434.356"/>
<polygon fill="black" stroke="black" points="177.294,-435.962 179.429,-425.585 171.288,-432.366 177.294,-435.962"/>
<text text-anchor="middle" x="191.5" y="-447.8" font-family="Times New Roman,serif" font-size="14.00">(c:10,f:0)</text>
</g>
<!-- 18 -->
<g id="node5" class="node"><title>18</title>
<ellipse fill="none" stroke="black" cx="89" cy="-105" rx="27" ry="18"/>
<text text-anchor="middle" x="89" y="-101.3" font-family="Times New Roman,serif" font-size="14.00">18</text>
</g>
<!-- 12&#45;&gt;18 -->
<g id="edge4" class="edge"><title>12&#45;&gt;18</title>
<path fill="none" stroke="black" d="M23.2933,-336.097C18.6335,-311.767 12.3401,-265.657 22,-228 31.4769,-191.056 54.7366,-153.292 71.1812,-129.762"/>
<polygon fill="black" stroke="black" points="74.1389,-131.643 77.1071,-121.472 68.4443,-127.572 74.1389,-131.643"/>
<text text-anchor="middle" x="44" y="-242.3" font-family="Times New Roman,serif" font-size="14.00">(c:1,f:1)</text>
</g>
<!-- 15 -->
<g id="node6" class="node"><title>15</title>
<ellipse fill="none" stroke="black" cx="102" cy="-246" rx="27" ry="18"/>
<text text-anchor="middle" x="102" y="-242.3" font-family="Times New Roman,serif" font-size="14.00">15</text>
</g>
<!-- 13&#45;&gt;15 -->
<g id="edge5" class="edge"><title>13&#45;&gt;15</title>
<path fill="none" stroke="black" d="M100.321,-335.969C100.634,-319.378 101.115,-293.883 101.482,-274.431"/>
<polygon fill="black" stroke="black" points="104.983,-274.405 101.673,-264.341 97.9847,-274.273 104.983,-274.405"/>
<text text-anchor="middle" x="126.5" y="-296.3" font-family="Times New Roman,serif" font-size="14.00">(c:10,f:0)</text>
</g>
<!-- 16 -->
<g id="node7" class="node"><title>16</title>
<ellipse fill="none" stroke="black" cx="196" cy="-300" rx="27" ry="18"/>
<text text-anchor="middle" x="196" y="-296.3" font-family="Times New Roman,serif" font-size="14.00">16</text>
</g>
<!-- 14&#45;&gt;16 -->
<g id="edge6" class="edge"><title>14&#45;&gt;16</title>
<path fill="none" stroke="black" d="M189.285,-389.969C190.545,-373.279 192.485,-347.579 193.956,-328.084"/>
<polygon fill="black" stroke="black" points="197.455,-328.224 194.718,-317.988 190.475,-327.697 197.455,-328.224"/>
<text text-anchor="middle" x="218.5" y="-350.3" font-family="Times New Roman,serif" font-size="14.00">(c:10,f:0)</text>
</g>
<!-- 19 -->
<g id="node9" class="node"><title>19</title>
<ellipse fill="none" stroke="black" cx="89" cy="-18" rx="27" ry="18"/>
<text text-anchor="middle" x="89" y="-14.3" font-family="Times New Roman,serif" font-size="14.00">19</text>
</g>
<!-- 18&#45;&gt;19 -->
<g id="edge10" class="edge"><title>18&#45;&gt;19</title>
<path fill="none" stroke="black" d="M89,-86.799C89,-75.1626 89,-59.5479 89,-46.2368"/>
<polygon fill="black" stroke="black" points="92.5001,-46.1754 89,-36.1754 85.5001,-46.1755 92.5001,-46.1754"/>
<text text-anchor="middle" x="114.5" y="-57.8" font-family="Times New Roman,serif" font-size="14.00">(c:10,f:1)</text>
</g>
<!-- 15&#45;&gt;18 -->
<g id="edge7" class="edge"><title>15&#45;&gt;18</title>
<path fill="none" stroke="black" d="M99.9529,-227.92C99.2956,-222.224 98.5865,-215.842 98,-210 95.3947,-184.049 92.8743,-154.408 91.1668,-133.428"/>
<polygon fill="black" stroke="black" points="94.6436,-132.998 90.3518,-123.311 87.6662,-133.56 94.6436,-132.998"/>
<text text-anchor="middle" x="129" y="-188.3" font-family="Times New Roman,serif" font-size="14.00">(c:&#45;100,f:0)</text>
</g>
<!-- 17 -->
<g id="node8" class="node"><title>17</title>
<ellipse fill="none" stroke="black" cx="196" cy="-192" rx="27" ry="18"/>
<text text-anchor="middle" x="196" y="-188.3" font-family="Times New Roman,serif" font-size="14.00">17</text>
</g>
<!-- 16&#45;&gt;17 -->
<g id="edge8" class="edge"><title>16&#45;&gt;17</title>
<path fill="none" stroke="black" d="M196,-281.969C196,-265.378 196,-239.883 196,-220.431"/>
<polygon fill="black" stroke="black" points="199.5,-220.341 196,-210.341 192.5,-220.341 199.5,-220.341"/>
<text text-anchor="middle" x="221.5" y="-242.3" font-family="Times New Roman,serif" font-size="14.00">(c:10,f:0)</text>
</g>
<!-- 17&#45;&gt;18 -->
<g id="edge9" class="edge"><title>17&#45;&gt;18</title>
<path fill="none" stroke="black" d="M179.281,-177.719C161.795,-163.828 134.149,-141.866 114.053,-125.902"/>
<polygon fill="black" stroke="black" points="115.962,-122.948 105.954,-119.469 111.607,-128.429 115.962,-122.948"/>
<text text-anchor="middle" x="179" y="-144.8" font-family="Times New Roman,serif" font-size="14.00">(c:&#45;200,f:0)</text>
</g>
</g>
</svg>
